SplineFontDB: 3.2
FontName: Montserrat-Regular
FullName: Montserrat Regular
FamilyName: Montserrat
Weight: Book
Copyright: Copyright 2011 The Montserrat Project Authors (https://github.com/JulietaUla/Montserrat)\n\nCopyright 2021 - a fork with Greek (including Greek Extended) support, by Jorge Mendez
Version: 7.200
ItalicAngle: 0
UnderlinePosition: -100
UnderlineWidth: 50
Ascent: 800
Descent: 200
InvalidEm: 0
sfntRevision: 0x00073333
LayerCount: 2
Layer: 0 1 "Back" 1
Layer: 1 1 "Fore" 0
XUID: [1021 803 785858591 12175190]
StyleMap: 0x0040
FSType: 0
OS2Version: 4
OS2_WeightWidthSlopeOnly: 0
OS2_UseTypoMetrics: 1
CreationTime: 1508265414
ModificationTime: 1628168362
PfmFamily: 81
TTFWeight: 400
TTFWidth: 5
LineGap: 0
VLineGap: 0
Panose: 0 0 5 0 0 0 0 0 0 0
OS2TypoAscent: 968
OS2TypoAOffset: 0
OS2TypoDescent: -251
OS2TypoDOffset: 0
OS2TypoLinegap: 0
OS2WinAscent: 1109
OS2WinAOffset: 0
OS2WinDescent: 270
OS2WinDOffset: 0
HheadAscent: 968
HheadAOffset: 0
HheadDescent: -251
HheadDOffset: 0
OS2SubXSize: 650
OS2SubYSize: 600
OS2SubXOff: 0
OS2SubYOff: 75
OS2SupXSize: 650
OS2SupYSize: 600
OS2SupXOff: 0
OS2SupYOff: 350
OS2StrikeYSize: 50
OS2StrikeYPos: 315
OS2CapHeight: 700
OS2XHeight: 525
OS2Vendor: 'ULA '
OS2CodePages: 20000197.00000000
OS2UnicodeRanges: 2000020f.00000003.00000000.00000000
Lookup: 1 0 0 "'aalt' Access All Alternates lookup 0" { "'aalt' Access All Alternates lookup 0 subtable"  } ['aalt' ('DFLT' <'dflt' > 'cyrl' <'BGR ' 'MKD ' 'SRB ' 'dflt' > 'latn' <'AZE ' 'CAT ' 'CRT ' 'KAZ ' 'MOL ' 'NLD ' 'ROM ' 'TAT ' 'TRK ' 'dflt' > ) ]
Lookup: 3 0 0 "'aalt' Access All Alternates lookup 1" { "'aalt' Access All Alternates lookup 1 subtable"  } ['aalt' ('DFLT' <'dflt' > 'cyrl' <'BGR ' 'MKD ' 'SRB ' 'dflt' > 'latn' <'AZE ' 'CAT ' 'CRT ' 'KAZ ' 'MOL ' 'NLD ' 'ROM ' 'TAT ' 'TRK ' 'dflt' > ) ]

StartChar: .notdef
Encoding: 65536 -1 0
Width: 587
Flags: W
LayerCount: 2
Fore
SplineSet
40 700 m 1,0,-1
 547 700 l 1,1,-1
 547 0 l 1,2,-1
 40 0 l 1,3,-1
 40 700 l 1,0,-1
467 70 m 1,4,-1
 467 630 l 1,5,-1
 120 630 l 1,6,-1
 120 70 l 1,7,-1
 467 70 l 1,4,-1
EndSplineSet
EndChar

StartChar: A
Encoding: 65 65 4
Width: 717
GlyphClass: 2
Flags: W
AnchorPoint: "Anchor-14" 0 0 basechar 0
AnchorPoint: "Anchor-13" 0 0 basechar 0
AnchorPoint: "Anchor-12" 359 700 basechar 0
AnchorPoint: "Anchor-11" 715 0 basechar 0
AnchorPoint: "Anchor-10" 359 0 basechar 0
LayerCount: 2
Fore
SplineSet
553 187 m 1,0,-1
 163 187 l 1,1,-1
 79 0 l 1,2,-1
 2 0 l 1,3,-1
 322 700 l 1,4,-1
 395 700 l 1,5,-1
 715 0 l 1,6,-1
 637 0 l 1,7,-1
 553 187 l 1,0,-1
526 247 m 1,8,-1
 358 623 l 1,9,-1
 190 247 l 1,10,-1
 526 247 l 1,8,-1
EndSplineSet
Substitution2: "Single Substitution lookup 44 subtable" ordfeminine
Substitution2: "'ss01' Style Set 1 lookup 42 subtable" A.ss01
Substitution2: "'salt' Stylistic Alternatives lookup 41 subtable" A.ss01
Substitution2: "'c2sc' Capitals to Small Capitals lookup 36 subtable" a.sc
AlternateSubs2: "'aalt' Access All Alternates lookup 1 subtable" ordfeminine a.sc A.ss01
EndChar

StartChar: AE
Encoding: 198 198 30
Width: 1033
GlyphClass: 2
Flags: W
AnchorPoint: "Anchor-14" 0 0 basechar 0
AnchorPoint: "Anchor-13" 0 0 basechar 0
AnchorPoint: "Anchor-12" 515 700 basechar 0
AnchorPoint: "Anchor-11" 0 0 basechar 0
AnchorPoint: "Anchor-10" 515 0 basechar 0
LayerCount: 2
Fore
SplineSet
973 64 m 1,0,-1
 973 0 l 1,1,-1
 479 0 l 1,2,-1
 479 187 l 1,3,-1
 192 187 l 1,4,-1
 79 0 l 1,5,-1
 2 0 l 1,6,-1
 429 700 l 1,7,-1
 958 700 l 1,8,-1
 958 636 l 1,9,-1
 552 636 l 1,10,-1
 552 387 l 1,11,-1
 915 387 l 1,12,-1
 915 324 l 1,13,-1
 552 324 l 1,14,-1
 552 64 l 1,15,-1
 973 64 l 1,0,-1
479 247 m 1,16,-1
 479 636 l 1,17,-1
 464 636 l 1,18,-1
 228 247 l 1,19,-1
 479 247 l 1,16,-1
EndSplineSet
Substitution2: "'ss01' Style Set 1 lookup 42 subtable" AE.ss01
Substitution2: "'salt' Stylistic Alternatives lookup 41 subtable" AE.ss01
Substitution2: "'c2sc' Capitals to Small Capitals lookup 36 subtable" ae.sc
AlternateSubs2: "'aalt' Access All Alternates lookup 1 subtable" ae.sc AE.ss01
EndChar

StartChar: B
Encoding: 66 66 32
Width: 754
GlyphClass: 2
Flags: W
AnchorPoint: "Anchor-14" 0 0 basechar 0
AnchorPoint: "Anchor-13" 0 0 basechar 0
AnchorPoint: "Anchor-12" 378 700 basechar 0
AnchorPoint: "Anchor-11" 0 0 basechar 0
AnchorPoint: "Anchor-10" 378 0 basechar 0
LayerCount: 2
Fore
SplineSet
661.5 301.5 m 128,-1,1
 699 257 699 257 699 187 c 0,2,3
 699 97 699 97 632.5 48.5 c 128,-1,4
 566 0 566 0 436 0 c 2,5,-1
 114 0 l 1,6,-1
 114 700 l 1,7,-1
 416 700 l 2,8,9
 533 700 533 700 597.5 653 c 128,-1,10
 662 606 662 606 662 520 c 0,11,12
 662 462 662 462 633.5 421.5 c 128,-1,13
 605 381 605 381 555 361 c 1,14,0
 624 346 624 346 661.5 301.5 c 128,-1,1
188 639 m 1,15,-1
 188 385 l 1,16,-1
 411 385 l 2,17,18
 496 385 496 385 542 417.5 c 128,-1,19
 588 450 588 450 588 512 c 256,20,21
 588 574 588 574 542 606.5 c 128,-1,22
 496 639 496 639 411 639 c 2,23,-1
 188 639 l 1,15,-1
577 93 m 128,-1,25
 625 125 625 125 625 193 c 0,26,27
 625 324 625 324 435 324 c 2,28,-1
 188 324 l 1,29,-1
 188 61 l 1,30,-1
 435 61 l 2,31,24
 529 61 529 61 577 93 c 128,-1,25
EndSplineSet
Substitution2: "'c2sc' Capitals to Small Capitals lookup 36 subtable" b.sc
Substitution2: "'aalt' Access All Alternates lookup 0 subtable" b.sc
EndChar

StartChar: C
Encoding: 67 67 33
Width: 719
GlyphClass: 2
Flags: W
AnchorPoint: "Anchor-14" 0 0 basechar 0
AnchorPoint: "Anchor-13" 0 0 basechar 0
AnchorPoint: "Anchor-12" 410 700 basechar 0
AnchorPoint: "Anchor-11" 0 0 basechar 0
AnchorPoint: "Anchor-10" 404 0 basechar 0
LayerCount: 2
Fore
SplineSet
230.5 40 m 128,-1,1
 147 86 147 86 99.5 167.5 c 128,-1,2
 52 249 52 249 52 350 c 256,3,4
 52 451 52 451 99.5 532.5 c 128,-1,5
 147 614 147 614 231 660 c 128,-1,6
 315 706 315 706 419 706 c 0,7,8
 497 706 497 706 563 680 c 128,-1,9
 629 654 629 654 675 604 c 1,10,-1
 628 557 l 1,11,12
 546 640 546 640 421 640 c 0,13,14
 338 640 338 640 270 602 c 128,-1,15
 202 564 202 564 163.5 498 c 128,-1,16
 125 432 125 432 125 350 c 256,17,18
 125 268 125 268 163.5 202 c 128,-1,19
 202 136 202 136 270 98 c 128,-1,20
 338 60 338 60 421 60 c 0,21,22
 547 60 547 60 628 144 c 1,23,-1
 675 97 l 1,24,25
 629 47 629 47 562.5 20.5 c 128,-1,26
 496 -6 496 -6 418 -6 c 0,27,0
 314 -6 314 -6 230.5 40 c 128,-1,1
EndSplineSet
Substitution2: "'c2sc' Capitals to Small Capitals lookup 36 subtable" c.sc
Substitution2: "'aalt' Access All Alternates lookup 0 subtable" c.sc
EndChar

StartChar: D
Encoding: 68 68 40
Width: 826
GlyphClass: 2
Flags: W
AnchorPoint: "Anchor-14" 0 0 basechar 0
AnchorPoint: "Anchor-13" 202 356 basechar 0
AnchorPoint: "Anchor-12" 383 699 basechar 0
AnchorPoint: "Anchor-11" 0 0 basechar 0
AnchorPoint: "Anchor-10" 388 0 basechar 0
LayerCount: 2
Fore
SplineSet
114 700 m 1,0,-1
 399 700 l 2,1,2
 510 700 510 700 595 655.5 c 128,-1,3
 680 611 680 611 727 531.5 c 128,-1,4
 774 452 774 452 774 350 c 256,5,6
 774 248 774 248 727 168.5 c 128,-1,7
 680 89 680 89 595 44.5 c 128,-1,8
 510 0 510 0 399 0 c 2,9,-1
 114 0 l 1,10,-1
 114 700 l 1,0,-1
395 64 m 2,11,12
 487 64 487 64 556 100.5 c 128,-1,13
 625 137 625 137 663 201.5 c 128,-1,14
 701 266 701 266 701 350 c 256,15,16
 701 434 701 434 663 498.5 c 128,-1,17
 625 563 625 563 556 599.5 c 128,-1,18
 487 636 487 636 395 636 c 2,19,-1
 188 636 l 1,20,-1
 188 64 l 1,21,-1
 395 64 l 2,11,12
EndSplineSet
Substitution2: "'c2sc' Capitals to Small Capitals lookup 36 subtable" d.sc
Substitution2: "'aalt' Access All Alternates lookup 0 subtable" d.sc
EndChar

StartChar: E
Encoding: 69 69 48
Width: 669
GlyphClass: 2
Flags: W
AnchorPoint: "Anchor-14" 0 0 basechar 0
AnchorPoint: "Anchor-13" 0 0 basechar 0
AnchorPoint: "Anchor-12" 355 700 basechar 0
AnchorPoint: "Anchor-11" 609 0 basechar 0
AnchorPoint: "Anchor-10" 368 0 basechar 0
LayerCount: 2
Fore
SplineSet
609 64 m 5,0,-1
 609 0 l 5,1,-1
 114 0 l 5,2,-1
 114 700 l 5,3,-1
 594 700 l 5,4,-1
 594 636 l 5,5,-1
 188 636 l 5,6,-1
 188 387 l 5,7,-1
 550 387 l 5,8,-1
 550 324 l 5,9,-1
 188 324 l 5,10,-1
 188 64 l 5,11,-1
 609 64 l 5,0,-1
EndSplineSet
Substitution2: "'ss01' Style Set 1 lookup 42 subtable" E.ss01
Substitution2: "'salt' Stylistic Alternatives lookup 41 subtable" E.ss01
Substitution2: "'c2sc' Capitals to Small Capitals lookup 36 subtable" e.sc
AlternateSubs2: "'aalt' Access All Alternates lookup 1 subtable" e.sc E.ss01
EndChar

StartChar: F
Encoding: 70 70 73
Width: 633
Flags: W
LayerCount: 2
Fore
SplineSet
188 636 m 1,0,-1
 188 361 l 1,1,-1
 550 361 l 1,2,-1
 550 297 l 1,3,-1
 188 297 l 1,4,-1
 188 0 l 1,5,-1
 114 0 l 1,6,-1
 114 700 l 1,7,-1
 594 700 l 1,8,-1
 594 636 l 1,9,-1
 188 636 l 1,0,-1
EndSplineSet
Substitution2: "'ss01' Style Set 1 lookup 42 subtable" F.ss01
Substitution2: "'salt' Stylistic Alternatives lookup 41 subtable" F.ss01
Substitution2: "'c2sc' Capitals to Small Capitals lookup 36 subtable" f.sc
AlternateSubs2: "'aalt' Access All Alternates lookup 1 subtable" f.sc F.ss01
EndChar

StartChar: G
Encoding: 71 71 74
Width: 773
GlyphClass: 2
Flags: W
AnchorPoint: "Anchor-14" 0 0 basechar 0
AnchorPoint: "Anchor-13" 0 0 basechar 0
AnchorPoint: "Anchor-12" 408 700 basechar 0
AnchorPoint: "Anchor-11" 0 0 basechar 0
AnchorPoint: "Anchor-10" 404 0 basechar 0
LayerCount: 2
Fore
SplineSet
607 350 m 1,0,-1
 678 350 l 1,1,-1
 678 83 l 1,2,3
 629 40 629 40 562 17 c 128,-1,4
 495 -6 495 -6 421 -6 c 0,5,6
 316 -6 316 -6 232 40 c 128,-1,7
 148 86 148 86 100 167.5 c 128,-1,8
 52 249 52 249 52 350 c 256,9,10
 52 451 52 451 100 532.5 c 128,-1,11
 148 614 148 614 232 660 c 128,-1,12
 316 706 316 706 422 706 c 0,13,14
 502 706 502 706 569 680.5 c 128,-1,15
 636 655 636 655 682 605 c 1,16,-1
 636 558 l 1,17,18
 553 640 553 640 425 640 c 0,19,20
 340 640 340 640 271.5 602.5 c 128,-1,21
 203 565 203 565 164 498.5 c 128,-1,22
 125 432 125 432 125 350 c 256,23,24
 125 268 125 268 164 202 c 128,-1,25
 203 136 203 136 271 98 c 128,-1,26
 339 60 339 60 424 60 c 0,27,28
 532 60 532 60 607 114 c 1,29,-1
 607 350 l 1,0,-1
EndSplineSet
Substitution2: "'ss01' Style Set 1 lookup 42 subtable" G.ss01
Substitution2: "'salt' Stylistic Alternatives lookup 41 subtable" G.ss01
Substitution2: "'c2sc' Capitals to Small Capitals lookup 36 subtable" g.sc
AlternateSubs2: "'aalt' Access All Alternates lookup 1 subtable" g.sc G.ss01
EndChar

StartChar: H
Encoding: 72 72 82
Width: 813
GlyphClass: 2
Flags: W
AnchorPoint: "Anchor-14" 0 0 basechar 0
AnchorPoint: "Anchor-13" 406 548 basechar 0
AnchorPoint: "Anchor-12" 406 700 basechar 0
AnchorPoint: "Anchor-11" 0 0 basechar 0
AnchorPoint: "Anchor-10" 406 0 basechar 0
LayerCount: 2
Fore
SplineSet
699 700 m 1,0,-1
 699 0 l 1,1,-1
 626 0 l 1,2,-1
 626 323 l 1,3,-1
 188 323 l 1,4,-1
 188 0 l 1,5,-1
 114 0 l 1,6,-1
 114 700 l 1,7,-1
 188 700 l 1,8,-1
 188 388 l 1,9,-1
 626 388 l 1,10,-1
 626 700 l 1,11,-1
 699 700 l 1,0,-1
EndSplineSet
Substitution2: "'c2sc' Capitals to Small Capitals lookup 36 subtable" h.sc
Substitution2: "'aalt' Access All Alternates lookup 0 subtable" h.sc
EndChar

StartChar: I
Encoding: 73 73 88
Width: 302
GlyphClass: 2
Flags: W
AnchorPoint: "Anchor-14" 0 0 basechar 0
AnchorPoint: "Anchor-13" 0 0 basechar 0
AnchorPoint: "Anchor-12" 151 700 basechar 0
AnchorPoint: "Anchor-11" 188 0 basechar 0
AnchorPoint: "Anchor-10" 151 0 basechar 0
LayerCount: 2
Fore
SplineSet
114 700 m 1,0,-1
 188 700 l 1,1,-1
 188 0 l 1,2,-1
 114 0 l 1,3,-1
 114 700 l 1,0,-1
EndSplineSet
Substitution2: "'ss01' Style Set 1 lookup 42 subtable" I.ss01
Substitution2: "'salt' Stylistic Alternatives lookup 41 subtable" I.ss01
Substitution2: "'c2sc' Capitals to Small Capitals lookup 36 subtable" i.sc
AlternateSubs2: "'aalt' Access All Alternates lookup 1 subtable" i.sc I.ss01
EndChar

StartChar: IJ
Encoding: 306 306 89
Width: 718
GlyphClass: 2
Flags: W
AnchorPoint: "Anchor-14" 0 0 basechar 0
AnchorPoint: "Anchor-13" 0 0 basechar 0
AnchorPoint: "Anchor-12" 158 700 basechar 0
AnchorPoint: "Anchor-11" 0 0 basechar 0
AnchorPoint: "Anchor-10" 0 0 basechar 0
LayerCount: 2
Fore
SplineSet
202.5 12.5 m 128,-1,1
 143 31 143 31 98 63 c 1,2,-1
 128 122 l 1,3,4
 170 92 170 92 221.5 76 c 128,-1,5
 273 60 273 60 329 60 c 0,6,7
 429 60 429 60 482.5 119.5 c 128,-1,8
 536 179 536 179 536 299 c 2,9,-1
 536 700 l 1,10,-1
 610 700 l 1,11,-1
 610 302 l 2,12,13
 610 152 610 152 534 73 c 128,-1,14
 458 -6 458 -6 327 -6 c 0,15,0
 262 -6 262 -6 202.5 12.5 c 128,-1,1
108 700 m 1,16,-1
 182 700 l 1,17,-1
 182 302 l 1,18,-1
 108 302 l 1,19,-1
 108 700 l 1,16,-1
EndSplineSet
Substitution2: "'ss01' Style Set 1 lookup 42 subtable" IJ.ss01
Substitution2: "'salt' Stylistic Alternatives lookup 41 subtable" IJ.ss01
Substitution2: "'c2sc' Capitals to Small Capitals lookup 36 subtable" ij.sc
AlternateSubs2: "'aalt' Access All Alternates lookup 1 subtable" ij.sc IJ.ss01
EndChar

StartChar: J
Encoding: 74 74 104
Width: 501
GlyphClass: 2
Flags: W
AnchorPoint: "Anchor-14" 0 0 basechar 0
AnchorPoint: "Anchor-13" 0 0 basechar 0
AnchorPoint: "Anchor-12" 229 700 basechar 0
AnchorPoint: "Anchor-11" 0 0 basechar 0
AnchorPoint: "Anchor-10" 0 0 basechar 0
LayerCount: 2
Fore
SplineSet
78 20 m 128,-1,1
 27 46 27 46 -5 94 c 1,2,-1
 39 144 l 1,3,4
 97 58 97 58 190 58 c 0,5,6
 320 58 320 58 320 212 c 2,7,-1
 320 636 l 1,8,-1
 64 636 l 1,9,-1
 64 700 l 1,10,-1
 393 700 l 1,11,-1
 393 215 l 2,12,13
 393 105 393 105 341.5 49.5 c 128,-1,14
 290 -6 290 -6 189 -6 c 0,15,0
 129 -6 129 -6 78 20 c 128,-1,1
EndSplineSet
Substitution2: "'ss01' Style Set 1 lookup 42 subtable" J.ss01
Substitution2: "'salt' Stylistic Alternatives lookup 41 subtable" J.ss01
Substitution2: "'c2sc' Capitals to Small Capitals lookup 36 subtable" j.sc
AlternateSubs2: "'aalt' Access All Alternates lookup 1 subtable" j.sc J.ss01
EndChar

StartChar: K
Encoding: 75 75 106
Width: 711
GlyphClass: 2
Flags: W
AnchorPoint: "Anchor-14" 0 0 basechar 0
AnchorPoint: "Anchor-13" 0 0 basechar 0
AnchorPoint: "Anchor-12" 373 700 basechar 0
AnchorPoint: "Anchor-11" 0 0 basechar 0
AnchorPoint: "Anchor-10" 373 0 basechar 0
LayerCount: 2
Fore
SplineSet
331 329 m 1,0,-1
 188 184 l 1,1,-1
 188 0 l 1,2,-1
 114 0 l 1,3,-1
 114 700 l 1,4,-1
 188 700 l 1,5,-1
 188 277 l 1,6,-1
 599 700 l 1,7,-1
 684 700 l 1,8,-1
 381 383 l 1,9,-1
 705 0 l 1,10,-1
 617 0 l 1,11,-1
 331 329 l 1,0,-1
EndSplineSet
Substitution2: "'c2sc' Capitals to Small Capitals lookup 36 subtable" k.sc
Substitution2: "'aalt' Access All Alternates lookup 0 subtable" k.sc
EndChar

StartChar: L
Encoding: 76 76 109
Width: 589
GlyphClass: 2
Flags: W
AnchorPoint: "Anchor-14" 440 700 basechar 0
AnchorPoint: "Anchor-13" 151 371 basechar 0
AnchorPoint: "Anchor-12" 151 700 basechar 0
AnchorPoint: "Anchor-11" 0 0 basechar 0
AnchorPoint: "Anchor-10" 358 0 basechar 0
LayerCount: 2
Fore
SplineSet
114 700 m 1,0,-1
 188 700 l 1,1,-1
 188 64 l 1,2,-1
 580 64 l 1,3,-1
 580 0 l 1,4,-1
 114 0 l 1,5,-1
 114 700 l 1,0,-1
EndSplineSet
Substitution2: "'c2sc' Capitals to Small Capitals lookup 36 subtable" l.sc
Substitution2: "'aalt' Access All Alternates lookup 0 subtable" l.sc
EndChar

StartChar: M
Encoding: 77 77 119
Width: 955
GlyphClass: 2
Flags: W
AnchorPoint: "Anchor-14" 0 0 basechar 0
AnchorPoint: "Anchor-13" 0 0 basechar 0
AnchorPoint: "Anchor-12" 477 700 basechar 0
AnchorPoint: "Anchor-11" 0 0 basechar 0
AnchorPoint: "Anchor-10" 477 0 basechar 0
LayerCount: 2
Fore
SplineSet
841 700 m 1,0,-1
 841 0 l 1,1,-1
 770 0 l 1,2,-1
 770 560 l 1,3,-1
 495 89 l 1,4,-1
 460 89 l 1,5,-1
 185 557 l 1,6,-1
 185 0 l 1,7,-1
 114 0 l 1,8,-1
 114 700 l 1,9,-1
 175 700 l 1,10,-1
 479 181 l 1,11,-1
 780 700 l 1,12,-1
 841 700 l 1,0,-1
EndSplineSet
Substitution2: "'ss01' Style Set 1 lookup 42 subtable" M.ss01
Substitution2: "'salt' Stylistic Alternatives lookup 41 subtable" M.ss01
Substitution2: "'c2sc' Capitals to Small Capitals lookup 36 subtable" m.sc
AlternateSubs2: "'aalt' Access All Alternates lookup 1 subtable" m.sc M.ss01
EndChar

StartChar: N
Encoding: 78 78 121
Width: 813
GlyphClass: 2
Flags: W
AnchorPoint: "Anchor-14" 0 0 basechar 0
AnchorPoint: "Anchor-13" 0 0 basechar 0
AnchorPoint: "Anchor-12" 406 700 basechar 0
AnchorPoint: "Anchor-11" 0 0 basechar 0
AnchorPoint: "Anchor-10" 406 0 basechar 0
LayerCount: 2
Fore
SplineSet
699 700 m 1,0,-1
 699 0 l 1,1,-1
 638 0 l 1,2,-1
 188 568 l 1,3,-1
 188 0 l 1,4,-1
 114 0 l 1,5,-1
 114 700 l 1,6,-1
 175 700 l 1,7,-1
 626 132 l 1,8,-1
 626 700 l 1,9,-1
 699 700 l 1,0,-1
EndSplineSet
Substitution2: "'ss01' Style Set 1 lookup 42 subtable" N.ss01
Substitution2: "'salt' Stylistic Alternatives lookup 41 subtable" N.ss01
Substitution2: "'c2sc' Capitals to Small Capitals lookup 36 subtable" n.sc
AlternateSubs2: "'aalt' Access All Alternates lookup 1 subtable" n.sc N.ss01
EndChar

StartChar: Eng
Encoding: 330 330 128
Width: 813
Flags: W
LayerCount: 2
Fore
SplineSet
699 700 m 1,0,-1
 699 28 l 2,1,2
 699 -199 699 -199 497 -199 c 0,3,4
 443 -199 443 -199 396.5 -176.5 c 128,-1,5
 350 -154 350 -154 319 -113 c 1,6,-1
 356 -61 l 1,7,8
 411 -135 411 -135 497 -135 c 0,9,10
 561 -135 561 -135 593 -98 c 128,-1,11
 625 -61 625 -61 626 15 c 1,12,-1
 188 568 l 1,13,-1
 188 0 l 1,14,-1
 114 0 l 1,15,-1
 114 700 l 1,16,-1
 175 700 l 1,17,-1
 626 132 l 1,18,-1
 626 700 l 1,19,-1
 699 700 l 1,0,-1
EndSplineSet
Substitution2: "'ss01' Style Set 1 lookup 42 subtable" Eng.ss01
Substitution2: "'salt' Stylistic Alternatives lookup 41 subtable" Eng.ss01
Substitution2: "'c2sc' Capitals to Small Capitals lookup 36 subtable" eng.sc
AlternateSubs2: "'aalt' Access All Alternates lookup 1 subtable" eng.sc Eng.ss01
EndChar

StartChar: O
Encoding: 79 79 132
Width: 839
GlyphClass: 2
Flags: W
AnchorPoint: "Anchor-14" 648 700 basechar 0
AnchorPoint: "Anchor-13" 420 350 basechar 0
AnchorPoint: "Anchor-12" 420 700 basechar 0
AnchorPoint: "Anchor-11" 488 0 basechar 0
AnchorPoint: "Anchor-10" 420 0 basechar 0
LayerCount: 2
Fore
SplineSet
231.5 40.5 m 128,-1,1
 147 87 147 87 99.5 168 c 128,-1,2
 52 249 52 249 52 350 c 256,3,4
 52 451 52 451 99.5 532 c 128,-1,5
 147 613 147 613 231.5 659.5 c 128,-1,6
 316 706 316 706 420 706 c 256,7,8
 524 706 524 706 607.5 660 c 128,-1,9
 691 614 691 614 739 532.5 c 128,-1,10
 787 451 787 451 787 350 c 256,11,12
 787 249 787 249 739 167.5 c 128,-1,13
 691 86 691 86 607.5 40 c 128,-1,14
 524 -6 524 -6 420 -6 c 256,15,0
 316 -6 316 -6 231.5 40.5 c 128,-1,1
570 97.5 m 128,-1,17
 637 135 637 135 675 201.5 c 128,-1,18
 713 268 713 268 713 350 c 256,19,20
 713 432 713 432 675 498.5 c 128,-1,21
 637 565 637 565 570 602.5 c 128,-1,22
 503 640 503 640 420 640 c 256,23,24
 337 640 337 640 269.5 602.5 c 128,-1,25
 202 565 202 565 163.5 498.5 c 128,-1,26
 125 432 125 432 125 350 c 256,27,28
 125 268 125 268 163.5 201.5 c 128,-1,29
 202 135 202 135 269.5 97.5 c 128,-1,30
 337 60 337 60 420 60 c 256,31,16
 503 60 503 60 570 97.5 c 128,-1,17
EndSplineSet
Substitution2: "Single Substitution lookup 44 subtable" ordmasculine
Substitution2: "'c2sc' Capitals to Small Capitals lookup 36 subtable" o.sc
AlternateSubs2: "'aalt' Access All Alternates lookup 1 subtable" ordmasculine o.sc
EndChar

StartChar: Ohorn
Encoding: 416 416 148
Width: 839
GlyphClass: 2
Flags: W
AnchorPoint: "Anchor-14" 0 0 basechar 0
AnchorPoint: "Anchor-13" 0 0 basechar 0
AnchorPoint: "Anchor-12" 420 700 basechar 0
AnchorPoint: "Anchor-11" 0 0 basechar 0
AnchorPoint: "Anchor-10" 420 0 basechar 0
LayerCount: 2
Fore
SplineSet
745.5 521 m 128,-1,1
 787 443 787 443 787 350 c 0,2,3
 787 249 787 249 739 167.5 c 128,-1,4
 691 86 691 86 607.5 40 c 128,-1,5
 524 -6 524 -6 420 -6 c 256,6,7
 316 -6 316 -6 231.5 40.5 c 128,-1,8
 147 87 147 87 99.5 168 c 128,-1,9
 52 249 52 249 52 350 c 256,10,11
 52 451 52 451 100 532.5 c 128,-1,12
 148 614 148 614 232.5 660 c 128,-1,13
 317 706 317 706 422 706 c 0,14,15
 469 706 469 706 537 698 c 0,16,17
 595 692 595 692 620 692 c 0,18,19
 719 692 719 692 719 768 c 0,20,21
 719 799 719 799 699 832 c 1,22,-1
 746 850 l 1,23,24
 772 813 772 813 772 766 c 0,25,26
 772 710 772 710 735.5 678.5 c 128,-1,27
 699 647 699 647 631 644 c 1,28,0
 704 599 704 599 745.5 521 c 128,-1,1
570 98 m 128,-1,30
 637 136 637 136 675 202.5 c 128,-1,31
 713 269 713 269 713 350 c 256,32,33
 713 431 713 431 675 497.5 c 128,-1,34
 637 564 637 564 570 602 c 128,-1,35
 503 640 503 640 420 640 c 256,36,37
 337 640 337 640 269.5 602 c 128,-1,38
 202 564 202 564 163.5 498 c 128,-1,39
 125 432 125 432 125 350 c 256,40,41
 125 268 125 268 163.5 202 c 128,-1,42
 202 136 202 136 269.5 98 c 128,-1,43
 337 60 337 60 420 60 c 256,44,29
 503 60 503 60 570 98 c 128,-1,30
EndSplineSet
Substitution2: "'c2sc' Capitals to Small Capitals lookup 36 subtable" ohorn.sc
Substitution2: "'aalt' Access All Alternates lookup 0 subtable" ohorn.sc
EndChar

StartChar: uni01EA
Encoding: 490 490 159
Width: 839
GlyphClass: 2
Flags: W
AnchorPoint: "Anchor-14" 0 0 basechar 0
AnchorPoint: "Anchor-13" 0 0 basechar 0
AnchorPoint: "Anchor-12" 420 700 basechar 0
AnchorPoint: "Anchor-11" 0 0 basechar 0
AnchorPoint: "Anchor-10" 0 0 basechar 0
LayerCount: 2
Fore
SplineSet
607.5 660 m 128,-1,1
 691 614 691 614 739 532.5 c 128,-1,2
 787 451 787 451 787 350 c 0,3,4
 787 262 787 262 751 190 c 128,-1,5
 715 118 715 118 653.5 71 c 128,-1,6
 592 24 592 24 516 6 c 0,7,8
 450 -10 450 -10 408 -44.5 c 128,-1,9
 366 -79 366 -79 366 -120 c 0,10,11
 366 -147 366 -147 384 -161.5 c 128,-1,12
 402 -176 402 -176 431 -176 c 0,13,14
 469 -176 469 -176 492 -157 c 1,15,-1
 509 -196 l 1,16,17
 473 -220 473 -220 424 -220 c 0,18,19
 373 -220 373 -220 343.5 -194.5 c 128,-1,20
 314 -169 314 -169 314 -125 c 0,21,22
 314 -55 314 -55 392 -5 c 1,23,24
 294 1 294 1 217 48.5 c 128,-1,25
 140 96 140 96 96 174.5 c 128,-1,26
 52 253 52 253 52 350 c 0,27,28
 52 451 52 451 100 532.5 c 128,-1,29
 148 614 148 614 232 660 c 128,-1,30
 316 706 316 706 420 706 c 256,31,0
 524 706 524 706 607.5 660 c 128,-1,1
570 97.5 m 128,-1,33
 637 135 637 135 675 201.5 c 128,-1,34
 713 268 713 268 713 350 c 256,35,36
 713 432 713 432 675 498.5 c 128,-1,37
 637 565 637 565 570 602.5 c 128,-1,38
 503 640 503 640 420 640 c 256,39,40
 337 640 337 640 269.5 602.5 c 128,-1,41
 202 565 202 565 163.5 498.5 c 128,-1,42
 125 432 125 432 125 350 c 256,43,44
 125 268 125 268 163.5 201.5 c 128,-1,45
 202 135 202 135 269.5 97.5 c 128,-1,46
 337 60 337 60 420 60 c 256,47,32
 503 60 503 60 570 97.5 c 128,-1,33
EndSplineSet
Substitution2: "'c2sc' Capitals to Small Capitals lookup 36 subtable" uni01EB.sc
Substitution2: "'aalt' Access All Alternates lookup 0 subtable" uni01EB.sc
EndChar

StartChar: OE
Encoding: 338 338 166
Width: 1121
GlyphClass: 2
Flags: W
AnchorPoint: "Anchor-14" 0 0 basechar 0
AnchorPoint: "Anchor-13" 0 0 basechar 0
AnchorPoint: "Anchor-12" 602 700 basechar 0
AnchorPoint: "Anchor-11" 0 0 basechar 0
AnchorPoint: "Anchor-10" 602 0 basechar 0
LayerCount: 2
Fore
SplineSet
1061 64 m 1,0,-1
 1061 0 l 1,1,-1
 427 0 l 2,2,3
 317 0 317 0 231.5 44.5 c 128,-1,4
 146 89 146 89 99 168 c 128,-1,5
 52 247 52 247 52 349 c 0,6,7
 52 452 52 452 99 531.5 c 128,-1,8
 146 611 146 611 231 655.5 c 128,-1,9
 316 700 316 700 427 700 c 2,10,-1
 1046 700 l 1,11,-1
 1046 636 l 1,12,-1
 640 636 l 1,13,-1
 640 387 l 1,14,-1
 1002 387 l 1,15,-1
 1002 324 l 1,16,-1
 640 324 l 1,17,-1
 640 64 l 1,18,-1
 1061 64 l 1,0,-1
566 64 m 1,19,-1
 566 636 l 1,20,-1
 430 636 l 2,21,22
 339 636 339 636 269.5 599.5 c 128,-1,23
 200 563 200 563 162.5 498 c 128,-1,24
 125 433 125 433 125 349 c 0,25,26
 125 266 125 266 162.5 201 c 128,-1,27
 200 136 200 136 269.5 100 c 128,-1,28
 339 64 339 64 430 64 c 2,29,-1
 566 64 l 1,19,-1
EndSplineSet
Substitution2: "'c2sc' Capitals to Small Capitals lookup 36 subtable" oe.sc
Substitution2: "'aalt' Access All Alternates lookup 0 subtable" oe.sc
EndChar

StartChar: P
Encoding: 80 80 167
Width: 718
Flags: W
LayerCount: 2
Fore
SplineSet
586 636 m 128,-1,1
 662 572 662 572 662 460 c 256,2,3
 662 348 662 348 586 284.5 c 128,-1,4
 510 221 510 221 376 221 c 2,5,-1
 188 221 l 1,6,-1
 188 0 l 1,7,-1
 114 0 l 1,8,-1
 114 700 l 1,9,-1
 376 700 l 2,10,0
 510 700 510 700 586 636 c 128,-1,1
533 331.5 m 128,-1,12
 588 377 588 377 588 460 c 0,13,14
 588 545 588 545 533 590.5 c 128,-1,15
 478 636 478 636 374 636 c 2,16,-1
 188 636 l 1,17,-1
 188 286 l 1,18,-1
 374 286 l 2,19,11
 478 286 478 286 533 331.5 c 128,-1,12
EndSplineSet
Substitution2: "'c2sc' Capitals to Small Capitals lookup 36 subtable" p.sc
Substitution2: "'aalt' Access All Alternates lookup 0 subtable" p.sc
EndChar

StartChar: Thorn
Encoding: 222 222 168
Width: 718
Flags: W
LayerCount: 2
Fore
SplineSet
586 545 m 128,-1,1
 662 481 662 481 662 369 c 256,2,3
 662 257 662 257 586 193 c 128,-1,4
 510 129 510 129 376 129 c 2,5,-1
 188 129 l 1,6,-1
 188 0 l 1,7,-1
 114 0 l 1,8,-1
 114 700 l 1,9,-1
 188 700 l 1,10,-1
 188 609 l 1,11,-1
 376 609 l 2,12,0
 510 609 510 609 586 545 c 128,-1,1
533 239.5 m 128,-1,14
 588 285 588 285 588 369 c 0,15,16
 588 454 588 454 533 499.5 c 128,-1,17
 478 545 478 545 374 545 c 2,18,-1
 188 545 l 1,19,-1
 188 194 l 1,20,-1
 374 194 l 2,21,13
 478 194 478 194 533 239.5 c 128,-1,14
EndSplineSet
Substitution2: "'c2sc' Capitals to Small Capitals lookup 36 subtable" thorn.sc
Substitution2: "'aalt' Access All Alternates lookup 0 subtable" thorn.sc
EndChar

StartChar: Q
Encoding: 81 81 169
Width: 839
GlyphClass: 2
Flags: W
AnchorPoint: "Anchor-14" 0 0 basechar 0
AnchorPoint: "Anchor-13" 0 0 basechar 0
AnchorPoint: "Anchor-12" 420 700 basechar 0
AnchorPoint: "Anchor-11" 0 0 basechar 0
AnchorPoint: "Anchor-10" 0 0 basechar 0
LayerCount: 2
Fore
SplineSet
819 -59 m 1,0,1
 787 -98 787 -98 743.5 -118.5 c 128,-1,2
 700 -139 700 -139 649 -139 c 0,3,4
 587 -139 587 -139 531.5 -108.5 c 128,-1,5
 476 -78 476 -78 407 -6 c 1,6,7
 306 -3 306 -3 225 44 c 128,-1,8
 144 91 144 91 98 171 c 128,-1,9
 52 251 52 251 52 350 c 0,10,11
 52 451 52 451 99.5 532 c 128,-1,12
 147 613 147 613 231.5 659.5 c 128,-1,13
 316 706 316 706 420 706 c 256,14,15
 524 706 524 706 607.5 660 c 128,-1,16
 691 614 691 614 739 532.5 c 128,-1,17
 787 451 787 451 787 350 c 0,18,19
 787 262 787 262 750.5 188.5 c 128,-1,20
 714 115 714 115 648.5 66 c 128,-1,21
 583 17 583 17 498 1 c 1,22,23
 575 -80 575 -80 650 -80 c 0,24,25
 728 -80 728 -80 783 -16 c 1,26,-1
 819 -59 l 1,0,1
163.5 202 m 128,-1,28
 202 136 202 136 269.5 98 c 128,-1,29
 337 60 337 60 420 60 c 256,30,31
 503 60 503 60 570 98 c 128,-1,32
 637 136 637 136 675 202 c 128,-1,33
 713 268 713 268 713 350 c 256,34,35
 713 432 713 432 675 498 c 128,-1,36
 637 564 637 564 570 602 c 128,-1,37
 503 640 503 640 420 640 c 256,38,39
 337 640 337 640 269.5 602 c 128,-1,40
 202 564 202 564 163.5 498 c 128,-1,41
 125 432 125 432 125 350 c 256,42,27
 125 268 125 268 163.5 202 c 128,-1,28
EndSplineSet
Substitution2: "'ss01' Style Set 1 lookup 42 subtable" Q.ss01
Substitution2: "'salt' Stylistic Alternatives lookup 41 subtable" Q.ss01
Substitution2: "'c2sc' Capitals to Small Capitals lookup 36 subtable" q.sc
AlternateSubs2: "'aalt' Access All Alternates lookup 1 subtable" q.sc Q.ss01
EndChar

StartChar: R
Encoding: 82 82 170
Width: 723
GlyphClass: 2
Flags: W
AnchorPoint: "Anchor-14" 0 0 basechar 0
AnchorPoint: "Anchor-13" 0 0 basechar 0
AnchorPoint: "Anchor-12" 369 700 basechar 0
AnchorPoint: "Anchor-11" 0 0 basechar 0
AnchorPoint: "Anchor-10" 369 0 basechar 0
LayerCount: 2
Fore
SplineSet
592 0 m 1,0,-1
 432 225 l 1,1,2
 405 222 405 222 376 222 c 2,3,-1
 188 222 l 1,4,-1
 188 0 l 1,5,-1
 114 0 l 1,6,-1
 114 700 l 1,7,-1
 376 700 l 2,8,9
 510 700 510 700 586 636 c 128,-1,10
 662 572 662 572 662 460 c 0,11,12
 662 378 662 378 620.5 321.5 c 128,-1,13
 579 265 579 265 502 240 c 1,14,-1
 673 0 l 1,15,-1
 592 0 l 1,0,-1
533 331 m 128,-1,17
 588 377 588 377 588 460 c 0,18,19
 588 545 588 545 533 590.5 c 128,-1,20
 478 636 478 636 374 636 c 2,21,-1
 188 636 l 1,22,-1
 188 285 l 1,23,-1
 374 285 l 2,24,16
 478 285 478 285 533 331 c 128,-1,17
EndSplineSet
Substitution2: "'c2sc' Capitals to Small Capitals lookup 36 subtable" r.sc
Substitution2: "'aalt' Access All Alternates lookup 0 subtable" r.sc
EndChar

StartChar: S
Encoding: 83 83 178
Width: 615
GlyphClass: 2
Flags: W
AnchorPoint: "Anchor-14" 0 0 basechar 0
AnchorPoint: "Anchor-13" 0 0 basechar 0
AnchorPoint: "Anchor-12" 321 700 basechar 0
AnchorPoint: "Anchor-11" 0 0 basechar 0
AnchorPoint: "Anchor-10" 321 0 basechar 0
LayerCount: 2
Fore
SplineSet
157.5 19 m 128,-1,1
 86 44 86 44 47 85 c 1,2,-1
 76 142 l 1,3,4
 114 104 114 104 177 80.5 c 128,-1,5
 240 57 240 57 307 57 c 0,6,7
 401 57 401 57 448 91.5 c 128,-1,8
 495 126 495 126 495 181 c 0,9,10
 495 223 495 223 469.5 248 c 128,-1,11
 444 273 444 273 407 286.5 c 128,-1,12
 370 300 370 300 304 316 c 0,13,14
 225 336 225 336 178 354.5 c 128,-1,15
 131 373 131 373 97.5 411 c 128,-1,16
 64 449 64 449 64 514 c 0,17,18
 64 567 64 567 92 610.5 c 128,-1,19
 120 654 120 654 178 680 c 128,-1,20
 236 706 236 706 322 706 c 0,21,22
 382 706 382 706 439.5 689.5 c 128,-1,23
 497 673 497 673 539 644 c 1,24,-1
 514 585 l 1,25,26
 470 614 470 614 420 628.5 c 128,-1,27
 370 643 370 643 322 643 c 0,28,29
 230 643 230 643 183.5 607.5 c 128,-1,30
 137 572 137 572 137 516 c 0,31,32
 137 474 137 474 162.5 448.5 c 128,-1,33
 188 423 188 423 226.5 409.5 c 128,-1,34
 265 396 265 396 330 380 c 0,35,36
 407 361 407 361 454.5 342.5 c 128,-1,37
 502 324 502 324 535 286.5 c 128,-1,38
 568 249 568 249 568 185 c 0,39,40
 568 132 568 132 539.5 88.5 c 128,-1,41
 511 45 511 45 452 19.5 c 128,-1,42
 393 -6 393 -6 307 -6 c 0,43,0
 229 -6 229 -6 157.5 19 c 128,-1,1
EndSplineSet
Substitution2: "'c2sc' Capitals to Small Capitals lookup 36 subtable" s.sc
Substitution2: "'aalt' Access All Alternates lookup 0 subtable" s.sc
EndChar

StartChar: uniA78B
Encoding: 42891 42891 181
Width: 241
Flags: W
LayerCount: 2
Fore
SplineSet
84 700 m 1,0,-1
 157 700 l 1,1,-1
 149 298 l 1,2,-1
 84 298 l 1,3,-1
 84 700 l 1,0,-1
EndSplineSet
Substitution2: "'c2sc' Capitals to Small Capitals lookup 36 subtable" uniA78C.sc
Substitution2: "'aalt' Access All Alternates lookup 0 subtable" uniA78C.sc
EndChar

StartChar: uni1E9E
Encoding: 7838 7838 190
Width: 756
Flags: W
LayerCount: 2
Fore
SplineSet
636 352 m 128,-1,1
 701 298 701 298 701 200 c 256,2,3
 701 102 701 102 636.5 48 c 128,-1,4
 572 -6 572 -6 467 -6 c 0,5,6
 422 -6 422 -6 388.5 0 c 128,-1,7
 355 6 355 6 324 20 c 1,8,-1
 337 82 l 1,9,10
 388 57 388 57 459 57 c 0,11,12
 537 57 537 57 581.5 94 c 128,-1,13
 626 131 626 131 626 202 c 256,14,15
 626 273 626 273 581 310 c 128,-1,16
 536 347 536 347 456 347 c 0,17,18
 409 347 409 347 371 336 c 1,19,-1
 356 373 l 1,20,-1
 571 608 l 1,21,22
 505 647 505 647 407 647 c 0,23,24
 299 647 299 647 240.5 585.5 c 128,-1,25
 182 524 182 524 182 408 c 2,26,-1
 182 0 l 1,27,-1
 108 0 l 1,28,-1
 108 411 l 2,29,30
 108 551 108 551 187 630.5 c 128,-1,31
 266 710 266 710 406 710 c 0,32,33
 474 710 474 710 533.5 692.5 c 128,-1,34
 593 675 593 675 636 640 c 1,35,-1
 636 592 l 1,36,-1
 465 406 l 1,37,-1
 467 406 l 2,38,0
 571 406 571 406 636 352 c 128,-1,1
EndSplineSet
Substitution2: "'c2sc' Capitals to Small Capitals lookup 36 subtable" germandbls.sc
Substitution2: "'aalt' Access All Alternates lookup 0 subtable" germandbls.sc
EndChar

StartChar: uni018F
Encoding: 399 399 191
Width: 817
GlyphClass: 2
Flags: W
AnchorPoint: "Anchor-14" 0 0 basechar 0
AnchorPoint: "Anchor-13" 0 0 basechar 0
AnchorPoint: "Anchor-12" 409 700 basechar 0
AnchorPoint: "Anchor-11" 0 0 basechar 0
AnchorPoint: "Anchor-10" 409 0 basechar 0
LayerCount: 2
Fore
SplineSet
588 660 m 128,-1,1
 671 614 671 614 718 533 c 128,-1,2
 765 452 765 452 765 351 c 0,3,4
 765 251 765 251 718 169.5 c 128,-1,5
 671 88 671 88 589.5 41 c 128,-1,6
 508 -6 508 -6 409 -6 c 0,7,8
 307 -6 307 -6 225.5 40.5 c 128,-1,9
 144 87 144 87 98 169 c 128,-1,10
 52 251 52 251 52 353 c 2,11,-1
 52 375 l 1,12,-1
 690 375 l 1,13,14
 685 450 685 450 645.5 510.5 c 128,-1,15
 606 571 606 571 542 605.5 c 128,-1,16
 478 640 478 640 401 640 c 0,17,18
 265 640 265 640 177 559 c 1,19,-1
 133 610 l 1,20,21
 182 656 182 656 251.5 681 c 128,-1,22
 321 706 321 706 401 706 c 0,23,0
 505 706 505 706 588 660 c 128,-1,1
545 90.5 m 128,-1,25
 606 123 606 123 644 180.5 c 128,-1,26
 682 238 682 238 689 312 c 1,27,-1
 127 312 l 1,28,29
 135 237 135 237 172.5 179.5 c 128,-1,30
 210 122 210 122 271.5 90 c 128,-1,31
 333 58 333 58 409 58 c 0,32,24
 484 58 484 58 545 90.5 c 128,-1,25
EndSplineSet
Substitution2: "'ss01' Style Set 1 lookup 42 subtable" uni018F.ss01
Substitution2: "'salt' Stylistic Alternatives lookup 41 subtable" uni018F.ss01
Substitution2: "'c2sc' Capitals to Small Capitals lookup 36 subtable" uni0259.sc
AlternateSubs2: "'aalt' Access All Alternates lookup 1 subtable" uni0259.sc uni018F.ss01
EndChar

StartChar: T
Encoding: 84 84 192
Width: 574
GlyphClass: 2
Flags: W
AnchorPoint: "Anchor-14" 0 0 basechar 0
AnchorPoint: "Anchor-13" 287 345 basechar 0
AnchorPoint: "Anchor-12" 287 700 basechar 0
AnchorPoint: "Anchor-11" 0 0 basechar 0
AnchorPoint: "Anchor-10" 287 0 basechar 0
LayerCount: 2
Fore
SplineSet
250 636 m 5,0,-1
 4 636 l 5,1,-1
 4 700 l 5,2,-1
 570 700 l 5,3,-1
 570 636 l 5,4,-1
 324 636 l 5,5,-1
 324 0 l 5,6,-1
 250 0 l 5,7,-1
 250 636 l 5,0,-1
EndSplineSet
Substitution2: "'ss01' Style Set 1 lookup 42 subtable" T.ss01
Substitution2: "'salt' Stylistic Alternatives lookup 41 subtable" T.ss01
Substitution2: "'c2sc' Capitals to Small Capitals lookup 36 subtable" t.sc
AlternateSubs2: "'aalt' Access All Alternates lookup 1 subtable" t.sc T.ss01
EndChar

StartChar: U
Encoding: 85 85 199
Width: 792
GlyphClass: 2
Flags: W
AnchorPoint: "Anchor-14" 664 700 basechar 0
AnchorPoint: "Anchor-13" 0 0 basechar 0
AnchorPoint: "Anchor-12" 396 700 basechar 0
AnchorPoint: "Anchor-11" 592 0 basechar 0
AnchorPoint: "Anchor-10" 396 0 basechar 0
LayerCount: 2
Fore
SplineSet
184 72 m 128,-1,1
 108 150 108 150 108 299 c 2,2,-1
 108 700 l 1,3,-1
 182 700 l 1,4,-1
 182 302 l 2,5,6
 182 180 182 180 237 120 c 128,-1,7
 292 60 292 60 396 60 c 0,8,9
 501 60 501 60 556 120 c 128,-1,10
 611 180 611 180 611 302 c 2,11,-1
 611 700 l 1,12,-1
 683 700 l 1,13,-1
 683 299 l 2,14,15
 683 150 683 150 607.5 72 c 128,-1,16
 532 -6 532 -6 396 -6 c 256,17,0
 260 -6 260 -6 184 72 c 128,-1,1
EndSplineSet
Substitution2: "'ss01' Style Set 1 lookup 42 subtable" U.ss01
Substitution2: "'salt' Stylistic Alternatives lookup 41 subtable" U.ss01
Substitution2: "'c2sc' Capitals to Small Capitals lookup 36 subtable" u.sc
AlternateSubs2: "'aalt' Access All Alternates lookup 1 subtable" u.sc U.ss01
EndChar

StartChar: Uogonek
Encoding: 370 370 219
Width: 792
Flags: W
LayerCount: 2
Fore
SplineSet
683 700 m 1,0,-1
 683 299 l 2,1,2
 683 69 683 69 504 8 c 0,3,4
 356 -43 356 -43 356 -120 c 0,5,6
 356 -147 356 -147 374 -161.5 c 128,-1,7
 392 -176 392 -176 421 -176 c 0,8,9
 459 -176 459 -176 482 -157 c 1,10,-1
 498 -196 l 1,11,12
 464 -220 464 -220 414 -220 c 0,13,14
 363 -220 363 -220 333 -194.5 c 128,-1,15
 303 -169 303 -169 303 -125 c 0,16,17
 303 -54 303 -54 380 -6 c 1,18,19
 251 -1 251 -1 179.5 77 c 128,-1,20
 108 155 108 155 108 299 c 2,21,-1
 108 700 l 1,22,-1
 182 700 l 1,23,-1
 182 302 l 2,24,25
 182 180 182 180 237 120 c 128,-1,26
 292 60 292 60 396 60 c 0,27,28
 501 60 501 60 556 120 c 128,-1,29
 611 180 611 180 611 302 c 2,30,-1
 611 700 l 1,31,-1
 683 700 l 1,0,-1
EndSplineSet
Substitution2: "'ss01' Style Set 1 lookup 42 subtable" Uogonek.ss01
Substitution2: "'salt' Stylistic Alternatives lookup 41 subtable" Uogonek.ss01
Substitution2: "'c2sc' Capitals to Small Capitals lookup 36 subtable" uogonek.sc
AlternateSubs2: "'aalt' Access All Alternates lookup 1 subtable" uogonek.sc Uogonek.ss01
EndChar

StartChar: V
Encoding: 86 86 223
Width: 698
Flags: W
LayerCount: 2
Fore
SplineSet
696 700 m 1,0,-1
 386 0 l 1,1,-1
 313 0 l 1,2,-1
 3 700 l 1,3,-1
 83 700 l 1,4,-1
 351 92 l 1,5,-1
 621 700 l 1,6,-1
 696 700 l 1,0,-1
EndSplineSet
Substitution2: "'c2sc' Capitals to Small Capitals lookup 36 subtable" v.sc
Substitution2: "'aalt' Access All Alternates lookup 0 subtable" v.sc
EndChar

StartChar: W
Encoding: 87 87 224
Width: 1111
GlyphClass: 2
Flags: W
AnchorPoint: "Anchor-14" 0 0 basechar 0
AnchorPoint: "Anchor-13" 0 0 basechar 0
AnchorPoint: "Anchor-12" 556 700 basechar 0
AnchorPoint: "Anchor-11" 0 0 basechar 0
AnchorPoint: "Anchor-10" 556 0 basechar 0
LayerCount: 2
Fore
SplineSet
1075 700 m 1,0,-1
 839 0 l 1,1,-1
 761 0 l 1,2,-1
 556 597 l 1,3,-1
 350 0 l 1,4,-1
 273 0 l 1,5,-1
 37 700 l 1,6,-1
 113 700 l 1,7,-1
 315 98 l 1,8,-1
 524 700 l 1,9,-1
 593 700 l 1,10,-1
 799 95 l 1,11,-1
 1004 700 l 1,12,-1
 1075 700 l 1,0,-1
EndSplineSet
Substitution2: "'ss01' Style Set 1 lookup 42 subtable" W.ss01
Substitution2: "'salt' Stylistic Alternatives lookup 41 subtable" W.ss01
Substitution2: "'c2sc' Capitals to Small Capitals lookup 36 subtable" w.sc
AlternateSubs2: "'aalt' Access All Alternates lookup 1 subtable" w.sc W.ss01
EndChar

StartChar: X
Encoding: 88 88 229
Width: 656
Flags: W
LayerCount: 2
Fore
SplineSet
553 0 m 1,0,-1
 327 308 l 1,1,-1
 102 0 l 1,2,-1
 17 0 l 1,3,-1
 283 360 l 1,4,-1
 34 700 l 1,5,-1
 119 700 l 1,6,-1
 330 414 l 1,7,-1
 540 700 l 1,8,-1
 620 700 l 1,9,-1
 372 362 l 1,10,-1
 639 0 l 1,11,-1
 553 0 l 1,0,-1
EndSplineSet
Substitution2: "'c2sc' Capitals to Small Capitals lookup 36 subtable" x.sc
Substitution2: "'aalt' Access All Alternates lookup 0 subtable" x.sc
EndChar

StartChar: Y
Encoding: 89 89 230
Width: 635
GlyphClass: 2
Flags: W
AnchorPoint: "Anchor-14" 0 0 basechar 0
AnchorPoint: "Anchor-13" 316 246 basechar 0
AnchorPoint: "Anchor-12" 317 700 basechar 0
AnchorPoint: "Anchor-11" 0 0 basechar 0
AnchorPoint: "Anchor-10" 317 0 basechar 0
LayerCount: 2
Fore
SplineSet
354 242 m 1,0,-1
 354 0 l 1,1,-1
 281 0 l 1,2,-1
 281 242 l 1,3,-1
 1 700 l 1,4,-1
 80 700 l 1,5,-1
 320 307 l 1,6,-1
 560 700 l 1,7,-1
 634 700 l 1,8,-1
 354 242 l 1,0,-1
EndSplineSet
Substitution2: "'ss01' Style Set 1 lookup 42 subtable" Y.ss01
Substitution2: "'salt' Stylistic Alternatives lookup 41 subtable" Y.ss01
Substitution2: "'c2sc' Capitals to Small Capitals lookup 36 subtable" y.sc
AlternateSubs2: "'aalt' Access All Alternates lookup 1 subtable" y.sc Y.ss01
EndChar

StartChar: Z
Encoding: 90 90 240
Width: 651
GlyphClass: 2
Flags: W
AnchorPoint: "Anchor-14" 0 0 basechar 0
AnchorPoint: "Anchor-13" 0 0 basechar 0
AnchorPoint: "Anchor-12" 332 700 basechar 0
AnchorPoint: "Anchor-11" 0 0 basechar 0
AnchorPoint: "Anchor-10" 340 0 basechar 0
LayerCount: 2
Fore
SplineSet
619 64 m 1,0,-1
 619 0 l 1,1,-1
 45 0 l 1,2,-1
 45 51 l 1,3,-1
 509 636 l 1,4,-1
 52 636 l 1,5,-1
 52 700 l 1,6,-1
 607 700 l 1,7,-1
 607 649 l 1,8,-1
 144 64 l 1,9,-1
 619 64 l 1,0,-1
EndSplineSet
Substitution2: "'ss01' Style Set 1 lookup 42 subtable" Z.ss01
Substitution2: "'salt' Stylistic Alternatives lookup 41 subtable" Z.ss01
Substitution2: "'c2sc' Capitals to Small Capitals lookup 36 subtable" z.sc
AlternateSubs2: "'aalt' Access All Alternates lookup 1 subtable" z.sc Z.ss01
EndChar

StartChar: Iacute_J.loclNLD
Encoding: 65537 -1 245
Width: 718
Flags: W
LayerCount: 2
Fore
SplineSet
246 881 m 1,0,-1
 329 881 l 1,1,-1
 167 757 l 1,2,-1
 108 757 l 1,3,-1
 246 881 l 1,0,-1
675 881 m 1,4,-1
 758 881 l 1,5,-1
 596 757 l 1,6,-1
 537 757 l 1,7,-1
 675 881 l 1,4,-1
203 14 m 128,-1,9
 144 33 144 33 98 65 c 1,10,-1
 128 123 l 1,11,12
 170 93 170 93 221 77 c 128,-1,13
 272 61 272 61 325 61 c 0,14,15
 427 61 427 61 481.5 121 c 128,-1,16
 536 181 536 181 536 301 c 2,17,-1
 536 700 l 1,18,-1
 610 700 l 1,19,-1
 610 303 l 2,20,21
 610 154 610 154 534 74.5 c 128,-1,22
 458 -5 458 -5 327 -5 c 0,23,8
 262 -5 262 -5 203 14 c 128,-1,9
108 700 m 1,24,-1
 182 700 l 1,25,-1
 182 302 l 1,26,-1
 108 302 l 1,27,-1
 108 700 l 1,24,-1
EndSplineSet
Substitution2: "'ss01' Style Set 1 lookup 42 subtable" Iacute_J.loclNLD.ss01
Substitution2: "'salt' Stylistic Alternatives lookup 41 subtable" Iacute_J.loclNLD.ss01
Substitution2: "'c2sc' Capitals to Small Capitals lookup 36 subtable" iacute_j.loclNLD.sc
Ligature2: "'locl' Localized Forms in Latin lookup 8 subtable" Iacute J
AlternateSubs2: "'aalt' Access All Alternates lookup 1 subtable" iacute_j.loclNLD.sc Iacute_J.loclNLD.ss01
EndChar

StartChar: A.ss01
Encoding: 65538 -1 246
Width: 801
GlyphClass: 2
Flags: W
AnchorPoint: "Anchor-14" 0 0 basechar 0
AnchorPoint: "Anchor-13" 0 0 basechar 0
AnchorPoint: "Anchor-12" 400 700 basechar 0
AnchorPoint: "Anchor-11" 693 0 basechar 0
AnchorPoint: "Anchor-10" 400 0 basechar 0
LayerCount: 2
Fore
SplineSet
614.5 626.5 m 128,-1,1
 693 547 693 547 693 397 c 2,2,-1
 693 0 l 1,3,-1
 620 0 l 1,4,-1
 620 206 l 1,5,-1
 180 206 l 1,6,-1
 180 0 l 1,7,-1
 108 0 l 1,8,-1
 108 397 l 2,9,10
 108 547 108 547 186.5 626.5 c 128,-1,11
 265 706 265 706 400 706 c 0,12,0
 536 706 536 706 614.5 626.5 c 128,-1,1
620 270 m 1,13,-1
 620 404 l 2,14,15
 620 521 620 521 562 580.5 c 128,-1,16
 504 640 504 640 400 640 c 256,17,18
 296 640 296 640 238 580.5 c 128,-1,19
 180 521 180 521 180 404 c 2,20,-1
 180 270 l 1,21,-1
 620 270 l 1,13,-1
EndSplineSet
EndChar

StartChar: AE.ss01
Encoding: 65564 -1 272
Width: 1069
GlyphClass: 2
Flags: W
AnchorPoint: "Anchor-14" 0 0 basechar 0
AnchorPoint: "Anchor-13" 0 0 basechar 0
AnchorPoint: "Anchor-12" 530 700 basechar 0
AnchorPoint: "Anchor-11" 0 0 basechar 0
AnchorPoint: "Anchor-10" 530 0 basechar 0
LayerCount: 2
Fore
SplineSet
1029 63 m 1,0,-1
 1029 0 l 1,1,-1
 534 0 l 1,2,-1
 534 216 l 1,3,-1
 172 216 l 1,4,-1
 172 0 l 1,5,-1
 98 0 l 1,6,-1
 98 397 l 2,7,8
 98 542 98 542 172 621 c 128,-1,9
 246 700 246 700 382 700 c 2,10,-1
 1014 700 l 1,11,-1
 1014 637 l 1,12,-1
 607 637 l 1,13,-1
 607 386 l 1,14,-1
 971 386 l 1,15,-1
 971 325 l 1,16,-1
 607 325 l 1,17,-1
 607 63 l 1,18,-1
 1029 63 l 1,0,-1
534 278 m 1,19,-1
 534 633 l 1,20,-1
 387 633 l 2,21,22
 282 633 282 633 227 572 c 128,-1,23
 172 511 172 511 172 395 c 2,24,-1
 172 278 l 1,25,-1
 534 278 l 1,19,-1
EndSplineSet
EndChar

StartChar: E.ss01
Encoding: 65568 -1 276
Width: 634
GlyphClass: 2
Flags: W
AnchorPoint: "Anchor-14" 0 0 basechar 0
AnchorPoint: "Anchor-13" 0 0 basechar 0
AnchorPoint: "Anchor-12" 346 700 basechar 0
AnchorPoint: "Anchor-11" 583 0 basechar 0
AnchorPoint: "Anchor-10" 346 0 basechar 0
LayerCount: 2
Fore
SplineSet
614 80 m 1,0,1
 571 39 571 39 499.5 16.5 c 128,-1,2
 428 -6 428 -6 341 -6 c 0,3,4
 249 -6 249 -6 184.5 19 c 128,-1,5
 120 44 120 44 87.5 88 c 128,-1,6
 55 132 55 132 55 189 c 0,7,8
 55 252 55 252 92.5 296 c 128,-1,9
 130 340 130 340 191 357 c 1,10,11
 141 376 141 376 113 417.5 c 128,-1,12
 85 459 85 459 85 515 c 0,13,14
 85 568 85 568 115.5 611.5 c 128,-1,15
 146 655 146 655 207.5 680.5 c 128,-1,16
 269 706 269 706 356 706 c 0,17,18
 420 706 420 706 480.5 691.5 c 128,-1,19
 541 677 541 677 584 650 c 1,20,-1
 561 591 l 1,21,22
 469 643 469 643 359 643 c 0,23,24
 262 643 262 643 210.5 606 c 128,-1,25
 159 569 159 569 159 510 c 256,26,27
 159 451 159 451 200.5 419 c 128,-1,28
 242 387 242 387 318 387 c 2,29,-1
 492 387 l 1,30,-1
 492 323 l 1,31,-1
 315 323 l 2,32,33
 229 323 229 323 179 290.5 c 128,-1,34
 129 258 129 258 129 194 c 0,35,36
 129 131 129 131 183.5 94 c 128,-1,37
 238 57 238 57 344 57 c 0,38,39
 418 57 418 57 482 78 c 128,-1,40
 546 99 546 99 586 136 c 1,41,-1
 614 80 l 1,0,1
EndSplineSet
EndChar

StartChar: Eogonek.ss01
Encoding: 65589 -1 297
Width: 634
GlyphClass: 2
Flags: W
AnchorPoint: "Anchor-14" 0 0 basechar 0
AnchorPoint: "Anchor-13" 0 0 basechar 0
AnchorPoint: "Anchor-12" 346 700 basechar 0
AnchorPoint: "Anchor-11" 0 0 basechar 0
AnchorPoint: "Anchor-10" 346 0 basechar 0
LayerCount: 2
Fore
SplineSet
588 -157 m 1,1,-1
 604 -196 l 1,2,3
 568 -220 568 -220 519 -220 c 0,4,5
 469 -220 469 -220 439 -194 c 128,-1,6
 409 -168 409 -168 409 -125 c 0,7,8
 409 -53 409 -53 470 9 c 1,9,10
 410 -6 410 -6 341 -6 c 0,11,12
 249 -6 249 -6 184.5 19 c 128,-1,13
 120 44 120 44 87.5 88 c 128,-1,14
 55 132 55 132 55 189 c 0,15,16
 55 252 55 252 92.5 296 c 128,-1,17
 130 340 130 340 191 357 c 1,18,19
 141 376 141 376 113 417.5 c 128,-1,20
 85 459 85 459 85 515 c 0,21,22
 85 568 85 568 115.5 611.5 c 128,-1,23
 146 655 146 655 207.5 680.5 c 128,-1,24
 269 706 269 706 356 706 c 0,25,26
 420 706 420 706 480.5 691.5 c 128,-1,27
 541 677 541 677 584 650 c 1,28,-1
 561 591 l 1,29,30
 469 643 469 643 359 643 c 0,31,32
 262 643 262 643 210.5 606 c 128,-1,33
 159 569 159 569 159 510 c 256,34,35
 159 451 159 451 200.5 419 c 128,-1,36
 242 387 242 387 318 387 c 2,37,-1
 492 387 l 1,38,-1
 492 323 l 1,39,-1
 315 323 l 2,40,41
 229 323 229 323 179 290.5 c 128,-1,42
 129 258 129 258 129 194 c 0,43,44
 129 131 129 131 183.5 94 c 128,-1,45
 238 57 238 57 344 57 c 0,46,47
 416 57 416 57 480.5 78.5 c 128,-1,48
 545 100 545 100 586 136 c 1,49,-1
 614 78 l 1,50,51
 527 15 527 15 494 -32.5 c 128,-1,52
 461 -80 461 -80 461 -118 c 0,53,54
 461 -146 461 -146 479 -161 c 128,-1,55
 497 -176 497 -176 526 -176 c 0,56,0
 565 -176 565 -176 588 -157 c 1,1,-1
EndSplineSet
EndChar

StartChar: F.ss01
Encoding: 65591 -1 299
Width: 602
Flags: W
LayerCount: 2
Fore
SplineSet
232.5 593.5 m 128,-1,1
 182 547 182 547 182 459 c 2,2,-1
 182 361 l 1,3,-1
 516 361 l 1,4,-1
 516 297 l 1,5,-1
 182 297 l 1,6,-1
 182 0 l 1,7,-1
 108 0 l 1,8,-1
 108 460 l 2,9,10
 108 575 108 575 180 640.5 c 128,-1,11
 252 706 252 706 383 706 c 0,12,13
 510 706 510 706 587 651 c 1,14,-1
 560 590 l 1,15,16
 492 640 492 640 386 640 c 0,17,0
 283 640 283 640 232.5 593.5 c 128,-1,1
EndSplineSet
EndChar

StartChar: G.ss01
Encoding: 65592 -1 300
Width: 773
GlyphClass: 2
Flags: W
AnchorPoint: "Anchor-14" 0 0 basechar 0
AnchorPoint: "Anchor-13" 0 0 basechar 0
AnchorPoint: "Anchor-12" 408 700 basechar 0
AnchorPoint: "Anchor-11" 0 0 basechar 0
AnchorPoint: "Anchor-10" 404 1 basechar 0
LayerCount: 2
Fore
SplineSet
607 350 m 1,0,-1
 678 350 l 1,1,-1
 678 0 l 1,2,-1
 613 0 l 1,3,-1
 613 59 l 1,4,5
 573 27 573 27 519.5 10.5 c 128,-1,6
 466 -6 466 -6 405 -6 c 0,7,8
 311 -6 311 -6 230.5 36 c 128,-1,9
 150 78 150 78 101 158 c 128,-1,10
 52 238 52 238 52 348 c 0,11,12
 52 450 52 450 100 531.5 c 128,-1,13
 148 613 148 613 232 659.5 c 128,-1,14
 316 706 316 706 422 706 c 0,15,16
 502 706 502 706 569 680.5 c 128,-1,17
 636 655 636 655 682 605 c 1,18,-1
 636 558 l 1,19,20
 553 640 553 640 425 640 c 0,21,22
 340 640 340 640 271.5 602.5 c 128,-1,23
 203 565 203 565 164 498 c 128,-1,24
 125 431 125 431 125 348 c 0,25,26
 125 259 125 259 164.5 193.5 c 128,-1,27
 204 128 204 128 269.5 93.5 c 128,-1,28
 335 59 335 59 410 59 c 0,29,30
 465 59 465 59 516.5 77.5 c 128,-1,31
 568 96 568 96 607 134 c 1,32,-1
 607 350 l 1,0,-1
EndSplineSet
EndChar

StartChar: I.ss01
Encoding: 65600 -1 308
Width: 445
GlyphClass: 2
Flags: W
AnchorPoint: "Anchor-14" 0 0 basechar 0
AnchorPoint: "Anchor-13" 0 0 basechar 0
AnchorPoint: "Anchor-12" 223 700 basechar 0
AnchorPoint: "Anchor-11" 260 0 basechar 0
AnchorPoint: "Anchor-10" 223 0 basechar 0
LayerCount: 2
Fore
SplineSet
259 636 m 1,0,-1
 259 64 l 1,1,-1
 401 64 l 1,2,-1
 401 0 l 1,3,-1
 44 0 l 1,4,-1
 44 64 l 1,5,-1
 186 64 l 1,6,-1
 186 636 l 1,7,-1
 44 636 l 1,8,-1
 44 700 l 1,9,-1
 401 700 l 1,10,-1
 401 636 l 1,11,-1
 259 636 l 1,0,-1
EndSplineSet
EndChar

StartChar: IJ.ss01
Encoding: 65601 -1 309
Width: 718
GlyphClass: 2
Flags: W
AnchorPoint: "Anchor-14" 0 0 basechar 0
AnchorPoint: "Anchor-13" 0 0 basechar 0
AnchorPoint: "Anchor-12" 168 700 basechar 0
AnchorPoint: "Anchor-11" 0 0 basechar 0
AnchorPoint: "Anchor-10" 0 0 basechar 0
LayerCount: 2
Fore
SplineSet
202.5 -87.5 m 128,-1,1
 143 -69 143 -69 98 -37 c 1,2,-1
 128 22 l 1,3,4
 170 -8 170 -8 221.5 -24 c 128,-1,5
 273 -40 273 -40 329 -40 c 0,6,7
 429 -40 429 -40 482.5 19.5 c 128,-1,8
 536 79 536 79 536 199 c 2,9,-1
 536 700 l 1,10,-1
 610 700 l 1,11,-1
 610 202 l 2,12,13
 610 52 610 52 534 -27 c 128,-1,14
 458 -106 458 -106 327 -106 c 0,15,0
 262 -106 262 -106 202.5 -87.5 c 128,-1,1
108 700 m 1,16,-1
 182 700 l 1,17,-1
 182 202 l 1,18,-1
 108 202 l 1,19,-1
 108 700 l 1,16,-1
EndSplineSet
EndChar

StartChar: Iacute_J.loclNLD.ss01
Encoding: 65603 -1 311
Width: 718
Flags: W
LayerCount: 2
Fore
SplineSet
246 881 m 1,0,-1
 329 881 l 1,1,-1
 167 757 l 1,2,-1
 108 757 l 1,3,-1
 246 881 l 1,0,-1
675 881 m 1,4,-1
 758 881 l 1,5,-1
 596 757 l 1,6,-1
 537 757 l 1,7,-1
 675 881 l 1,4,-1
203 -86 m 128,-1,9
 144 -67 144 -67 98 -35 c 1,10,-1
 128 23 l 1,11,12
 170 -7 170 -7 221 -23 c 128,-1,13
 272 -39 272 -39 325 -39 c 0,14,15
 427 -39 427 -39 481.5 21 c 128,-1,16
 536 81 536 81 536 201 c 2,17,-1
 536 700 l 1,18,-1
 610 700 l 1,19,-1
 610 203 l 2,20,21
 610 54 610 54 534 -25.5 c 128,-1,22
 458 -105 458 -105 327 -105 c 0,23,8
 262 -105 262 -105 203 -86 c 128,-1,9
108 700 m 1,24,-1
 182 700 l 1,25,-1
 182 202 l 1,26,-1
 108 202 l 1,27,-1
 108 700 l 1,24,-1
EndSplineSet
EndChar

StartChar: J.ss01
Encoding: 65617 -1 325
Width: 500
GlyphClass: 2
Flags: W
AnchorPoint: "Anchor-14" 0 0 basechar 0
AnchorPoint: "Anchor-13" 0 0 basechar 0
AnchorPoint: "Anchor-12" 227 700 basechar 0
AnchorPoint: "Anchor-11" 0 0 basechar 0
AnchorPoint: "Anchor-10" 0 0 basechar 0
LayerCount: 2
Fore
SplineSet
77.5 -80 m 128,-1,1
 27 -54 27 -54 -5 -6 c 1,2,-1
 37 44 l 1,3,4
 66 2 66 2 104 -20 c 128,-1,5
 142 -42 142 -42 187 -42 c 0,6,7
 318 -42 318 -42 318 112 c 2,8,-1
 318 636 l 1,9,-1
 62 636 l 1,10,-1
 62 700 l 1,11,-1
 391 700 l 1,12,-1
 391 115 l 2,13,14
 391 5 391 5 339.5 -50.5 c 128,-1,15
 288 -106 288 -106 188 -106 c 0,16,0
 128 -106 128 -106 77.5 -80 c 128,-1,1
EndSplineSet
EndChar

StartChar: M.ss01
Encoding: 65620 -1 328
Width: 1226
GlyphClass: 2
Flags: W
AnchorPoint: "Anchor-14" 0 0 basechar 0
AnchorPoint: "Anchor-13" 0 0 basechar 0
AnchorPoint: "Anchor-12" 616 700 basechar 0
AnchorPoint: "Anchor-11" 0 0 basechar 0
AnchorPoint: "Anchor-10" 616 0 basechar 0
LayerCount: 2
Fore
SplineSet
1050 637 m 128,-1,1
 1117 568 1117 568 1117 437 c 2,2,-1
 1117 0 l 1,3,-1
 1044 0 l 1,4,-1
 1044 435 l 2,5,6
 1044 537 1044 537 992.5 588.5 c 128,-1,7
 941 640 941 640 852 640 c 0,8,9
 758 640 758 640 705 585.5 c 128,-1,10
 652 531 652 531 652 419 c 2,11,-1
 652 0 l 1,12,-1
 579 0 l 1,13,-1
 579 435 l 2,14,15
 579 537 579 537 529 588.5 c 128,-1,16
 479 640 479 640 390 640 c 0,17,18
 295 640 295 640 241.5 585.5 c 128,-1,19
 188 531 188 531 188 419 c 2,20,-1
 188 0 l 1,21,-1
 114 0 l 1,22,-1
 114 700 l 1,23,-1
 185 700 l 1,24,-1
 185 583 l 1,25,26
 214 643 214 643 271 674.5 c 128,-1,27
 328 706 328 706 406 706 c 0,28,29
 488 706 488 706 546.5 671.5 c 128,-1,30
 605 637 605 637 631 575 c 1,31,32
 661 639 661 639 721.5 672.5 c 128,-1,33
 782 706 782 706 863 706 c 0,34,0
 983 706 983 706 1050 637 c 128,-1,1
EndSplineSet
EndChar

StartChar: N.ss01
Encoding: 65622 -1 330
Width: 799
GlyphClass: 2
Flags: W
AnchorPoint: "Anchor-14" 0 0 basechar 0
AnchorPoint: "Anchor-13" 0 0 basechar 0
AnchorPoint: "Anchor-12" 402 700 basechar 0
AnchorPoint: "Anchor-11" 0 0 basechar 0
AnchorPoint: "Anchor-10" 401 0 basechar 0
LayerCount: 2
Fore
SplineSet
619.5 631 m 128,-1,1
 691 556 691 556 691 417 c 2,2,-1
 691 0 l 1,3,-1
 617 0 l 1,4,-1
 617 415 l 2,5,6
 617 526 617 526 562 583 c 128,-1,7
 507 640 507 640 408 640 c 0,8,9
 304 640 304 640 246 579.5 c 128,-1,10
 188 519 188 519 188 398 c 2,11,-1
 188 0 l 1,12,-1
 114 0 l 1,13,-1
 114 700 l 1,14,-1
 185 700 l 1,15,-1
 185 582 l 1,16,17
 252 706 252 706 422 706 c 0,18,0
 548 706 548 706 619.5 631 c 128,-1,1
EndSplineSet
EndChar

StartChar: Eng.ss01
Encoding: 65629 -1 337
Width: 799
Flags: W
LayerCount: 2
Fore
SplineSet
619.5 631 m 128,-1,1
 691 556 691 556 691 417 c 2,2,-1
 691 23 l 2,3,4
 691 -87 691 -87 640 -143 c 128,-1,5
 589 -199 589 -199 489 -199 c 0,6,7
 434 -199 434 -199 387 -176.5 c 128,-1,8
 340 -154 340 -154 309 -113 c 1,9,-1
 346 -59 l 1,10,11
 372 -95 372 -95 408.5 -114.5 c 128,-1,12
 445 -134 445 -134 488 -134 c 0,13,14
 553 -134 553 -134 585 -95.5 c 128,-1,15
 617 -57 617 -57 617 21 c 2,16,-1
 617 415 l 2,17,18
 617 526 617 526 562 583 c 128,-1,19
 507 640 507 640 408 640 c 0,20,21
 304 640 304 640 246 579.5 c 128,-1,22
 188 519 188 519 188 398 c 2,23,-1
 188 0 l 1,24,-1
 114 0 l 1,25,-1
 114 700 l 1,26,-1
 185 700 l 1,27,-1
 185 582 l 1,28,29
 252 706 252 706 422 706 c 0,30,0
 548 706 548 706 619.5 631 c 128,-1,1
EndSplineSet
EndChar

StartChar: Q.ss01
Encoding: 65633 -1 341
Width: 839
Flags: W
LayerCount: 2
Fore
SplineSet
744.5 177 m 128,-1,1
 702 99 702 99 626.5 51.5 c 128,-1,2
 551 4 551 4 456 -4 c 1,3,-1
 456 -135 l 1,4,-1
 383 -135 l 1,5,-1
 383 -4 l 1,6,7
 288 4 288 4 212.5 52 c 128,-1,8
 137 100 137 100 94.5 177.5 c 128,-1,9
 52 255 52 255 52 350 c 0,10,11
 52 451 52 451 99.5 532 c 128,-1,12
 147 613 147 613 231.5 659.5 c 128,-1,13
 316 706 316 706 420 706 c 256,14,15
 524 706 524 706 607.5 660 c 128,-1,16
 691 614 691 614 739 532.5 c 128,-1,17
 787 451 787 451 787 350 c 0,18,0
 787 255 787 255 744.5 177 c 128,-1,1
588 108.5 m 128,-1,20
 647 148 647 148 680 211 c 128,-1,21
 713 274 713 274 713 350 c 0,22,23
 713 432 713 432 675 498 c 128,-1,24
 637 564 637 564 570 602 c 128,-1,25
 503 640 503 640 420 640 c 256,26,27
 337 640 337 640 269.5 602 c 128,-1,28
 202 564 202 564 163.5 498 c 128,-1,29
 125 432 125 432 125 350 c 0,30,31
 125 274 125 274 158.5 211 c 128,-1,32
 192 148 192 148 251 109 c 128,-1,33
 310 70 310 70 385 62 c 1,34,-1
 385 235 l 1,35,-1
 454 235 l 1,36,-1
 454 62 l 1,37,19
 529 69 529 69 588 108.5 c 128,-1,20
EndSplineSet
EndChar

StartChar: uni018F.ss01
Encoding: 65634 -1 342
Width: 817
GlyphClass: 2
Flags: W
AnchorPoint: "Anchor-14" 0 0 basechar 0
AnchorPoint: "Anchor-13" 0 0 basechar 0
AnchorPoint: "Anchor-12" 408 700 basechar 0
AnchorPoint: "Anchor-11" 0 0 basechar 0
AnchorPoint: "Anchor-10" 408 0 basechar 0
LayerCount: 2
Fore
SplineSet
588 660 m 128,-1,1
 671 614 671 614 718 533 c 128,-1,2
 765 452 765 452 765 351 c 0,3,4
 765 251 765 251 718 169.5 c 128,-1,5
 671 88 671 88 589.5 41 c 128,-1,6
 508 -6 508 -6 409 -6 c 0,7,8
 293 -6 293 -6 204.5 54 c 128,-1,9
 116 114 116 114 76 218 c 1,10,-1
 670 462 l 1,11,12
 638 542 638 542 565.5 591 c 128,-1,13
 493 640 493 640 401 640 c 0,14,15
 265 640 265 640 177 559 c 1,16,-1
 133 610 l 1,17,18
 182 656 182 656 251.5 681 c 128,-1,19
 321 706 321 706 401 706 c 0,20,0
 505 706 505 706 588 660 c 128,-1,1
691 353 m 2,21,22
 691 381 691 381 687 402 c 1,23,-1
 171 189 l 1,24,25
 206 127 206 127 267.5 92.5 c 128,-1,26
 329 58 329 58 409 58 c 256,27,28
 489 58 489 58 553.5 95 c 128,-1,29
 618 132 618 132 654.5 198 c 128,-1,30
 691 264 691 264 691 346 c 2,31,-1
 691 353 l 2,21,22
EndSplineSet
EndChar

StartChar: T.ss01
Encoding: 65635 -1 343
Width: 581
GlyphClass: 2
Flags: W
AnchorPoint: "Anchor-14" 0 0 basechar 0
AnchorPoint: "Anchor-13" 290 336 basechar 0
AnchorPoint: "Anchor-12" 292 700 basechar 0
AnchorPoint: "Anchor-11" 0 0 basechar 0
AnchorPoint: "Anchor-10" 291 0 basechar 0
LayerCount: 2
Fore
SplineSet
556 571 m 1,0,1
 453 631 453 631 328 640 c 1,2,-1
 328 0 l 1,3,-1
 254 0 l 1,4,-1
 254 640 l 1,5,6
 131 632 131 632 25 571 c 1,7,-1
 -2 629 l 1,8,9
 128 706 128 706 290 706 c 0,10,11
 455 706 455 706 583 629 c 1,12,-1
 556 571 l 1,0,1
EndSplineSet
EndChar

StartChar: U.ss01
Encoding: 65642 -1 350
Width: 795
GlyphClass: 2
Flags: W
AnchorPoint: "Anchor-14" 658 700 basechar 0
AnchorPoint: "Anchor-13" 0 0 basechar 0
AnchorPoint: "Anchor-12" 392 700 basechar 0
AnchorPoint: "Anchor-11" 681 0 basechar 0
AnchorPoint: "Anchor-10" 392 0 basechar 0
LayerCount: 2
Fore
SplineSet
681 700 m 1,0,-1
 681 0 l 1,1,-1
 610 0 l 1,2,-1
 610 118 l 1,3,4
 541 -6 541 -6 375 -6 c 0,5,6
 250 -6 250 -6 179 69 c 128,-1,7
 108 144 108 144 108 283 c 2,8,-1
 108 700 l 1,9,-1
 182 700 l 1,10,-1
 182 285 l 2,11,12
 182 174 182 174 236.5 117 c 128,-1,13
 291 60 291 60 389 60 c 0,14,15
 492 60 492 60 549.5 120.5 c 128,-1,16
 607 181 607 181 607 302 c 2,17,-1
 607 700 l 1,18,-1
 681 700 l 1,0,-1
EndSplineSet
EndChar

StartChar: W.ss01
Encoding: 65666 -1 374
Width: 1196
GlyphClass: 2
Flags: W
AnchorPoint: "Anchor-14" 0 0 basechar 0
AnchorPoint: "Anchor-13" 0 0 basechar 0
AnchorPoint: "Anchor-12" 598 700 basechar 0
AnchorPoint: "Anchor-11" 0 0 basechar 0
AnchorPoint: "Anchor-10" 598 0 basechar 0
LayerCount: 2
Fore
SplineSet
1088 700 m 1,0,-1
 1088 275 l 2,1,2
 1088 136 1088 136 1019.5 65 c 128,-1,3
 951 -6 951 -6 826 -6 c 0,4,5
 743 -6 743 -6 684.5 26 c 128,-1,6
 626 58 626 58 598 117 c 1,7,8
 569 57 569 57 511 25.5 c 128,-1,9
 453 -6 453 -6 371 -6 c 0,10,11
 245 -6 245 -6 176.5 65 c 128,-1,12
 108 136 108 136 108 275 c 2,13,-1
 108 700 l 1,14,-1
 182 700 l 1,15,-1
 182 278 l 2,16,17
 182 60 182 60 371 60 c 0,18,19
 462 60 462 60 512 113.5 c 128,-1,20
 562 167 562 167 562 278 c 2,21,-1
 562 700 l 1,22,-1
 635 700 l 1,23,-1
 635 278 l 2,24,25
 635 166 635 166 684.5 113 c 128,-1,26
 734 60 734 60 826 60 c 0,27,28
 917 60 917 60 966 113.5 c 128,-1,29
 1015 167 1015 167 1015 278 c 2,30,-1
 1015 700 l 1,31,-1
 1088 700 l 1,0,-1
EndSplineSet
EndChar

StartChar: Y.ss01
Encoding: 65671 -1 379
Width: 788
GlyphClass: 2
Flags: W
AnchorPoint: "Anchor-14" 0 0 basechar 0
AnchorPoint: "Anchor-13" 0 0 basechar 0
AnchorPoint: "Anchor-12" 391 700 basechar 0
AnchorPoint: "Anchor-11" 0 0 basechar 0
AnchorPoint: "Anchor-10" 659 0 basechar 0
LayerCount: 2
Fore
SplineSet
680 700 m 1,0,-1
 680 203 l 2,1,2
 680 53 680 53 602 -26 c 128,-1,3
 524 -105 524 -105 386 -105 c 0,4,5
 300 -105 300 -105 231.5 -77.5 c 128,-1,6
 163 -50 163 -50 117 2 c 1,7,-1
 151 59 l 1,8,9
 240 -39 240 -39 386 -39 c 0,10,11
 494 -39 494 -39 550 21 c 128,-1,12
 606 81 606 81 606 201 c 2,13,-1
 606 295 l 1,14,15
 538 176 538 176 379 176 c 0,16,17
 249 176 249 176 176 250.5 c 128,-1,18
 103 325 103 325 103 465 c 2,19,-1
 103 700 l 1,20,-1
 177 700 l 1,21,-1
 177 468 l 2,22,23
 177 357 177 357 232 299.5 c 128,-1,24
 287 242 287 242 386 242 c 0,25,26
 490 242 490 242 548 302.5 c 128,-1,27
 606 363 606 363 606 484 c 2,28,-1
 606 700 l 1,29,-1
 680 700 l 1,0,-1
EndSplineSet
EndChar

StartChar: Z.ss01
Encoding: 65681 -1 389
Width: 661
GlyphClass: 2
Flags: W
AnchorPoint: "Anchor-14" 0 0 basechar 0
AnchorPoint: "Anchor-13" 0 0 basechar 0
AnchorPoint: "Anchor-12" 334 700 basechar 0
AnchorPoint: "Anchor-11" 0 0 basechar 0
AnchorPoint: "Anchor-10" 341 0 basechar 0
LayerCount: 2
Fore
SplineSet
624 64 m 1,0,-1
 624 0 l 1,1,-1
 50 0 l 1,2,-1
 50 47 l 1,3,-1
 268 325 l 1,4,-1
 113 325 l 1,5,-1
 113 387 l 1,6,-1
 316 387 l 1,7,-1
 511 636 l 1,8,-1
 53 636 l 1,9,-1
 53 700 l 1,10,-1
 609 700 l 1,11,-1
 609 654 l 1,12,-1
 400 386 l 1,13,-1
 545 386 l 1,14,-1
 545 324 l 1,15,-1
 352 324 l 1,16,-1
 149 64 l 1,17,-1
 624 64 l 1,0,-1
EndSplineSet
EndChar

StartChar: a
Encoding: 97 97 394
Width: 590
GlyphClass: 2
Flags: W
AnchorPoint: "Anchor-14" 0 0 basechar 0
AnchorPoint: "Anchor-13" 0 0 basechar 0
AnchorPoint: "Anchor-12" 285 526 basechar 0
AnchorPoint: "Anchor-11" 496 0 basechar 0
AnchorPoint: "Anchor-10" 287 0 basechar 0
LayerCount: 2
Fore
SplineSet
441 478.5 m 128,-1,1
 496 427 496 427 496 326 c 2,2,-1
 496 0 l 1,3,-1
 428 0 l 1,4,-1
 428 82 l 1,5,6
 404 41 404 41 357.5 18 c 128,-1,7
 311 -5 311 -5 247 -5 c 0,8,9
 159 -5 159 -5 107 37 c 128,-1,10
 55 79 55 79 55 148 c 0,11,12
 55 215 55 215 103.5 256 c 128,-1,13
 152 297 152 297 258 297 c 2,14,-1
 425 297 l 1,15,-1
 425 329 l 2,16,17
 425 397 425 397 387 432.5 c 128,-1,18
 349 468 349 468 276 468 c 0,19,20
 226 468 226 468 180 451.5 c 128,-1,21
 134 435 134 435 101 406 c 1,22,-1
 69 459 l 1,23,24
 109 493 109 493 165 511.5 c 128,-1,25
 221 530 221 530 283 530 c 0,26,0
 386 530 386 530 441 478.5 c 128,-1,1
361 78.5 m 128,-1,28
 404 106 404 106 425 158 c 1,29,-1
 425 244 l 1,30,-1
 260 244 l 2,31,32
 125 244 125 244 125 150 c 0,33,34
 125 104 125 104 160 77.5 c 128,-1,35
 195 51 195 51 258 51 c 0,36,27
 318 51 318 51 361 78.5 c 128,-1,28
EndSplineSet
Substitution2: "Single Substitution lookup 44 subtable" ordfeminine
Substitution2: "'ss01' Style Set 1 lookup 42 subtable" a.ss01
Substitution2: "'salt' Stylistic Alternatives lookup 41 subtable" a.ss01
Substitution2: "'smcp' Lowercase to Small Capitals lookup 37 subtable" a.sc
AlternateSubs2: "'aalt' Access All Alternates lookup 1 subtable" ordfeminine a.sc a.ss01
EndChar

StartChar: ae
Encoding: 230 230 420
Width: 986
GlyphClass: 2
Flags: W
AnchorPoint: "Anchor-14" 0 0 basechar 0
AnchorPoint: "Anchor-13" 0 0 basechar 0
AnchorPoint: "Anchor-12" 461 526 basechar 0
AnchorPoint: "Anchor-11" 0 0 basechar 0
AnchorPoint: "Anchor-10" 473 0 basechar 0
LayerCount: 2
Fore
SplineSet
938 243 m 1,1,-1
 497 243 l 1,2,3
 502 160 502 160 559 109 c 128,-1,4
 616 58 616 58 704 58 c 0,5,6
 804 58 804 58 865 127 c 1,7,-1
 905 81 l 1,8,9
 869 39 869 39 817 17 c 128,-1,10
 765 -5 765 -5 702 -5 c 0,11,12
 626 -5 626 -5 565 25.5 c 128,-1,13
 504 56 504 56 467 116 c 1,14,15
 439 54 439 54 382 24.5 c 128,-1,16
 325 -5 325 -5 254 -5 c 0,17,18
 161 -5 161 -5 108 37.5 c 128,-1,19
 55 80 55 80 55 150 c 0,20,21
 55 214 55 214 103.5 255 c 128,-1,22
 152 296 152 296 258 296 c 2,23,-1
 425 296 l 1,24,-1
 425 329 l 2,25,26
 425 397 425 397 387 432.5 c 128,-1,27
 349 468 349 468 276 468 c 0,28,29
 226 468 226 468 180 451.5 c 128,-1,30
 134 435 134 435 101 406 c 1,31,-1
 69 459 l 1,32,33
 109 493 109 493 165 511.5 c 128,-1,34
 221 530 221 530 282 530 c 0,35,36
 434 530 434 530 475 422 c 1,37,38
 509 473 509 473 563.5 501.5 c 128,-1,39
 618 530 618 530 684 530 c 0,40,41
 757 530 757 530 815.5 496 c 128,-1,42
 874 462 874 462 907 402 c 128,-1,43
 940 342 940 342 940 267 c 0,44,0
 940 259 940 259 938 243 c 1,1,-1
595.5 448 m 128,-1,46
 555 427 555 427 528.5 388 c 128,-1,47
 502 349 502 349 497 296 c 1,48,-1
 870 296 l 1,49,50
 865 348 865 348 839 387.5 c 128,-1,51
 813 427 813 427 772 448 c 128,-1,52
 731 469 731 469 683 469 c 0,53,45
 636 469 636 469 595.5 448 c 128,-1,46
380 91.5 m 128,-1,55
 425 132 425 132 425 201 c 2,56,-1
 425 243 l 1,57,-1
 260 243 l 2,58,59
 189 243 189 243 157 218.5 c 128,-1,60
 125 194 125 194 125 152 c 0,61,62
 125 105 125 105 160.5 78 c 128,-1,63
 196 51 196 51 259 51 c 0,64,54
 335 51 335 51 380 91.5 c 128,-1,55
EndSplineSet
Substitution2: "'ss01' Style Set 1 lookup 42 subtable" ae.ss01
Substitution2: "'salt' Stylistic Alternatives lookup 41 subtable" ae.ss01
Substitution2: "'smcp' Lowercase to Small Capitals lookup 37 subtable" ae.sc
AlternateSubs2: "'aalt' Access All Alternates lookup 1 subtable" ae.sc ae.ss01
EndChar

StartChar: b
Encoding: 98 98 422
Width: 678
Flags: W
LayerCount: 2
Fore
SplineSet
504 496.5 m 128,-1,1
 564 463 564 463 598 402 c 128,-1,2
 632 341 632 341 632 263 c 256,3,4
 632 185 632 185 598 124 c 128,-1,5
 564 63 564 63 504 29 c 128,-1,6
 444 -5 444 -5 370 -5 c 0,7,8
 304 -5 304 -5 251.5 23 c 128,-1,9
 199 51 199 51 167 104 c 1,10,-1
 167 0 l 1,11,-1
 99 0 l 1,12,-1
 99 742 l 1,13,-1
 170 742 l 1,14,-1
 170 426 l 1,15,16
 203 477 203 477 254.5 503.5 c 128,-1,17
 306 530 306 530 370 530 c 0,18,0
 444 530 444 530 504 496.5 c 128,-1,1
465 83.5 m 128,-1,20
 510 109 510 109 535.5 156 c 128,-1,21
 561 203 561 203 561 263 c 256,22,23
 561 323 561 323 535.5 370 c 128,-1,24
 510 417 510 417 465 442.5 c 128,-1,25
 420 468 420 468 365 468 c 0,26,27
 309 468 309 468 264.5 442.5 c 128,-1,28
 220 417 220 417 194.5 370 c 128,-1,29
 169 323 169 323 169 263 c 256,30,31
 169 203 169 203 194.5 156 c 128,-1,32
 220 109 220 109 264.5 83.5 c 128,-1,33
 309 58 309 58 365 58 c 0,34,19
 420 58 420 58 465 83.5 c 128,-1,20
EndSplineSet
Substitution2: "'smcp' Lowercase to Small Capitals lookup 37 subtable" b.sc
Substitution2: "'aalt' Access All Alternates lookup 0 subtable" b.sc
EndChar

StartChar: c
Encoding: 99 99 423
Width: 563
GlyphClass: 2
Flags: W
AnchorPoint: "Anchor-14" 0 0 basechar 0
AnchorPoint: "Anchor-13" 0 0 basechar 0
AnchorPoint: "Anchor-12" 299 526 basechar 0
AnchorPoint: "Anchor-11" 0 0 basechar 0
AnchorPoint: "Anchor-10" 297 0 basechar 0
LayerCount: 2
Fore
SplineSet
177.5 29 m 132,-1,1
 116 63 116 63 81 124.5 c 132,-1,2
 46 186 46 186 46 263 c 260,3,4
 46 340 46 340 81 401 c 132,-1,5
 116 462 116 462 177.5 496 c 132,-1,6
 239 530 239 530 317 530 c 4,7,8
 385 530 385 530 438.5 503.5 c 132,-1,9
 492 477 492 477 523 426 c 5,10,-1
 470 390 l 5,11,12
 444 429 444 429 404 448.5 c 132,-1,13
 364 468 364 468 317 468 c 4,14,15
 260 468 260 468 214.5 442.5 c 132,-1,16
 169 417 169 417 143.5 370 c 132,-1,17
 118 323 118 323 118 263 c 4,18,19
 118 202 118 202 143.5 155.5 c 132,-1,20
 169 109 169 109 214.5 83.5 c 132,-1,21
 260 58 260 58 317 58 c 4,22,23
 364 58 364 58 404 77 c 132,-1,24
 444 96 444 96 470 135 c 5,25,-1
 523 99 l 5,26,27
 492 48 492 48 438 21.5 c 132,-1,28
 384 -5 384 -5 317 -5 c 4,29,0
 239 -5 239 -5 177.5 29 c 132,-1,1
EndSplineSet
Substitution2: "'smcp' Lowercase to Small Capitals lookup 37 subtable" c.sc
Substitution2: "'aalt' Access All Alternates lookup 0 subtable" c.sc
EndChar

StartChar: d
Encoding: 100 100 430
Width: 678
GlyphClass: 2
Flags: W
AnchorPoint: "Anchor-14" 672 742 basechar 0
AnchorPoint: "Anchor-13" 483 633 basechar 0
AnchorPoint: "Anchor-12" 0 0 basechar 0
AnchorPoint: "Anchor-11" 0 0 basechar 0
AnchorPoint: "Anchor-10" 340 0 basechar 0
LayerCount: 2
Fore
SplineSet
579 742 m 5,0,-1
 579 0 l 5,1,-1
 511 0 l 5,2,-1
 511 104 l 5,3,4
 479 51 479 51 426.5 23 c 132,-1,5
 374 -5 374 -5 308 -5 c 4,6,7
 234 -5 234 -5 174 29 c 132,-1,8
 114 63 114 63 80 124 c 132,-1,9
 46 185 46 185 46 263 c 260,10,11
 46 341 46 341 80 402 c 132,-1,12
 114 463 114 463 174 496.5 c 132,-1,13
 234 530 234 530 308 530 c 4,14,15
 372 530 372 530 423.5 503.5 c 132,-1,16
 475 477 475 477 508 426 c 5,17,-1
 508 742 l 5,18,-1
 579 742 l 5,0,-1
413.5 83.5 m 132,-1,20
 458 109 458 109 483.5 156 c 132,-1,21
 509 203 509 203 509 263 c 260,22,23
 509 323 509 323 483.5 370 c 132,-1,24
 458 417 458 417 413.5 442.5 c 132,-1,25
 369 468 369 468 314 468 c 4,26,27
 258 468 258 468 213.5 442.5 c 132,-1,28
 169 417 169 417 143.5 370 c 132,-1,29
 118 323 118 323 118 263 c 260,30,31
 118 203 118 203 143.5 156 c 132,-1,32
 169 109 169 109 213.5 83.5 c 132,-1,33
 258 58 258 58 314 58 c 4,34,19
 369 58 369 58 413.5 83.5 c 132,-1,20
EndSplineSet
Substitution2: "'smcp' Lowercase to Small Capitals lookup 37 subtable" d.sc
Substitution2: "'aalt' Access All Alternates lookup 0 subtable" d.sc
EndChar

StartChar: eth
Encoding: 240 240 431
Width: 633
Flags: W
LayerCount: 2
Fore
SplineSet
587 347 m 0,1,2
 587 183 587 183 510 88.5 c 128,-1,3
 433 -6 433 -6 292 -6 c 0,4,5
 222 -6 222 -6 166 21.5 c 128,-1,6
 110 49 110 49 78 99 c 128,-1,7
 46 149 46 149 46 215 c 256,8,9
 46 281 46 281 78 331.5 c 128,-1,10
 110 382 110 382 166.5 409 c 128,-1,11
 223 436 223 436 296 436 c 0,12,13
 372 436 372 436 429.5 401.5 c 128,-1,14
 487 367 487 367 513 303 c 1,15,16
 515 324 515 324 515 362 c 0,17,18
 515 445 515 445 490.5 506 c 128,-1,19
 466 567 466 567 420 605 c 1,20,-1
 152 493 l 1,21,-1
 132 542 l 1,22,-1
 363 638 l 1,23,24
 314 658 314 658 253 658 c 0,25,26
 178 658 178 658 106 636 c 1,27,-1
 94 697 l 1,28,29
 166 718 166 718 253 718 c 0,30,31
 363 718 363 718 439 670 c 1,32,-1
 528 707 l 1,33,-1
 548 658 l 1,34,-1
 487 633 l 1,35,0
 587 535 587 535 587 347 c 0,1,2
398 77.5 m 128,-1,37
 441 100 441 100 463.5 136.5 c 128,-1,38
 486 173 486 173 486 215 c 0,39,40
 486 260 486 260 462.5 296.5 c 128,-1,41
 439 333 439 333 397.5 354 c 128,-1,42
 356 375 356 375 303 375 c 0,43,44
 217 375 217 375 167.5 331.5 c 128,-1,45
 118 288 118 288 118 215 c 0,46,47
 118 143 118 143 167 99 c 128,-1,48
 216 55 216 55 296 55 c 0,49,36
 355 55 355 55 398 77.5 c 128,-1,37
EndSplineSet
Substitution2: "'smcp' Lowercase to Small Capitals lookup 37 subtable" eth.sc
Substitution2: "'aalt' Access All Alternates lookup 0 subtable" eth.sc
EndChar

StartChar: e
Encoding: 101 101 437
Width: 604
GlyphClass: 2
Flags: W
AnchorPoint: "Anchor-14" 0 0 basechar 0
AnchorPoint: "Anchor-13" 0 0 basechar 0
AnchorPoint: "Anchor-12" 303 526 basechar 0
AnchorPoint: "Anchor-11" 511 0 basechar 0
AnchorPoint: "Anchor-10" 303 0 basechar 0
LayerCount: 2
Fore
SplineSet
557 241 m 1,0,-1
 117 241 l 1,1,2
 123 159 123 159 180 108.5 c 128,-1,3
 237 58 237 58 324 58 c 0,4,5
 373 58 373 58 414 75.5 c 128,-1,6
 455 93 455 93 485 127 c 1,7,-1
 525 81 l 1,8,9
 490 39 490 39 437.5 17 c 128,-1,10
 385 -5 385 -5 322 -5 c 0,11,12
 241 -5 241 -5 178.5 29.5 c 128,-1,13
 116 64 116 64 81 125 c 128,-1,14
 46 186 46 186 46 263 c 256,15,16
 46 340 46 340 79.5 401 c 128,-1,17
 113 462 113 462 171.5 496 c 128,-1,18
 230 530 230 530 303 530 c 256,19,20
 376 530 376 530 434 496 c 128,-1,21
 492 462 492 462 525 401.5 c 128,-1,22
 558 341 558 341 558 263 c 2,23,-1
 557 241 l 1,0,-1
175.5 420.5 m 128,-1,25
 124 372 124 372 117 294 c 1,26,-1
 490 294 l 1,27,28
 483 372 483 372 431.5 420.5 c 128,-1,29
 380 469 380 469 303 469 c 0,30,24
 227 469 227 469 175.5 420.5 c 128,-1,25
EndSplineSet
Substitution2: "'ss01' Style Set 1 lookup 42 subtable" e.ss01
Substitution2: "'salt' Stylistic Alternatives lookup 41 subtable" e.ss01
Substitution2: "'smcp' Lowercase to Small Capitals lookup 37 subtable" e.sc
AlternateSubs2: "'aalt' Access All Alternates lookup 1 subtable" e.sc e.ss01
EndChar

StartChar: eogonek
Encoding: 281 281 458
Width: 604
GlyphClass: 2
Flags: W
AnchorPoint: "Anchor-14" 0 0 basechar 0
AnchorPoint: "Anchor-13" 0 0 basechar 0
AnchorPoint: "Anchor-12" 310 526 basechar 0
AnchorPoint: "Anchor-11" 0 0 basechar 0
AnchorPoint: "Anchor-10" 310 0 basechar 0
LayerCount: 2
Fore
SplineSet
557 241 m 1,0,-1
 117 241 l 1,1,2
 123 159 123 159 180 108.5 c 128,-1,3
 237 58 237 58 324 58 c 0,4,5
 373 58 373 58 414 75.5 c 128,-1,6
 455 93 455 93 485 127 c 1,7,-1
 525 81 l 1,8,9
 515 70 515 70 487 45 c 0,10,11
 421 -12 421 -12 396.5 -48.5 c 128,-1,12
 372 -85 372 -85 372 -118 c 0,13,14
 372 -147 372 -147 390 -161.5 c 128,-1,15
 408 -176 408 -176 438 -176 c 0,16,17
 455 -176 455 -176 471.5 -171 c 128,-1,18
 488 -166 488 -166 499 -157 c 1,19,-1
 515 -196 l 1,20,21
 479 -220 479 -220 430 -220 c 0,22,23
 380 -220 380 -220 350 -193.5 c 128,-1,24
 320 -167 320 -167 320 -122 c 0,25,26
 320 -58 320 -58 377 0 c 1,27,28
 347 -5 347 -5 322 -5 c 0,29,30
 241 -5 241 -5 178.5 29.5 c 128,-1,31
 116 64 116 64 81 125 c 128,-1,32
 46 186 46 186 46 263 c 256,33,34
 46 340 46 340 79.5 401 c 128,-1,35
 113 462 113 462 171.5 496 c 128,-1,36
 230 530 230 530 303 530 c 256,37,38
 376 530 376 530 434 496 c 128,-1,39
 492 462 492 462 525 401.5 c 128,-1,40
 558 341 558 341 558 263 c 2,41,-1
 557 241 l 1,0,-1
175.5 420.5 m 128,-1,43
 124 372 124 372 117 294 c 1,44,-1
 490 294 l 1,45,46
 483 372 483 372 431.5 420.5 c 128,-1,47
 380 469 380 469 303 469 c 0,48,42
 227 469 227 469 175.5 420.5 c 128,-1,43
EndSplineSet
Substitution2: "'ss01' Style Set 1 lookup 42 subtable" eogonek.ss01
Substitution2: "'salt' Stylistic Alternatives lookup 41 subtable" eogonek.ss01
Substitution2: "'smcp' Lowercase to Small Capitals lookup 37 subtable" eogonek.sc
AlternateSubs2: "'aalt' Access All Alternates lookup 1 subtable" eogonek.sc eogonek.ss01
EndChar

StartChar: f
Encoding: 102 102 463
Width: 339
Flags: W
LayerCount: 2
Fore
SplineSet
203.5 662 m 128,-1,1
 180 637 180 637 180 588 c 2,2,-1
 180 526 l 1,3,-1
 342 526 l 1,4,-1
 342 466 l 1,5,-1
 182 466 l 1,6,-1
 182 0 l 1,7,-1
 111 0 l 1,8,-1
 111 466 l 1,9,-1
 17 466 l 1,10,-1
 17 526 l 1,11,-1
 111 526 l 1,12,-1
 111 591 l 2,13,14
 111 663 111 663 152.5 705 c 128,-1,15
 194 747 194 747 270 747 c 0,16,17
 300 747 300 747 328 738.5 c 128,-1,18
 356 730 356 730 375 714 c 1,19,-1
 351 661 l 1,20,21
 320 687 320 687 273 687 c 0,22,0
 227 687 227 687 203.5 662 c 128,-1,1
EndSplineSet
Substitution2: "'ss01' Style Set 1 lookup 42 subtable" f.ss01
Substitution2: "'salt' Stylistic Alternatives lookup 41 subtable" f.ss01
Substitution2: "'smcp' Lowercase to Small Capitals lookup 37 subtable" f.sc
AlternateSubs2: "'aalt' Access All Alternates lookup 1 subtable" f.sc f.ss01
EndChar

StartChar: g
Encoding: 103 103 464
Width: 686
GlyphClass: 2
Flags: W
AnchorPoint: "Anchor-14" 0 0 basechar 0
AnchorPoint: "Anchor-13" 0 0 basechar 0
AnchorPoint: "Anchor-12" 325 526 basechar 0
AnchorPoint: "Anchor-11" 0 0 basechar 0
AnchorPoint: "Anchor-10" 0 0 basechar 0
LayerCount: 2
Fore
SplineSet
586 526 m 1,0,-1
 586 64 l 2,1,2
 586 -70 586 -70 520.5 -134.5 c 128,-1,3
 455 -199 455 -199 323 -199 c 0,4,5
 250 -199 250 -199 184.5 -177.5 c 128,-1,6
 119 -156 119 -156 78 -118 c 1,7,-1
 114 -64 l 1,8,9
 152 -98 152 -98 206.5 -117 c 128,-1,10
 261 -136 261 -136 321 -136 c 0,11,12
 421 -136 421 -136 468 -89.5 c 128,-1,13
 515 -43 515 -43 515 55 c 2,14,-1
 515 122 l 1,15,16
 482 72 482 72 428.5 46 c 128,-1,17
 375 20 375 20 310 20 c 0,18,19
 236 20 236 20 175.5 52.5 c 128,-1,20
 115 85 115 85 80.5 143.5 c 128,-1,21
 46 202 46 202 46 276 c 256,22,23
 46 350 46 350 80.5 408 c 128,-1,24
 115 466 115 466 175 498 c 128,-1,25
 235 530 235 530 310 530 c 0,26,27
 377 530 377 530 431 503 c 128,-1,28
 485 476 485 476 518 425 c 1,29,-1
 518 526 l 1,30,-1
 586 526 l 1,0,-1
420 107.5 m 128,-1,32
 466 132 466 132 491.5 176 c 128,-1,33
 517 220 517 220 517 276 c 256,34,35
 517 332 517 332 491.5 375.5 c 128,-1,36
 466 419 466 419 420.5 443.5 c 128,-1,37
 375 468 375 468 317 468 c 0,38,39
 260 468 260 468 214.5 444 c 128,-1,40
 169 420 169 420 143.5 376 c 128,-1,41
 118 332 118 332 118 276 c 256,42,43
 118 220 118 220 143.5 176 c 128,-1,44
 169 132 169 132 214.5 107.5 c 128,-1,45
 260 83 260 83 317 83 c 256,46,31
 374 83 374 83 420 107.5 c 128,-1,32
EndSplineSet
Substitution2: "'smcp' Lowercase to Small Capitals lookup 37 subtable" g.sc
Substitution2: "'aalt' Access All Alternates lookup 0 subtable" g.sc
EndChar

StartChar: uni01E5
Encoding: 485 485 471
Width: 691
Flags: W
LayerCount: 2
Fore
SplineSet
650 -62 m 1,0,-1
 566 -62 l 1,1,2
 540 -132 540 -132 479.5 -165.5 c 128,-1,3
 419 -199 419 -199 323 -199 c 0,4,5
 250 -199 250 -199 184.5 -177.5 c 128,-1,6
 119 -156 119 -156 78 -118 c 1,7,-1
 114 -64 l 1,8,9
 152 -98 152 -98 206.5 -117 c 128,-1,10
 261 -136 261 -136 321 -136 c 0,11,12
 446 -136 446 -136 489 -62 c 1,13,-1
 288 -62 l 1,14,-1
 288 -11 l 1,15,-1
 508 -11 l 1,16,17
 515 17 515 17 515 55 c 2,18,-1
 515 133 l 1,19,20
 482 86 482 86 428.5 60.5 c 128,-1,21
 375 35 375 35 310 35 c 0,22,23
 236 35 236 35 175.5 66.5 c 128,-1,24
 115 98 115 98 80.5 154.5 c 128,-1,25
 46 211 46 211 46 283 c 256,26,27
 46 355 46 355 80.5 411.5 c 128,-1,28
 115 468 115 468 175 499 c 128,-1,29
 235 530 235 530 310 530 c 0,30,31
 377 530 377 530 431 504 c 128,-1,32
 485 478 485 478 518 428 c 1,33,-1
 518 526 l 1,34,-1
 586 526 l 1,35,-1
 586 64 l 2,36,37
 586 24 586 24 580 -11 c 1,38,-1
 650 -11 l 1,39,-1
 650 -62 l 1,0,-1
420 119 m 128,-1,41
 466 143 466 143 491.5 185.5 c 128,-1,42
 517 228 517 228 517 283 c 256,43,44
 517 338 517 338 491.5 380.5 c 128,-1,45
 466 423 466 423 420 446.5 c 128,-1,46
 374 470 374 470 317 470 c 256,47,48
 260 470 260 470 214.5 446.5 c 128,-1,49
 169 423 169 423 143.5 380.5 c 128,-1,50
 118 338 118 338 118 283 c 256,51,52
 118 228 118 228 143.5 185.5 c 128,-1,53
 169 143 169 143 214.5 119 c 128,-1,54
 260 95 260 95 317 95 c 256,55,40
 374 95 374 95 420 119 c 128,-1,41
EndSplineSet
Substitution2: "'smcp' Lowercase to Small Capitals lookup 37 subtable" uni01E5.sc
Substitution2: "'aalt' Access All Alternates lookup 0 subtable" uni01E5.sc
EndChar

StartChar: h
Encoding: 104 104 472
Width: 677
GlyphClass: 2
Flags: W
AnchorPoint: "Anchor-14" 248 526 basechar 0
AnchorPoint: "Anchor-13" 195 633 basechar 0
AnchorPoint: "Anchor-12" 135 742 basechar 0
AnchorPoint: "Anchor-11" 0 0 basechar 0
AnchorPoint: "Anchor-10" 340 0 basechar 0
LayerCount: 2
Fore
SplineSet
524.5 472.5 m 128,-1,1
 583 415 583 415 583 305 c 2,2,-1
 583 0 l 1,3,-1
 512 0 l 1,4,-1
 512 298 l 2,5,6
 512 380 512 380 471 423 c 128,-1,7
 430 466 430 466 354 466 c 0,8,9
 269 466 269 466 219.5 415.5 c 128,-1,10
 170 365 170 365 170 276 c 2,11,-1
 170 0 l 1,12,-1
 99 0 l 1,13,-1
 99 742 l 1,14,-1
 170 742 l 5,15,-1
 170 434 l 1,16,17
 199 480 199 480 250 505 c 128,-1,18
 301 530 301 530 367 530 c 0,19,0
 466 530 466 530 524.5 472.5 c 128,-1,1
EndSplineSet
Substitution2: "'smcp' Lowercase to Small Capitals lookup 37 subtable" h.sc
Substitution2: "'aalt' Access All Alternates lookup 0 subtable" h.sc
EndChar

StartChar: dotlessi
Encoding: 305 305 479
Width: 269
GlyphClass: 2
Flags: W
AnchorPoint: "Anchor-14" 0 0 basechar 0
AnchorPoint: "Anchor-13" 0 0 basechar 0
AnchorPoint: "Anchor-12" 135 526 basechar 0
AnchorPoint: "Anchor-11" 170 0 basechar 0
AnchorPoint: "Anchor-10" 135 0 basechar 0
LayerCount: 2
Fore
SplineSet
99 526 m 5,0,-1
 170 526 l 5,1,-1
 170 0 l 5,2,-1
 99 0 l 5,3,-1
 99 526 l 5,0,-1
EndSplineSet
Substitution2: "'smcp' Lowercase to Small Capitals lookup 37 subtable" dotlessi.sc
Substitution2: "'aalt' Access All Alternates lookup 0 subtable" dotlessi.sc
EndChar

StartChar: uni0237
Encoding: 567 567 496
Width: 274
GlyphClass: 2
Flags: W
AnchorPoint: "Anchor-14" 0 0 basechar 0
AnchorPoint: "Anchor-13" 0 0 basechar 0
AnchorPoint: "Anchor-12" 140 526 basechar 0
AnchorPoint: "Anchor-11" 0 0 basechar 0
AnchorPoint: "Anchor-10" 0 0 basechar 0
LayerCount: 2
Fore
SplineSet
-41.5 -190.5 m 128,-1,1
 -71 -182 -71 -182 -90 -165 c 1,2,-1
 -65 -111 l 1,3,4
 -34 -138 -34 -138 17 -138 c 0,5,6
 59 -138 59 -138 81.5 -113 c 128,-1,7
 104 -88 104 -88 104 -39 c 2,8,-1
 104 526 l 1,9,-1
 175 526 l 1,10,-1
 175 -39 l 2,11,12
 175 -113 175 -113 135 -156 c 128,-1,13
 95 -199 95 -199 21 -199 c 0,14,0
 -12 -199 -12 -199 -41.5 -190.5 c 128,-1,1
EndSplineSet
EndChar

StartChar: k
Encoding: 107 107 498
Width: 601
GlyphClass: 2
Flags: W
AnchorPoint: "Anchor-14" 243 526 basechar 0
AnchorPoint: "Anchor-13" 0 0 basechar 0
AnchorPoint: "Anchor-12" 135 742 basechar 0
AnchorPoint: "Anchor-11" 0 0 basechar 0
AnchorPoint: "Anchor-10" 311 0 basechar 0
LayerCount: 2
Fore
SplineSet
294 264 m 1,0,-1
 170 150 l 1,1,-1
 170 0 l 1,2,-1
 99 0 l 1,3,-1
 99 742 l 1,4,-1
 170 742 l 1,5,-1
 170 239 l 1,6,-1
 484 526 l 1,7,-1
 572 526 l 1,8,-1
 347 311 l 1,9,-1
 593 0 l 1,10,-1
 506 0 l 1,11,-1
 294 264 l 1,0,-1
EndSplineSet
Substitution2: "'smcp' Lowercase to Small Capitals lookup 37 subtable" k.sc
Substitution2: "'aalt' Access All Alternates lookup 0 subtable" k.sc
EndChar

StartChar: kgreenlandic
Encoding: 312 312 501
Width: 590
GlyphClass: 2
Flags: W
AnchorPoint: "Anchor-14" 0 0 basechar 0
AnchorPoint: "Anchor-13" 0 0 basechar 0
AnchorPoint: "Anchor-12" 282 526 basechar 0
AnchorPoint: "Anchor-11" 0 0 basechar 0
AnchorPoint: "Anchor-10" 282 0 basechar 0
LayerCount: 2
Fore
SplineSet
294 264 m 5,0,-1
 170 150 l 5,1,-1
 170 0 l 5,2,-1
 99 0 l 5,3,-1
 99 526 l 5,4,-1
 170 526 l 5,5,-1
 170 239 l 5,6,-1
 484 526 l 5,7,-1
 572 526 l 5,8,-1
 347 311 l 5,9,-1
 593 0 l 5,10,-1
 506 0 l 5,11,-1
 294 264 l 5,0,-1
EndSplineSet
Substitution2: "'smcp' Lowercase to Small Capitals lookup 37 subtable" kgreenlandic.sc
Substitution2: "'aalt' Access All Alternates lookup 0 subtable" kgreenlandic.sc
EndChar

StartChar: l
Encoding: 108 108 502
Width: 269
GlyphClass: 2
Flags: W
AnchorPoint: "Anchor-14" 262 742 basechar 0
AnchorPoint: "Anchor-13" 135 356 basechar 0
AnchorPoint: "Anchor-12" 135 742 basechar 0
AnchorPoint: "Anchor-11" 0 0 basechar 0
AnchorPoint: "Anchor-10" 135 0 basechar 0
LayerCount: 2
Fore
SplineSet
99 742 m 1,0,-1
 170 742 l 1,1,-1
 170 0 l 1,2,-1
 99 0 l 1,3,-1
 99 742 l 1,0,-1
EndSplineSet
Substitution2: "'ss01' Style Set 1 lookup 42 subtable" l.ss01
Substitution2: "'salt' Stylistic Alternatives lookup 41 subtable" l.ss01
Substitution2: "'smcp' Lowercase to Small Capitals lookup 37 subtable" l.sc
AlternateSubs2: "'aalt' Access All Alternates lookup 1 subtable" l.sc l.ss01
EndChar

StartChar: m
Encoding: 109 109 511
Width: 1061
GlyphClass: 2
Flags: W
AnchorPoint: "Anchor-14" 0 0 basechar 0
AnchorPoint: "Anchor-13" 0 0 basechar 0
AnchorPoint: "Anchor-12" 0 0 basechar 0
AnchorPoint: "Anchor-11" 0 0 basechar 0
AnchorPoint: "Anchor-10" 532 0 basechar 0
LayerCount: 2
Fore
SplineSet
910.5 473 m 128,-1,1
 967 416 967 416 967 305 c 2,2,-1
 967 0 l 1,3,-1
 896 0 l 1,4,-1
 896 298 l 2,5,6
 896 380 896 380 856.5 423 c 128,-1,7
 817 466 817 466 745 466 c 0,8,9
 663 466 663 466 616 415.5 c 128,-1,10
 569 365 569 365 569 276 c 2,11,-1
 569 0 l 1,12,-1
 498 0 l 1,13,-1
 498 298 l 2,14,15
 498 380 498 380 458.5 423 c 128,-1,16
 419 466 419 466 346 466 c 0,17,18
 265 466 265 466 217.5 415.5 c 128,-1,19
 170 365 170 365 170 276 c 2,20,-1
 170 0 l 1,21,-1
 99 0 l 1,22,-1
 99 526 l 1,23,-1
 167 526 l 1,24,-1
 167 430 l 1,25,26
 195 478 195 478 245 504 c 128,-1,27
 295 530 295 530 360 530 c 0,28,29
 426 530 426 530 474.5 502 c 128,-1,30
 523 474 523 474 547 419 c 1,31,32
 576 471 576 471 630.5 500.5 c 128,-1,33
 685 530 685 530 755 530 c 0,34,0
 854 530 854 530 910.5 473 c 128,-1,1
EndSplineSet
Substitution2: "'smcp' Lowercase to Small Capitals lookup 37 subtable" m.sc
Substitution2: "'aalt' Access All Alternates lookup 0 subtable" m.sc
EndChar

StartChar: n
Encoding: 110 110 513
Width: 677
GlyphClass: 2
Flags: W
AnchorPoint: "Anchor-14" 0 0 basechar 0
AnchorPoint: "Anchor-13" 0 0 basechar 0
AnchorPoint: "Anchor-12" 340 526 basechar 0
AnchorPoint: "Anchor-11" 0 0 basechar 0
AnchorPoint: "Anchor-10" 340 0 basechar 0
LayerCount: 2
Fore
SplineSet
524.5 472.5 m 132,-1,1
 583 415 583 415 583 305 c 6,2,-1
 583 0 l 5,3,-1
 512 0 l 5,4,-1
 512 298 l 6,5,6
 512 380 512 380 471 423 c 132,-1,7
 430 466 430 466 354 466 c 4,8,9
 269 466 269 466 219.5 415.5 c 132,-1,10
 170 365 170 365 170 276 c 6,11,-1
 170 0 l 5,12,-1
 99 0 l 5,13,-1
 99 526 l 5,14,-1
 167 526 l 5,15,-1
 167 429 l 5,16,17
 196 477 196 477 247.5 503.5 c 132,-1,18
 299 530 299 530 367 530 c 4,19,0
 466 530 466 530 524.5 472.5 c 132,-1,1
EndSplineSet
Substitution2: "'smcp' Lowercase to Small Capitals lookup 37 subtable" n.sc
Substitution2: "'aalt' Access All Alternates lookup 0 subtable" n.sc
EndChar

StartChar: eng
Encoding: 331 331 520
Width: 677
Flags: W
LayerCount: 2
Fore
SplineSet
524.5 472.5 m 128,-1,1
 583 415 583 415 583 305 c 2,2,-1
 583 -39 l 2,3,4
 583 -113 583 -113 542.5 -156 c 128,-1,5
 502 -199 502 -199 429 -199 c 0,6,7
 396 -199 396 -199 366.5 -190.5 c 128,-1,8
 337 -182 337 -182 318 -165 c 1,9,-1
 343 -111 l 1,10,11
 373 -138 373 -138 425 -138 c 0,12,13
 467 -138 467 -138 489.5 -113 c 128,-1,14
 512 -88 512 -88 512 -39 c 2,15,-1
 512 298 l 2,16,17
 512 380 512 380 471 423 c 128,-1,18
 430 466 430 466 354 466 c 0,19,20
 269 466 269 466 219.5 415.5 c 128,-1,21
 170 365 170 365 170 276 c 2,22,-1
 170 0 l 1,23,-1
 99 0 l 1,24,-1
 99 526 l 1,25,-1
 167 526 l 1,26,-1
 167 429 l 1,27,28
 196 477 196 477 247.5 503.5 c 128,-1,29
 299 530 299 530 367 530 c 0,30,0
 466 530 466 530 524.5 472.5 c 128,-1,1
EndSplineSet
Substitution2: "'smcp' Lowercase to Small Capitals lookup 37 subtable" eng.sc
Substitution2: "'aalt' Access All Alternates lookup 0 subtable" eng.sc
EndChar

StartChar: o
Encoding: 111 111 524
Width: 627
GlyphClass: 2
Flags: W
AnchorPoint: "Anchor-14" 458 526 basechar 0
AnchorPoint: "Anchor-13" 313 263 basechar 0
AnchorPoint: "Anchor-12" 313 526 basechar 0
AnchorPoint: "Anchor-11" 408 0 basechar 0
AnchorPoint: "Anchor-10" 313 0 basechar 0
LayerCount: 2
Fore
SplineSet
177 29.5 m 128,-1,1
 116 64 116 64 81 125 c 128,-1,2
 46 186 46 186 46 263 c 256,3,4
 46 340 46 340 81 401 c 128,-1,5
 116 462 116 462 177 496 c 128,-1,6
 238 530 238 530 314 530 c 256,7,8
 390 530 390 530 451 496 c 128,-1,9
 512 462 512 462 546.5 401 c 128,-1,10
 581 340 581 340 581 263 c 256,11,12
 581 186 581 186 546.5 125 c 128,-1,13
 512 64 512 64 451 29.5 c 128,-1,14
 390 -5 390 -5 314 -5 c 256,15,0
 238 -5 238 -5 177 29.5 c 128,-1,1
414.5 83.5 m 128,-1,17
 459 109 459 109 484 156 c 128,-1,18
 509 203 509 203 509 263 c 256,19,20
 509 323 509 323 484 370 c 128,-1,21
 459 417 459 417 414.5 442.5 c 128,-1,22
 370 468 370 468 314 468 c 256,23,24
 258 468 258 468 213.5 442.5 c 128,-1,25
 169 417 169 417 143.5 370 c 128,-1,26
 118 323 118 323 118 263 c 256,27,28
 118 203 118 203 143.5 156 c 128,-1,29
 169 109 169 109 213.5 83.5 c 128,-1,30
 258 58 258 58 314 58 c 256,31,16
 370 58 370 58 414.5 83.5 c 128,-1,17
EndSplineSet
Substitution2: "Single Substitution lookup 44 subtable" ordmasculine
Substitution2: "'smcp' Lowercase to Small Capitals lookup 37 subtable" o.sc
AlternateSubs2: "'aalt' Access All Alternates lookup 1 subtable" ordmasculine o.sc
EndChar

StartChar: ohorn
Encoding: 417 417 540
Width: 627
GlyphClass: 2
Flags: W
AnchorPoint: "Anchor-14" 0 0 basechar 0
AnchorPoint: "Anchor-13" 0 0 basechar 0
AnchorPoint: "Anchor-12" 314 526 basechar 0
AnchorPoint: "Anchor-11" 0 0 basechar 0
AnchorPoint: "Anchor-10" 314 0 basechar 0
LayerCount: 2
Fore
SplineSet
553.5 387.5 m 128,-1,1
 581 332 581 332 581 263 c 0,2,3
 581 186 581 186 546.5 125 c 128,-1,4
 512 64 512 64 451 29.5 c 128,-1,5
 390 -5 390 -5 314 -5 c 256,6,7
 238 -5 238 -5 177 29.5 c 128,-1,8
 116 64 116 64 81 125 c 128,-1,9
 46 186 46 186 46 263 c 256,10,11
 46 340 46 340 81 401 c 128,-1,12
 116 462 116 462 177 496 c 128,-1,13
 238 530 238 530 314 530 c 0,14,15
 334 530 334 530 353 528.5 c 128,-1,16
 372 527 372 527 380 527 c 0,17,18
 407 524 407 524 438 524 c 0,19,20
 478 524 478 524 498.5 544 c 128,-1,21
 519 564 519 564 519 594 c 0,22,23
 519 625 519 625 499 658 c 1,24,-1
 545 676 l 1,25,26
 572 635 572 635 572 592 c 256,27,28
 572 549 572 549 547 519 c 128,-1,29
 522 489 522 489 476 479 c 1,30,0
 526 443 526 443 553.5 387.5 c 128,-1,1
413.5 83.5 m 128,-1,32
 458 109 458 109 483.5 156 c 128,-1,33
 509 203 509 203 509 263 c 256,34,35
 509 323 509 323 484 370 c 128,-1,36
 459 417 459 417 414.5 442.5 c 128,-1,37
 370 468 370 468 314 468 c 256,38,39
 258 468 258 468 213.5 442.5 c 128,-1,40
 169 417 169 417 143.5 370 c 128,-1,41
 118 323 118 323 118 263 c 256,42,43
 118 203 118 203 143.5 156 c 128,-1,44
 169 109 169 109 213.5 83.5 c 128,-1,45
 258 58 258 58 314 58 c 0,46,31
 369 58 369 58 413.5 83.5 c 128,-1,32
EndSplineSet
Substitution2: "'smcp' Lowercase to Small Capitals lookup 37 subtable" ohorn.sc
Substitution2: "'aalt' Access All Alternates lookup 0 subtable" ohorn.sc
EndChar

StartChar: uni01EB
Encoding: 491 491 551
Width: 627
GlyphClass: 2
Flags: W
AnchorPoint: "Anchor-14" 458 526 basechar 0
AnchorPoint: "Anchor-13" 313 263 basechar 0
AnchorPoint: "Anchor-12" 313 526 basechar 0
AnchorPoint: "Anchor-11" 0 0 basechar 0
AnchorPoint: "Anchor-10" 313 0 basechar 0
LayerCount: 2
Fore
SplineSet
314.5 -53 m 128,-1,1
 285 -86 285 -86 285 -120 c 0,2,3
 285 -147 285 -147 303 -161.5 c 128,-1,4
 321 -176 321 -176 350 -176 c 0,5,6
 388 -176 388 -176 411 -157 c 1,7,-1
 427 -196 l 1,8,9
 393 -220 393 -220 343 -220 c 0,10,11
 292 -220 292 -220 262 -194.5 c 128,-1,12
 232 -169 232 -169 232 -127 c 0,13,14
 232 -56 232 -56 308 -5 c 1,15,16
 233 -4 233 -4 173.5 31 c 128,-1,17
 114 66 114 66 80 126.5 c 128,-1,18
 46 187 46 187 46 263 c 0,19,20
 46 340 46 340 81 401 c 128,-1,21
 116 462 116 462 177 496 c 128,-1,22
 238 530 238 530 314 530 c 256,23,24
 390 530 390 530 451 496 c 128,-1,25
 512 462 512 462 546.5 401 c 128,-1,26
 581 340 581 340 581 263 c 0,27,28
 581 178 581 178 539.5 113.5 c 128,-1,29
 498 49 498 49 426 17 c 0,30,0
 344 -20 344 -20 314.5 -53 c 128,-1,1
143.5 156 m 128,-1,32
 169 109 169 109 213.5 83.5 c 128,-1,33
 258 58 258 58 314 58 c 256,34,35
 370 58 370 58 414.5 83.5 c 128,-1,36
 459 109 459 109 484 156 c 128,-1,37
 509 203 509 203 509 263 c 256,38,39
 509 323 509 323 484 370 c 128,-1,40
 459 417 459 417 414.5 442.5 c 128,-1,41
 370 468 370 468 314 468 c 256,42,43
 258 468 258 468 213.5 442.5 c 128,-1,44
 169 417 169 417 143.5 370 c 128,-1,45
 118 323 118 323 118 263 c 256,46,31
 118 203 118 203 143.5 156 c 128,-1,32
EndSplineSet
Substitution2: "'smcp' Lowercase to Small Capitals lookup 37 subtable" uni01EB.sc
Substitution2: "'aalt' Access All Alternates lookup 0 subtable" uni01EB.sc
EndChar

StartChar: oe
Encoding: 339 339 558
Width: 1068
GlyphClass: 2
Flags: W
AnchorPoint: "Anchor-14" 0 0 basechar 0
AnchorPoint: "Anchor-13" 0 0 basechar 0
AnchorPoint: "Anchor-12" 544 526 basechar 0
AnchorPoint: "Anchor-11" 0 0 basechar 0
AnchorPoint: "Anchor-10" 544 0 basechar 0
LayerCount: 2
Fore
SplineSet
1021 241 m 1,0,-1
 580 241 l 1,1,2
 586 159 586 159 643.5 108.5 c 128,-1,3
 701 58 701 58 788 58 c 0,4,5
 837 58 837 58 878 75.5 c 128,-1,6
 919 93 919 93 948 127 c 1,7,-1
 988 81 l 1,8,9
 953 39 953 39 901 17 c 128,-1,10
 849 -5 849 -5 786 -5 c 0,11,12
 703 -5 703 -5 640 31.5 c 128,-1,13
 577 68 577 68 544 131 c 1,14,15
 512 68 512 68 452 31.5 c 128,-1,16
 392 -5 392 -5 314 -5 c 0,17,18
 238 -5 238 -5 177 29.5 c 128,-1,19
 116 64 116 64 81 125 c 128,-1,20
 46 186 46 186 46 263 c 256,21,22
 46 340 46 340 81 401 c 128,-1,23
 116 462 116 462 177 496 c 128,-1,24
 238 530 238 530 314 530 c 0,25,26
 391 530 391 530 451.5 494 c 128,-1,27
 512 458 512 458 544 396 c 1,28,29
 575 458 575 458 633.5 494 c 128,-1,30
 692 530 692 530 767 530 c 0,31,32
 840 530 840 530 898 496 c 128,-1,33
 956 462 956 462 989 401.5 c 128,-1,34
 1022 341 1022 341 1022 263 c 2,35,-1
 1021 241 l 1,0,-1
639 420 m 128,-1,37
 587 371 587 371 580 294 c 1,38,-1
 954 294 l 1,39,40
 947 371 947 371 895 420 c 128,-1,41
 843 469 843 469 767 469 c 256,42,36
 691 469 691 469 639 420 c 128,-1,37
414.5 83.5 m 128,-1,44
 459 109 459 109 484 156 c 128,-1,45
 509 203 509 203 509 263 c 256,46,47
 509 323 509 323 484 370 c 128,-1,48
 459 417 459 417 414.5 442.5 c 128,-1,49
 370 468 370 468 314 468 c 256,50,51
 258 468 258 468 213.5 442.5 c 128,-1,52
 169 417 169 417 143.5 370 c 128,-1,53
 118 323 118 323 118 263 c 256,54,55
 118 203 118 203 143.5 156 c 128,-1,56
 169 109 169 109 213.5 83.5 c 128,-1,57
 258 58 258 58 314 58 c 256,58,43
 370 58 370 58 414.5 83.5 c 128,-1,44
EndSplineSet
Substitution2: "'ss01' Style Set 1 lookup 42 subtable" oe.ss01
Substitution2: "'salt' Stylistic Alternatives lookup 41 subtable" oe.ss01
Substitution2: "'smcp' Lowercase to Small Capitals lookup 37 subtable" oe.sc
AlternateSubs2: "'aalt' Access All Alternates lookup 1 subtable" oe.sc oe.ss01
EndChar

StartChar: p
Encoding: 112 112 559
Width: 678
GlyphClass: 2
Flags: W
AnchorPoint: "Anchor-14" 0 0 basechar 0
AnchorPoint: "Anchor-13" 0 0 basechar 0
AnchorPoint: "Anchor-12" 365 526 basechar 0
AnchorPoint: "Anchor-11" 0 0 basechar 0
AnchorPoint: "Anchor-10" 378 0 basechar 0
LayerCount: 2
Fore
SplineSet
504 496.5 m 128,-1,1
 564 463 564 463 598 402 c 128,-1,2
 632 341 632 341 632 263 c 0,3,4
 632 184 632 184 598 123 c 128,-1,5
 564 62 564 62 504.5 28.5 c 128,-1,6
 445 -5 445 -5 370 -5 c 0,7,8
 306 -5 306 -5 254.5 21.5 c 128,-1,9
 203 48 203 48 170 99 c 1,10,-1
 170 -194 l 1,11,-1
 99 -194 l 1,12,-1
 99 526 l 1,13,-1
 167 526 l 1,14,-1
 167 422 l 1,15,16
 199 474 199 474 251.5 502 c 128,-1,17
 304 530 304 530 370 530 c 0,18,0
 444 530 444 530 504 496.5 c 128,-1,1
465 83.5 m 128,-1,20
 510 109 510 109 535.5 156 c 128,-1,21
 561 203 561 203 561 263 c 256,22,23
 561 323 561 323 535.5 369.5 c 128,-1,24
 510 416 510 416 465 442 c 128,-1,25
 420 468 420 468 365 468 c 0,26,27
 309 468 309 468 264.5 442 c 128,-1,28
 220 416 220 416 194.5 369.5 c 128,-1,29
 169 323 169 323 169 263 c 256,30,31
 169 203 169 203 194.5 156 c 128,-1,32
 220 109 220 109 264.5 83.5 c 128,-1,33
 309 58 309 58 365 58 c 0,34,19
 420 58 420 58 465 83.5 c 128,-1,20
EndSplineSet
Substitution2: "'smcp' Lowercase to Small Capitals lookup 37 subtable" p.sc
Substitution2: "'aalt' Access All Alternates lookup 0 subtable" p.sc
EndChar

StartChar: thorn
Encoding: 254 254 560
Width: 678
GlyphClass: 2
Flags: W
AnchorPoint: "Anchor-14" 0 0 basechar 0
AnchorPoint: "Anchor-13" 0 0 basechar 0
AnchorPoint: "Anchor-12" 377 526 basechar 0
AnchorPoint: "Anchor-11" 0 0 basechar 0
AnchorPoint: "Anchor-10" 377 0 basechar 0
LayerCount: 2
Fore
SplineSet
504 496.5 m 128,-1,1
 564 463 564 463 598 402 c 128,-1,2
 632 341 632 341 632 263 c 0,3,4
 632 184 632 184 598 123 c 128,-1,5
 564 62 564 62 504.5 28.5 c 128,-1,6
 445 -5 445 -5 370 -5 c 0,7,8
 306 -5 306 -5 254.5 21.5 c 128,-1,9
 203 48 203 48 170 99 c 1,10,-1
 170 -194 l 1,11,-1
 99 -194 l 1,12,-1
 99 742 l 1,13,-1
 170 742 l 1,14,-1
 170 427 l 1,15,16
 202 477 202 477 254 503.5 c 128,-1,17
 306 530 306 530 370 530 c 0,18,0
 444 530 444 530 504 496.5 c 128,-1,1
465 83.5 m 128,-1,20
 510 109 510 109 535.5 156 c 128,-1,21
 561 203 561 203 561 263 c 256,22,23
 561 323 561 323 535.5 369.5 c 128,-1,24
 510 416 510 416 465 442 c 128,-1,25
 420 468 420 468 365 468 c 0,26,27
 309 468 309 468 264.5 442 c 128,-1,28
 220 416 220 416 194.5 369.5 c 128,-1,29
 169 323 169 323 169 263 c 256,30,31
 169 203 169 203 194.5 156 c 128,-1,32
 220 109 220 109 264.5 83.5 c 128,-1,33
 309 58 309 58 365 58 c 0,34,19
 420 58 420 58 465 83.5 c 128,-1,20
EndSplineSet
Substitution2: "'smcp' Lowercase to Small Capitals lookup 37 subtable" thorn.sc
Substitution2: "'aalt' Access All Alternates lookup 0 subtable" thorn.sc
EndChar

StartChar: q
Encoding: 113 113 561
Width: 678
GlyphClass: 2
Flags: W
AnchorPoint: "Anchor-14" 0 0 basechar 0
AnchorPoint: "Anchor-13" 0 0 basechar 0
AnchorPoint: "Anchor-12" 314 526 basechar 0
AnchorPoint: "Anchor-11" 0 0 basechar 0
AnchorPoint: "Anchor-10" 301 0 basechar 0
LayerCount: 2
Fore
SplineSet
579 526 m 1,0,-1
 579 -194 l 5,1,-1
 508 -194 l 1,2,-1
 508 99 l 1,3,4
 475 48 475 48 423.5 21.5 c 128,-1,5
 372 -5 372 -5 308 -5 c 0,6,7
 233 -5 233 -5 173.5 28.5 c 128,-1,8
 114 62 114 62 80 123 c 128,-1,9
 46 184 46 184 46 263 c 0,10,11
 46 341 46 341 80 402 c 128,-1,12
 114 463 114 463 174 496.5 c 128,-1,13
 234 530 234 530 308 530 c 0,14,15
 374 530 374 530 426.5 502 c 128,-1,16
 479 474 479 474 511 422 c 1,17,-1
 511 526 l 1,18,-1
 579 526 l 1,0,-1
413.5 83.5 m 128,-1,20
 458 109 458 109 483.5 156 c 128,-1,21
 509 203 509 203 509 263 c 256,22,23
 509 323 509 323 483.5 369.5 c 128,-1,24
 458 416 458 416 413.5 442 c 128,-1,25
 369 468 369 468 314 468 c 0,26,27
 258 468 258 468 213.5 442 c 128,-1,28
 169 416 169 416 143.5 369.5 c 128,-1,29
 118 323 118 323 118 263 c 256,30,31
 118 203 118 203 143.5 156 c 128,-1,32
 169 109 169 109 213.5 83.5 c 128,-1,33
 258 58 258 58 314 58 c 0,34,19
 369 58 369 58 413.5 83.5 c 128,-1,20
EndSplineSet
Substitution2: "'smcp' Lowercase to Small Capitals lookup 37 subtable" q.sc
Substitution2: "'aalt' Access All Alternates lookup 0 subtable" q.sc
EndChar

StartChar: r
Encoding: 114 114 562
Width: 401
GlyphClass: 2
Flags: W
AnchorPoint: "Anchor-14" 0 0 basechar 0
AnchorPoint: "Anchor-13" 0 0 basechar 0
AnchorPoint: "Anchor-12" 232 526 basechar 0
AnchorPoint: "Anchor-11" 0 0 basechar 0
AnchorPoint: "Anchor-10" 135 0 basechar 0
LayerCount: 2
Fore
SplineSet
241.5 503 m 128,-1,1
 291 530 291 530 364 530 c 1,2,-1
 364 461 l 1,3,-1
 347 462 l 1,4,5
 264 462 264 462 217 411 c 128,-1,6
 170 360 170 360 170 268 c 2,7,-1
 170 0 l 1,8,-1
 99 0 l 1,9,-1
 99 526 l 1,10,-1
 167 526 l 1,11,-1
 167 423 l 1,12,0
 192 476 192 476 241.5 503 c 128,-1,1
EndSplineSet
Substitution2: "'smcp' Lowercase to Small Capitals lookup 37 subtable" r.sc
Substitution2: "'aalt' Access All Alternates lookup 0 subtable" r.sc
EndChar

StartChar: s
Encoding: 115 115 570
Width: 489
GlyphClass: 2
Flags: W
AnchorPoint: "Anchor-14" 0 0 basechar 0
AnchorPoint: "Anchor-13" 0 0 basechar 0
AnchorPoint: "Anchor-12" 243 526 basechar 0
AnchorPoint: "Anchor-11" 0 0 basechar 0
AnchorPoint: "Anchor-10" 243 0 basechar 0
LayerCount: 2
Fore
SplineSet
117.5 13.5 m 128,-1,1
 59 32 59 32 26 60 c 1,2,-1
 58 116 l 1,3,4
 91 90 91 90 141 73.5 c 128,-1,5
 191 57 191 57 245 57 c 0,6,7
 317 57 317 57 351.5 79.5 c 128,-1,8
 386 102 386 102 386 143 c 0,9,10
 386 172 386 172 367 188.5 c 128,-1,11
 348 205 348 205 319 213.5 c 128,-1,12
 290 222 290 222 242 230 c 0,13,14
 178 242 178 242 139 254.5 c 128,-1,15
 100 267 100 267 72.5 297 c 128,-1,16
 45 327 45 327 45 380 c 0,17,18
 45 446 45 446 100 488 c 128,-1,19
 155 530 155 530 253 530 c 0,20,21
 304 530 304 530 355 516.5 c 128,-1,22
 406 503 406 503 439 481 c 1,23,-1
 408 424 l 1,24,25
 343 469 343 469 253 469 c 0,26,27
 185 469 185 469 150.5 445 c 128,-1,28
 116 421 116 421 116 382 c 0,29,30
 116 352 116 352 135.5 334 c 128,-1,31
 155 316 155 316 184 307.5 c 128,-1,32
 213 299 213 299 264 290 c 0,33,34
 327 278 327 278 365 266 c 128,-1,35
 403 254 403 254 430 225 c 128,-1,36
 457 196 457 196 457 145 c 0,37,38
 457 76 457 76 399.5 35.5 c 128,-1,39
 342 -5 342 -5 240 -5 c 0,40,0
 176 -5 176 -5 117.5 13.5 c 128,-1,1
EndSplineSet
Substitution2: "'smcp' Lowercase to Small Capitals lookup 37 subtable" s.sc
Substitution2: "'aalt' Access All Alternates lookup 0 subtable" s.sc
EndChar

StartChar: uniA78C
Encoding: 42892 42892 573
Width: 240
Flags: W
LayerCount: 2
Fore
SplineSet
85 652 m 1,0,-1
 156 652 l 1,1,-1
 147 297 l 1,2,-1
 84 297 l 1,3,-1
 85 652 l 1,0,-1
EndSplineSet
Substitution2: "'smcp' Lowercase to Small Capitals lookup 37 subtable" uniA78C.sc
Substitution2: "'aalt' Access All Alternates lookup 0 subtable" uniA78C.sc
EndChar

StartChar: germandbls
Encoding: 223 223 582
Width: 668
Flags: W
LayerCount: 2
Fore
SplineSet
578.5 323.5 m 128,-1,1
 622 274 622 274 622 199 c 0,2,3
 622 136 622 136 591.5 90 c 128,-1,4
 561 44 561 44 507 19.5 c 128,-1,5
 453 -5 453 -5 385 -5 c 0,6,7
 318 -5 318 -5 273 11 c 1,8,-1
 285 71 l 1,9,10
 327 57 327 57 382 57 c 0,11,12
 458 57 458 57 504 95 c 128,-1,13
 550 133 550 133 550 201 c 0,14,15
 550 268 550 268 502 305.5 c 128,-1,16
 454 343 454 343 375 343 c 2,17,-1
 317 343 l 1,18,-1
 317 404 l 1,19,20
 400 405 400 405 447 445 c 128,-1,21
 494 485 494 485 494 553 c 0,22,23
 494 613 494 613 453 649 c 128,-1,24
 412 685 412 685 340 685 c 0,25,26
 260 685 260 685 215 638.5 c 128,-1,27
 170 592 170 592 170 504 c 2,28,-1
 170 0 l 1,29,-1
 99 0 l 1,30,-1
 99 498 l 2,31,32
 99 618 99 618 165.5 682.5 c 128,-1,33
 232 747 232 747 340 747 c 0,34,35
 408 747 408 747 458.5 722 c 128,-1,36
 509 697 509 697 536 654 c 128,-1,37
 563 611 563 611 563 556 c 0,38,39
 563 499 563 499 535 455.5 c 128,-1,40
 507 412 507 412 462 389 c 1,41,0
 535 373 535 373 578.5 323.5 c 128,-1,1
EndSplineSet
Substitution2: "'smcp' Lowercase to Small Capitals lookup 37 subtable" germandbls.sc
Substitution2: "'aalt' Access All Alternates lookup 0 subtable" germandbls.sc
EndChar

StartChar: longs
Encoding: 383 383 583
Width: 295
Flags: W
LayerCount: 2
Fore
SplineSet
339 738.5 m 128,-1,1
 367 730 367 730 386 714 c 1,2,-1
 361 661 l 1,3,4
 330 687 330 687 284 687 c 0,5,6
 239 687 239 687 216 662 c 128,-1,7
 193 637 193 637 193 588 c 2,8,-1
 193 0 l 1,9,-1
 122 0 l 1,10,-1
 122 466 l 1,11,-1
 28 466 l 1,12,-1
 28 526 l 1,13,-1
 122 526 l 1,14,-1
 122 591 l 2,15,16
 122 663 122 663 163.5 705 c 128,-1,17
 205 747 205 747 280 747 c 0,18,0
 311 747 311 747 339 738.5 c 128,-1,1
EndSplineSet
EndChar

StartChar: t
Encoding: 116 116 584
Width: 406
GlyphClass: 2
Flags: W
AnchorPoint: "Anchor-14" 273 742 basechar 0
AnchorPoint: "Anchor-13" 180 295 basechar 0
AnchorPoint: "Anchor-12" 147 641 basechar 0
AnchorPoint: "Anchor-11" 0 0 basechar 0
AnchorPoint: "Anchor-10" 249 0 basechar 0
LayerCount: 2
Fore
SplineSet
376 32 m 5,0,1
 356 14 356 14 326.5 4.5 c 132,-1,2
 297 -5 297 -5 265 -5 c 4,3,4
 191 -5 191 -5 151 35 c 132,-1,5
 111 75 111 75 111 148 c 6,6,-1
 111 466 l 1,7,-1
 17 466 l 1,8,-1
 17 526 l 1,9,-1
 111 526 l 1,10,-1
 111 641 l 1,11,-1
 182 641 l 1,12,-1
 182 526 l 1,13,-1
 342 526 l 1,14,-1
 342 466 l 1,15,-1
 182 466 l 1,16,-1
 182 152 l 6,17,18
 182 105 182 105 205.5 80.5 c 132,-1,19
 229 56 229 56 273 56 c 4,20,21
 295 56 295 56 315.5 63 c 132,-1,22
 336 70 336 70 351 83 c 5,23,-1
 376 32 l 5,0,1
EndSplineSet
Substitution2: "'ss01' Style Set 1 lookup 42 subtable" t.ss01
Substitution2: "'salt' Stylistic Alternatives lookup 41 subtable" t.ss01
Substitution2: "'smcp' Lowercase to Small Capitals lookup 37 subtable" t.sc
AlternateSubs2: "'aalt' Access All Alternates lookup 1 subtable" t.sc t.ss01
EndChar

StartChar: u
Encoding: 117 117 592
Width: 673
GlyphClass: 2
Flags: W
AnchorPoint: "Anchor-14" 539 526 basechar 0
AnchorPoint: "Anchor-13" 0 0 basechar 0
AnchorPoint: "Anchor-12" 334 526 basechar 0
AnchorPoint: "Anchor-11" 573 0 basechar 0
AnchorPoint: "Anchor-10" 334 0 basechar 0
LayerCount: 2
Fore
SplineSet
573 526 m 1,0,-1
 573 0 l 1,1,-1
 505 0 l 1,2,-1
 505 96 l 1,3,4
 477 48 477 48 428 21.5 c 128,-1,5
 379 -5 379 -5 316 -5 c 4,6,7
 213 -5 213 -5 153.5 52.5 c 132,-1,8
 94 110 94 110 94 221 c 6,9,-1
 94 526 l 5,10,-1
 165 526 l 5,11,-1
 165 228 l 6,12,13
 165 145 165 145 206 102 c 132,-1,14
 247 59 247 59 323 59 c 4,15,16
 406 59 406 59 454 109.5 c 128,-1,17
 502 160 502 160 502 250 c 2,18,-1
 502 526 l 1,19,-1
 573 526 l 1,0,-1
EndSplineSet
Substitution2: "'smcp' Lowercase to Small Capitals lookup 37 subtable" u.sc
Substitution2: "'aalt' Access All Alternates lookup 0 subtable" u.sc
EndChar

StartChar: v
Encoding: 118 118 616
Width: 542
GlyphClass: 2
Flags: W
AnchorPoint: "Anchor-14" 0 0 basechar 0
AnchorPoint: "Anchor-13" 0 0 basechar 0
AnchorPoint: "Anchor-12" 271 526 basechar 0
AnchorPoint: "Anchor-11" 0 0 basechar 0
AnchorPoint: "Anchor-10" 271 0 basechar 0
LayerCount: 2
Fore
SplineSet
541 526 m 5,0,-1
 307 0 l 5,1,-1
 234 0 l 5,2,-1
 1 526 l 5,3,-1
 75 526 l 5,4,-1
 272 78 l 5,5,-1
 471 526 l 5,6,-1
 541 526 l 5,0,-1
EndSplineSet
Substitution2: "'smcp' Lowercase to Small Capitals lookup 37 subtable" v.sc
Substitution2: "'aalt' Access All Alternates lookup 0 subtable" v.sc
EndChar

StartChar: w
Encoding: 119 119 617
Width: 879
GlyphClass: 2
Flags: W
AnchorPoint: "Anchor-14" 0 0 basechar 0
AnchorPoint: "Anchor-13" 0 0 basechar 0
AnchorPoint: "Anchor-12" 438 524 basechar 0
AnchorPoint: "Anchor-11" 0 0 basechar 0
AnchorPoint: "Anchor-10" 438 0 basechar 0
LayerCount: 2
Fore
SplineSet
871 526 m 1,0,-1
 672 0 l 1,1,-1
 605 0 l 1,2,-1
 439 431 l 1,3,-1
 273 0 l 1,4,-1
 206 0 l 1,5,-1
 8 526 l 1,6,-1
 76 526 l 1,7,-1
 241 79 l 1,8,-1
 410 526 l 1,9,-1
 471 526 l 1,10,-1
 639 79 l 1,11,-1
 806 526 l 1,12,-1
 871 526 l 1,0,-1
EndSplineSet
Substitution2: "'ss01' Style Set 1 lookup 42 subtable" w.ss01
Substitution2: "'salt' Stylistic Alternatives lookup 41 subtable" w.ss01
Substitution2: "'smcp' Lowercase to Small Capitals lookup 37 subtable" w.sc
AlternateSubs2: "'aalt' Access All Alternates lookup 1 subtable" w.sc w.ss01
EndChar

StartChar: x
Encoding: 120 120 622
Width: 534
Flags: W
LayerCount: 2
Fore
SplineSet
434 0 m 5,0,-1
 267 220 l 5,1,-1
 99 0 l 5,2,-1
 19 0 l 5,3,-1
 227 270 l 5,4,-1
 29 526 l 5,5,-1
 109 526 l 5,6,-1
 267 320 l 5,7,-1
 425 526 l 5,8,-1
 503 526 l 5,9,-1
 305 270 l 5,10,-1
 515 0 l 5,11,-1
 434 0 l 5,0,-1
EndSplineSet
Substitution2: "'smcp' Lowercase to Small Capitals lookup 37 subtable" x.sc
Substitution2: "'aalt' Access All Alternates lookup 0 subtable" x.sc
EndChar

StartChar: y
Encoding: 121 121 623
Width: 542
GlyphClass: 2
Flags: W
AnchorPoint: "Anchor-14" 0 0 basechar 0
AnchorPoint: "Anchor-13" 0 0 basechar 0
AnchorPoint: "Anchor-12" 257 526 basechar 0
AnchorPoint: "Anchor-11" 0 0 basechar 0
AnchorPoint: "Anchor-10" 388 0 basechar 0
LayerCount: 2
Fore
SplineSet
541 526 m 5,0,-1
 278 -63 l 6,1,2
 246 -137 246 -137 204 -168 c 132,-1,3
 162 -199 162 -199 103 -199 c 4,4,5
 65 -199 65 -199 32 -187 c 132,-1,6
 -1 -175 -1 -175 -25 -151 c 5,7,-1
 8 -98 l 5,8,9
 48 -138 48 -138 104 -138 c 4,10,11
 140 -138 140 -138 165.5 -118 c 132,-1,12
 191 -98 191 -98 213 -50 c 6,13,-1
 236 1 l 5,14,-1
 1 526 l 5,15,-1
 75 526 l 5,16,-1
 273 79 l 5,17,-1
 471 526 l 5,18,-1
 541 526 l 5,0,-1
EndSplineSet
Substitution2: "'ss01' Style Set 1 lookup 42 subtable" y.ss01
Substitution2: "'salt' Stylistic Alternatives lookup 41 subtable" y.ss01
Substitution2: "'smcp' Lowercase to Small Capitals lookup 37 subtable" y.sc
AlternateSubs2: "'aalt' Access All Alternates lookup 1 subtable" y.sc y.ss01
EndChar

StartChar: z
Encoding: 122 122 633
Width: 511
GlyphClass: 2
Flags: W
AnchorPoint: "Anchor-14" 0 0 basechar 0
AnchorPoint: "Anchor-13" 0 0 basechar 0
AnchorPoint: "Anchor-12" 256 526 basechar 0
AnchorPoint: "Anchor-11" 0 0 basechar 0
AnchorPoint: "Anchor-10" 264 0 basechar 0
LayerCount: 2
Fore
SplineSet
470 59 m 1,0,-1
 470 0 l 1,1,-1
 42 0 l 1,2,-1
 42 47 l 1,3,-1
 373 466 l 1,4,-1
 48 466 l 1,5,-1
 48 526 l 1,6,-1
 464 526 l 1,7,-1
 464 479 l 1,8,-1
 133 59 l 1,9,-1
 470 59 l 1,0,-1
EndSplineSet
Substitution2: "'ss01' Style Set 1 lookup 42 subtable" z.ss01
Substitution2: "'salt' Stylistic Alternatives lookup 41 subtable" z.ss01
Substitution2: "'smcp' Lowercase to Small Capitals lookup 37 subtable" z.sc
AlternateSubs2: "'aalt' Access All Alternates lookup 1 subtable" z.sc z.ss01
EndChar

StartChar: iacute_j.loclNLD
Encoding: 65687 -1 638
Width: 543
Flags: W
LayerCount: 2
Fore
SplineSet
213 731 m 1,0,-1
 296 731 l 1,1,-1
 134 607 l 1,2,-1
 74 607 l 1,3,-1
 213 731 l 1,0,-1
487 731 m 1,4,-1
 570 731 l 1,5,-1
 408 607 l 1,6,-1
 349 607 l 1,7,-1
 487 731 l 1,4,-1
99 526 m 1,8,-1
 170 526 l 1,9,-1
 170 0 l 1,10,-1
 99 0 l 1,11,-1
 99 526 l 1,8,-1
230 -190.5 m 128,-1,13
 200 -182 200 -182 180 -165 c 1,14,-1
 204 -111 l 1,15,16
 234 -138 234 -138 284 -138 c 0,17,18
 327 -138 327 -138 350 -112.5 c 128,-1,19
 373 -87 373 -87 373 -39 c 2,20,-1
 373 526 l 1,21,-1
 444 526 l 1,22,-1
 444 -43 l 2,23,24
 444 -115 444 -115 404.5 -157 c 128,-1,25
 365 -199 365 -199 293 -199 c 0,26,12
 260 -199 260 -199 230 -190.5 c 128,-1,13
EndSplineSet
Substitution2: "'smcp' Lowercase to Small Capitals lookup 37 subtable" iacute_j.loclNLD.sc
Ligature2: "'locl' Localized Forms in Latin lookup 8 subtable" iacute j
Substitution2: "'aalt' Access All Alternates lookup 0 subtable" iacute_j.loclNLD.sc
EndChar

StartChar: a.ss01
Encoding: 65688 -1 639
Width: 678
GlyphClass: 2
Flags: W
AnchorPoint: "Anchor-14" 0 0 basechar 0
AnchorPoint: "Anchor-13" 0 0 basechar 0
AnchorPoint: "Anchor-12" 329 526 basechar 0
AnchorPoint: "Anchor-11" 579 0 basechar 0
AnchorPoint: "Anchor-10" 329 0 basechar 0
LayerCount: 2
Fore
SplineSet
579 526 m 1,0,-1
 579 0 l 1,1,-1
 511 0 l 1,2,-1
 511 104 l 1,3,4
 479 51 479 51 426.5 23 c 128,-1,5
 374 -5 374 -5 308 -5 c 0,6,7
 234 -5 234 -5 174 29 c 128,-1,8
 114 63 114 63 80 124 c 128,-1,9
 46 185 46 185 46 263 c 256,10,11
 46 341 46 341 80 402 c 128,-1,12
 114 463 114 463 174 496.5 c 128,-1,13
 234 530 234 530 308 530 c 0,14,15
 372 530 372 530 423.5 503.5 c 128,-1,16
 475 477 475 477 508 426 c 1,17,-1
 508 526 l 1,18,-1
 579 526 l 1,0,-1
413.5 83.5 m 128,-1,20
 458 109 458 109 483.5 156 c 128,-1,21
 509 203 509 203 509 263 c 256,22,23
 509 323 509 323 483.5 370 c 128,-1,24
 458 417 458 417 413.5 442.5 c 128,-1,25
 369 468 369 468 314 468 c 0,26,27
 258 468 258 468 213.5 442.5 c 128,-1,28
 169 417 169 417 143.5 370 c 128,-1,29
 118 323 118 323 118 263 c 256,30,31
 118 203 118 203 143.5 156 c 128,-1,32
 169 109 169 109 213.5 83.5 c 128,-1,33
 258 58 258 58 314 58 c 0,34,19
 369 58 369 58 413.5 83.5 c 128,-1,20
EndSplineSet
EndChar

StartChar: ae.ss01
Encoding: 65714 -1 665
Width: 987
GlyphClass: 2
Flags: W
AnchorPoint: "Anchor-14" 0 0 basechar 0
AnchorPoint: "Anchor-13" 0 0 basechar 0
AnchorPoint: "Anchor-12" 486 526 basechar 0
AnchorPoint: "Anchor-11" 0 0 basechar 0
AnchorPoint: "Anchor-10" 0 0 basechar 0
LayerCount: 2
Fore
SplineSet
867 127 m 1,1,-1
 907 81 l 1,2,3
 833 -5 833 -5 707 -5 c 0,4,5
 631 -5 631 -5 568 26 c 128,-1,6
 505 57 505 57 467 118 c 1,7,8
 440 54 440 54 383 24.5 c 128,-1,9
 326 -5 326 -5 254 -5 c 0,10,11
 161 -5 161 -5 108 37.5 c 128,-1,12
 55 80 55 80 55 150 c 0,13,14
 55 214 55 214 103.5 255 c 128,-1,15
 152 296 152 296 258 296 c 2,16,-1
 425 296 l 1,17,-1
 425 329 l 2,18,19
 425 397 425 397 387 432.5 c 128,-1,20
 349 468 349 468 276 468 c 0,21,22
 226 468 226 468 180 451.5 c 128,-1,23
 134 435 134 435 101 406 c 1,24,-1
 69 459 l 1,25,26
 109 493 109 493 165 511.5 c 128,-1,27
 221 530 221 530 282 530 c 0,28,29
 434 530 434 530 475 422 c 1,30,31
 510 473 510 473 566 501.5 c 128,-1,32
 622 530 622 530 690 530 c 0,33,34
 760 530 760 530 816 498 c 128,-1,35
 872 466 872 466 905 408.5 c 128,-1,36
 938 351 938 351 940 278 c 1,37,-1
 506 194 l 1,38,39
 526 131 526 131 580 94.5 c 128,-1,40
 634 58 634 58 708 58 c 0,41,0
 804 58 804 58 867 127 c 1,1,-1
496 260 m 1,42,-1
 496 246 l 1,43,-1
 869 318 l 1,44,45
 857 384 857 384 808.5 426.5 c 128,-1,46
 760 469 760 469 690 469 c 0,47,48
 634 469 634 469 589.5 444 c 128,-1,49
 545 419 545 419 520.5 374 c 128,-1,50
 496 329 496 329 496 272 c 2,51,-1
 496 260 l 1,42,-1
380 91.5 m 128,-1,53
 425 132 425 132 425 201 c 2,54,-1
 425 243 l 1,55,-1
 260 243 l 2,56,57
 189 243 189 243 157 218.5 c 128,-1,58
 125 194 125 194 125 152 c 0,59,60
 125 105 125 105 160.5 78 c 128,-1,61
 196 51 196 51 259 51 c 0,62,52
 335 51 335 51 380 91.5 c 128,-1,53
EndSplineSet
EndChar

StartChar: e.ss01
Encoding: 65717 -1 668
Width: 604
GlyphClass: 2
Flags: W
AnchorPoint: "Anchor-14" 0 0 basechar 0
AnchorPoint: "Anchor-13" 0 0 basechar 0
AnchorPoint: "Anchor-12" 300 526 basechar 0
AnchorPoint: "Anchor-11" 444 0 basechar 0
AnchorPoint: "Anchor-10" 300 0 basechar 0
LayerCount: 2
Fore
SplineSet
414.5 75.5 m 128,-1,1
 456 93 456 93 485 127 c 1,2,-1
 525 81 l 1,3,4
 490 39 490 39 438 17 c 128,-1,5
 386 -5 386 -5 323 -5 c 0,6,7
 242 -5 242 -5 179 29.5 c 128,-1,8
 116 64 116 64 81 125 c 128,-1,9
 46 186 46 186 46 263 c 256,10,11
 46 340 46 340 79.5 401 c 128,-1,12
 113 462 113 462 172 496 c 128,-1,13
 231 530 231 530 306 530 c 0,14,15
 376 530 376 530 432.5 498 c 128,-1,16
 489 466 489 466 522.5 409 c 128,-1,17
 556 352 556 352 558 279 c 1,18,-1
 126 195 l 1,19,20
 146 131 146 131 198.5 94.5 c 128,-1,21
 251 58 251 58 324 58 c 0,22,0
 373 58 373 58 414.5 75.5 c 128,-1,1
207.5 443.5 m 128,-1,24
 164 418 164 418 139.5 372.5 c 128,-1,25
 115 327 115 327 115 268 c 0,26,27
 115 253 115 253 116 246 c 1,28,-1
 487 318 l 1,29,30
 475 384 475 384 426 426.5 c 128,-1,31
 377 469 377 469 306 469 c 0,32,23
 251 469 251 469 207.5 443.5 c 128,-1,24
EndSplineSet
EndChar

StartChar: eogonek.ss01
Encoding: 65738 -1 689
Width: 604
GlyphClass: 2
Flags: W
AnchorPoint: "Anchor-14" 0 0 basechar 0
AnchorPoint: "Anchor-13" 0 0 basechar 0
AnchorPoint: "Anchor-12" 308 526 basechar 0
AnchorPoint: "Anchor-11" 0 0 basechar 0
AnchorPoint: "Anchor-10" 308 0 basechar 0
LayerCount: 2
Fore
SplineSet
397 -48.5 m 128,-1,1
 373 -85 373 -85 373 -118 c 0,2,3
 373 -147 373 -147 390.5 -161.5 c 128,-1,4
 408 -176 408 -176 438 -176 c 0,5,6
 476 -176 476 -176 499 -157 c 1,7,-1
 515 -196 l 1,8,9
 481 -220 481 -220 431 -220 c 0,10,11
 380 -220 380 -220 350 -193.5 c 128,-1,12
 320 -167 320 -167 320 -122 c 0,13,14
 320 -60 320 -60 377 0 c 1,15,16
 349 -5 349 -5 323 -5 c 0,17,18
 242 -5 242 -5 179 29.5 c 128,-1,19
 116 64 116 64 81 125 c 128,-1,20
 46 186 46 186 46 263 c 256,21,22
 46 340 46 340 79.5 401 c 128,-1,23
 113 462 113 462 172 496 c 128,-1,24
 231 530 231 530 306 530 c 0,25,26
 376 530 376 530 432.5 498 c 128,-1,27
 489 466 489 466 522.5 409 c 128,-1,28
 556 352 556 352 558 279 c 1,29,-1
 126 195 l 1,30,31
 146 131 146 131 198.5 94.5 c 128,-1,32
 251 58 251 58 324 58 c 0,33,34
 373 58 373 58 414.5 75.5 c 128,-1,35
 456 93 456 93 485 127 c 1,36,-1
 525 81 l 1,37,38
 515 70 515 70 487 45 c 0,39,0
 421 -12 421 -12 397 -48.5 c 128,-1,1
207.5 443.5 m 128,-1,41
 164 418 164 418 139.5 372.5 c 128,-1,42
 115 327 115 327 115 268 c 0,43,44
 115 253 115 253 116 246 c 1,45,-1
 487 318 l 1,46,47
 475 384 475 384 426 426.5 c 128,-1,48
 377 469 377 469 306 469 c 0,49,40
 251 469 251 469 207.5 443.5 c 128,-1,41
EndSplineSet
EndChar

StartChar: f.ss01
Encoding: 65741 -1 692
Width: 327
Flags: W
LayerCount: 2
Fore
SplineSet
191.5 662 m 128,-1,1
 168 637 168 637 168 588 c 2,2,-1
 168 526 l 1,3,-1
 330 526 l 1,4,-1
 330 466 l 1,5,-1
 170 466 l 1,6,-1
 170 0 l 1,7,-1
 99 0 l 1,8,-1
 99 591 l 2,9,10
 99 663 99 663 140.5 705 c 128,-1,11
 182 747 182 747 258 747 c 0,12,13
 288 747 288 747 316 738.5 c 128,-1,14
 344 730 344 730 363 714 c 1,15,-1
 339 661 l 1,16,17
 308 687 308 687 261 687 c 0,18,0
 215 687 215 687 191.5 662 c 128,-1,1
EndSplineSet
EndChar

StartChar: l.ss01
Encoding: 65742 -1 693
Width: 309
GlyphClass: 2
Flags: W
AnchorPoint: "Anchor-14" 261 742 basechar 0
AnchorPoint: "Anchor-13" 135 356 basechar 0
AnchorPoint: "Anchor-12" 135 742 basechar 0
AnchorPoint: "Anchor-11" 0 0 basechar 0
AnchorPoint: "Anchor-10" 198 0 basechar 0
LayerCount: 2
Fore
SplineSet
137.5 35 m 128,-1,1
 99 75 99 75 99 146 c 2,2,-1
 99 742 l 1,3,-1
 170 742 l 1,4,-1
 170 152 l 2,5,6
 170 105 170 105 192 80.5 c 128,-1,7
 214 56 214 56 258 56 c 0,8,9
 286 56 286 56 306 65 c 1,10,-1
 311 6 l 1,11,12
 280 -5 280 -5 247 -5 c 0,13,0
 176 -5 176 -5 137.5 35 c 128,-1,1
EndSplineSet
EndChar

StartChar: oe.ss01
Encoding: 65751 -1 702
Width: 1084
GlyphClass: 2
Flags: W
AnchorPoint: "Anchor-14" 0 0 basechar 0
AnchorPoint: "Anchor-13" 0 0 basechar 0
AnchorPoint: "Anchor-12" 542 526 basechar 0
AnchorPoint: "Anchor-11" 0 0 basechar 0
AnchorPoint: "Anchor-10" 542 0 basechar 0
LayerCount: 2
Fore
SplineSet
890 75.5 m 128,-1,1
 933 93 933 93 963 127 c 1,2,-1
 1004 81 l 1,3,4
 968 39 968 39 914 17 c 128,-1,5
 860 -5 860 -5 794 -5 c 0,6,7
 708 -5 708 -5 643.5 31.5 c 128,-1,8
 579 68 579 68 545 132 c 1,9,10
 513 68 513 68 452.5 31.5 c 128,-1,11
 392 -5 392 -5 314 -5 c 0,12,13
 238 -5 238 -5 177 29.5 c 128,-1,14
 116 64 116 64 81 125 c 128,-1,15
 46 186 46 186 46 263 c 256,16,17
 46 340 46 340 81 401 c 128,-1,18
 116 462 116 462 177 496 c 128,-1,19
 238 530 238 530 314 530 c 0,20,21
 392 530 392 530 452 494 c 128,-1,22
 512 458 512 458 544 395 c 1,23,24
 576 458 576 458 637 494 c 128,-1,25
 698 530 698 530 777 530 c 0,26,27
 849 530 849 530 908 498 c 128,-1,28
 967 466 967 466 1001.5 408.5 c 128,-1,29
 1036 351 1036 351 1038 278 c 1,30,-1
 590 194 l 1,31,32
 610 131 610 131 665.5 94.5 c 128,-1,33
 721 58 721 58 796 58 c 0,34,0
 847 58 847 58 890 75.5 c 128,-1,1
580 260 m 1,35,-1
 580 246 l 1,36,-1
 965 318 l 1,37,38
 952 384 952 384 901.5 426.5 c 128,-1,39
 851 469 851 469 777 469 c 0,40,41
 720 469 720 469 675 444 c 128,-1,42
 630 419 630 419 605 374 c 128,-1,43
 580 329 580 329 580 272 c 2,44,-1
 580 260 l 1,35,-1
414.5 83.5 m 128,-1,46
 459 109 459 109 484 156 c 128,-1,47
 509 203 509 203 509 263 c 256,48,49
 509 323 509 323 484 370 c 128,-1,50
 459 417 459 417 414.5 442.5 c 128,-1,51
 370 468 370 468 314 468 c 256,52,53
 258 468 258 468 213.5 442.5 c 128,-1,54
 169 417 169 417 143.5 370 c 128,-1,55
 118 323 118 323 118 263 c 256,56,57
 118 203 118 203 143.5 156 c 128,-1,58
 169 109 169 109 213.5 83.5 c 128,-1,59
 258 58 258 58 314 58 c 256,60,45
 370 58 370 58 414.5 83.5 c 128,-1,46
EndSplineSet
EndChar

StartChar: t.ss01
Encoding: 65752 -1 703
Width: 388
GlyphClass: 2
Flags: W
AnchorPoint: "Anchor-14" 257 742 basechar 0
AnchorPoint: "Anchor-13" 163 295 basechar 0
AnchorPoint: "Anchor-12" 129 641 basechar 0
AnchorPoint: "Anchor-11" 0 0 basechar 0
AnchorPoint: "Anchor-10" 232 0 basechar 0
LayerCount: 2
Fore
SplineSet
358 32 m 1,0,1
 338 14 338 14 309 4.5 c 128,-1,2
 280 -5 280 -5 248 -5 c 0,3,4
 174 -5 174 -5 134 35 c 128,-1,5
 94 75 94 75 94 148 c 2,6,-1
 94 641 l 1,7,-1
 165 641 l 1,8,-1
 165 526 l 1,9,-1
 324 526 l 1,10,-1
 324 466 l 1,11,-1
 165 466 l 1,12,-1
 165 152 l 2,13,14
 165 105 165 105 188 80.5 c 128,-1,15
 211 56 211 56 255 56 c 0,16,17
 303 56 303 56 333 83 c 1,18,-1
 358 32 l 1,0,1
EndSplineSet
EndChar

StartChar: w.ss01
Encoding: 65760 -1 711
Width: 1004
GlyphClass: 2
Flags: W
AnchorPoint: "Anchor-14" 0 0 basechar 0
AnchorPoint: "Anchor-13" 0 0 basechar 0
AnchorPoint: "Anchor-12" 502 526 basechar 0
AnchorPoint: "Anchor-11" 0 0 basechar 0
AnchorPoint: "Anchor-10" 502 0 basechar 0
LayerCount: 2
Fore
SplineSet
910 526 m 1,0,-1
 910 235 l 2,1,2
 910 118 910 118 854 56.5 c 128,-1,3
 798 -5 798 -5 689 -5 c 0,4,5
 620 -5 620 -5 573.5 21.5 c 128,-1,6
 527 48 527 48 502 106 c 1,7,8
 477 49 477 49 431 22 c 128,-1,9
 385 -5 385 -5 315 -5 c 0,10,11
 206 -5 206 -5 150 56.5 c 128,-1,12
 94 118 94 118 94 235 c 2,13,-1
 94 526 l 1,14,-1
 165 526 l 1,15,-1
 165 241 l 2,16,17
 165 148 165 148 201 103.5 c 128,-1,18
 237 59 237 59 315 59 c 0,19,20
 392 59 392 59 429.5 104 c 128,-1,21
 467 149 467 149 467 243 c 2,22,-1
 467 526 l 1,23,-1
 538 526 l 1,24,-1
 538 243 l 2,25,26
 538 149 538 149 575 104 c 128,-1,27
 612 59 612 59 690 59 c 0,28,29
 766 59 766 59 802.5 103.5 c 128,-1,30
 839 148 839 148 839 241 c 2,31,-1
 839 526 l 1,32,-1
 910 526 l 1,0,-1
EndSplineSet
EndChar

StartChar: y.ss01
Encoding: 65765 -1 716
Width: 673
GlyphClass: 2
Flags: W
AnchorPoint: "Anchor-14" 0 0 basechar 0
AnchorPoint: "Anchor-13" 0 0 basechar 0
AnchorPoint: "Anchor-12" 334 526 basechar 0
AnchorPoint: "Anchor-11" 0 0 basechar 0
AnchorPoint: "Anchor-10" 653 0 basechar 0
LayerCount: 2
Fore
SplineSet
573 526 m 1,0,-1
 573 64 l 2,1,2
 573 -70 573 -70 512 -134.5 c 128,-1,3
 451 -199 451 -199 328 -199 c 0,4,5
 259 -199 259 -199 197.5 -177.5 c 128,-1,6
 136 -156 136 -156 98 -118 c 1,7,-1
 134 -64 l 1,8,9
 168 -98 168 -98 218 -117 c 128,-1,10
 268 -136 268 -136 325 -136 c 0,11,12
 416 -136 416 -136 459 -89.5 c 128,-1,13
 502 -43 502 -43 502 55 c 2,14,-1
 502 116 l 1,15,16
 474 70 474 70 425.5 45 c 128,-1,17
 377 20 377 20 316 20 c 0,18,19
 213 20 213 20 153.5 77.5 c 128,-1,20
 94 135 94 135 94 246 c 2,21,-1
 94 526 l 1,22,-1
 165 526 l 1,23,-1
 165 253 l 2,24,25
 165 170 165 170 206 127 c 128,-1,26
 247 84 247 84 323 84 c 0,27,28
 406 84 406 84 454 134.5 c 128,-1,29
 502 185 502 185 502 275 c 2,30,-1
 502 526 l 1,31,-1
 573 526 l 1,0,-1
EndSplineSet
EndChar

StartChar: z.ss01
Encoding: 65774 -1 725
Width: 521
GlyphClass: 2
Flags: W
AnchorPoint: "Anchor-14" 0 0 basechar 0
AnchorPoint: "Anchor-13" 0 0 basechar 0
AnchorPoint: "Anchor-12" 260 526 basechar 0
AnchorPoint: "Anchor-11" 0 0 basechar 0
AnchorPoint: "Anchor-10" 260 0 basechar 0
LayerCount: 2
Fore
SplineSet
475 59 m 1,0,-1
 475 0 l 1,1,-1
 47 0 l 1,2,-1
 47 47 l 1,3,-1
 197 237 l 1,4,-1
 88 237 l 1,5,-1
 88 294 l 1,6,-1
 242 294 l 1,7,-1
 378 466 l 1,8,-1
 53 466 l 1,9,-1
 53 526 l 1,10,-1
 469 526 l 1,11,-1
 469 479 l 1,12,-1
 323 294 l 1,13,-1
 434 294 l 1,14,-1
 434 237 l 1,15,-1
 278 237 l 1,16,-1
 138 59 l 1,17,-1
 475 59 l 1,0,-1
EndSplineSet
EndChar

StartChar: T_h
Encoding: 65779 -1 730
Width: 1184
Flags: W
LayerCount: 2
Fore
SplineSet
1031.5 472.5 m 128,-1,1
 1090 415 1090 415 1090 305 c 2,2,-1
 1090 0 l 1,3,-1
 1019 0 l 1,4,-1
 1019 298 l 2,5,6
 1019 380 1019 380 978 423 c 128,-1,7
 937 466 937 466 861 466 c 0,8,9
 776 466 776 466 726.5 415.5 c 128,-1,10
 677 365 677 365 677 276 c 2,11,-1
 677 0 l 1,12,-1
 606 0 l 1,13,-1
 606 636 l 1,14,-1
 324 636 l 1,15,-1
 324 0 l 1,16,-1
 250 0 l 1,17,-1
 250 636 l 1,18,-1
 4 636 l 1,19,-1
 4 700 l 1,20,-1
 677 700 l 1,21,-1
 677 434 l 1,22,23
 706 480 706 480 757 505 c 128,-1,24
 808 530 808 530 874 530 c 0,25,0
 973 530 973 530 1031.5 472.5 c 128,-1,1
EndSplineSet
Ligature2: "'dlig' Discretionary Ligatures lookup 39 subtable" T h
EndChar

StartChar: fl.ss01
Encoding: 65781 -1 734
Width: 623
Flags: W
LayerCount: 2
Fore
SplineSet
625 -94 m 1,0,1
 594 -105 594 -105 561 -105 c 0,2,3
 490 -105 490 -105 451.5 -65.5 c 128,-1,4
 413 -26 413 -26 413 45 c 2,5,-1
 413 555 l 2,6,7
 413 620 413 620 383.5 653 c 128,-1,8
 354 686 354 686 298 686 c 256,9,10
 242 686 242 686 212 653 c 128,-1,11
 182 620 182 620 182 555 c 2,12,-1
 182 526 l 1,13,-1
 342 526 l 1,14,-1
 342 466 l 1,15,-1
 182 466 l 1,16,-1
 182 0 l 1,17,-1
 111 0 l 1,18,-1
 111 466 l 1,19,-1
 17 466 l 1,20,-1
 17 526 l 1,21,-1
 111 526 l 1,22,-1
 111 547 l 2,23,24
 111 644 111 644 161 695.5 c 128,-1,25
 211 747 211 747 298 747 c 0,26,27
 388 747 388 747 436 696 c 128,-1,28
 484 645 484 645 484 547 c 2,29,-1
 484 52 l 2,30,31
 484 -44 484 -44 572 -44 c 0,32,33
 600 -44 600 -44 620 -35 c 1,34,-1
 625 -94 l 1,0,1
EndSplineSet
EndChar

StartChar: a.sc
Encoding: 65782 -1 735
Width: 598
GlyphClass: 2
Flags: W
AnchorPoint: "Anchor-14" 0 0 basechar 0
AnchorPoint: "Anchor-13" 0 0 basechar 0
AnchorPoint: "Anchor-12" 299 565 basechar 0
AnchorPoint: "Anchor-11" 595 0 basechar 0
AnchorPoint: "Anchor-10" 299 0 basechar 0
LayerCount: 2
Fore
SplineSet
457 146 m 1,0,-1
 140 146 l 1,1,-1
 74 0 l 1,2,-1
 2 0 l 1,3,-1
 263 565 l 1,4,-1
 334 565 l 1,5,-1
 595 0 l 1,6,-1
 523 0 l 1,7,-1
 457 146 l 1,0,-1
431 204 m 1,8,-1
 299 497 l 1,9,-1
 166 204 l 1,10,-1
 431 204 l 1,8,-1
EndSplineSet
Substitution2: "'ss01' Style Set 1 lookup 42 subtable" a.sc.ss01
Substitution2: "'salt' Stylistic Alternatives lookup 41 subtable" a.sc.ss01
Substitution2: "'aalt' Access All Alternates lookup 0 subtable" a.sc.ss01
EndChar

StartChar: ae.sc
Encoding: 65808 -1 761
Width: 857
GlyphClass: 2
Flags: W
AnchorPoint: "Anchor-14" 0 0 basechar 0
AnchorPoint: "Anchor-13" 0 0 basechar 0
AnchorPoint: "Anchor-12" 432 565 basechar 0
AnchorPoint: "Anchor-11" 0 0 basechar 0
AnchorPoint: "Anchor-10" 432 0 basechar 0
LayerCount: 2
Fore
SplineSet
807 60 m 1,0,-1
 807 0 l 1,1,-1
 396 0 l 1,2,-1
 396 146 l 1,3,-1
 165 146 l 1,4,-1
 77 0 l 1,5,-1
 2 0 l 1,6,-1
 346 565 l 1,7,-1
 795 565 l 1,8,-1
 795 505 l 1,9,-1
 468 505 l 1,10,-1
 468 316 l 1,11,-1
 759 316 l 1,12,-1
 759 257 l 1,13,-1
 468 257 l 1,14,-1
 468 60 l 1,15,-1
 807 60 l 1,0,-1
396 204 m 1,16,-1
 396 505 l 1,17,-1
 382 505 l 1,18,-1
 200 204 l 1,19,-1
 396 204 l 1,16,-1
EndSplineSet
Substitution2: "'ss01' Style Set 1 lookup 42 subtable" ae.sc.ss01
Substitution2: "'salt' Stylistic Alternatives lookup 41 subtable" ae.sc.ss01
Substitution2: "'aalt' Access All Alternates lookup 0 subtable" ae.sc.ss01
EndChar

StartChar: b.sc
Encoding: 65810 -1 763
Width: 638
GlyphClass: 2
Flags: W
AnchorPoint: "Anchor-14" 0 0 basechar 0
AnchorPoint: "Anchor-13" 0 0 basechar 0
AnchorPoint: "Anchor-12" 326 565 basechar 0
AnchorPoint: "Anchor-11" 0 0 basechar 0
AnchorPoint: "Anchor-10" 326 0 basechar 0
LayerCount: 2
Fore
SplineSet
562.5 243.5 m 128,-1,1
 592 208 592 208 592 152 c 0,2,3
 592 79 592 79 536.5 39.5 c 128,-1,4
 481 0 481 0 373 0 c 2,5,-1
 105 0 l 1,6,-1
 105 565 l 1,7,-1
 357 565 l 2,8,9
 454 565 454 565 507.5 527 c 128,-1,10
 561 489 561 489 561 420 c 0,11,12
 561 374 561 374 539 341.5 c 128,-1,13
 517 309 517 309 477 292 c 1,14,0
 533 279 533 279 562.5 243.5 c 128,-1,1
177 509 m 1,15,-1
 177 314 l 1,16,-1
 351 314 l 2,17,18
 418 314 418 314 454 339 c 128,-1,19
 490 364 490 364 490 412 c 256,20,21
 490 460 490 460 454 484.5 c 128,-1,22
 418 509 418 509 351 509 c 2,23,-1
 177 509 l 1,15,-1
519 157 m 0,25,26
 519 209 519 209 481.5 233.5 c 128,-1,27
 444 258 444 258 370 258 c 2,28,-1
 177 258 l 1,29,-1
 177 56 l 1,30,-1
 370 56 l 2,31,24
 519 56 519 56 519 157 c 0,25,26
EndSplineSet
EndChar

StartChar: c.sc
Encoding: 65811 -1 764
Width: 602
GlyphClass: 2
Flags: W
AnchorPoint: "Anchor-14" 0 0 basechar 0
AnchorPoint: "Anchor-13" 0 0 basechar 0
AnchorPoint: "Anchor-12" 344 566 basechar 0
AnchorPoint: "Anchor-11" 0 0 basechar 0
AnchorPoint: "Anchor-10" 337 0 basechar 0
LayerCount: 2
Fore
SplineSet
196 31.5 m 128,-1,1
 127 69 127 69 87.5 135 c 128,-1,2
 48 201 48 201 48 283 c 0,3,4
 48 364 48 364 87.5 430 c 128,-1,5
 127 496 127 496 196 534 c 128,-1,6
 265 572 265 572 350 572 c 0,7,8
 489 572 489 572 565 488 c 1,9,-1
 519 441 l 1,10,11
 452 509 452 509 352 509 c 0,12,13
 286 509 286 509 233 479.5 c 128,-1,14
 180 450 180 450 150 398.5 c 128,-1,15
 120 347 120 347 120 283 c 256,16,17
 120 219 120 219 150 167.5 c 128,-1,18
 180 116 180 116 233 86.5 c 128,-1,19
 286 57 286 57 352 57 c 0,20,21
 454 57 454 57 519 125 c 1,22,-1
 565 78 l 1,23,24
 488 -6 488 -6 350 -6 c 0,25,0
 265 -6 265 -6 196 31.5 c 128,-1,1
EndSplineSet
EndChar

StartChar: d.sc
Encoding: 65818 -1 771
Width: 699
GlyphClass: 2
Flags: W
AnchorPoint: "Anchor-14" 0 0 basechar 0
AnchorPoint: "Anchor-13" 181 287 basechar 0
AnchorPoint: "Anchor-12" 327 565 basechar 0
AnchorPoint: "Anchor-11" 0 0 basechar 0
AnchorPoint: "Anchor-10" 331 0 basechar 0
LayerCount: 2
Fore
SplineSet
105 565 m 1,0,-1
 342 565 l 2,1,2
 436 565 436 565 506 529.5 c 128,-1,3
 576 494 576 494 613.5 430.5 c 128,-1,4
 651 367 651 367 651 283 c 256,5,6
 651 199 651 199 613.5 135 c 128,-1,7
 576 71 576 71 506 35.5 c 128,-1,8
 436 0 436 0 342 0 c 2,9,-1
 105 0 l 1,10,-1
 105 565 l 1,0,-1
339 60 m 2,11,12
 452 60 452 60 515.5 120.5 c 128,-1,13
 579 181 579 181 579 283 c 0,14,15
 579 384 579 384 515.5 444.5 c 128,-1,16
 452 505 452 505 339 505 c 2,17,-1
 177 505 l 1,18,-1
 177 60 l 1,19,-1
 339 60 l 2,11,12
EndSplineSet
EndChar

StartChar: e.sc
Encoding: 65825 -1 778
Width: 566
GlyphClass: 2
Flags: W
AnchorPoint: "Anchor-14" 0 0 basechar 0
AnchorPoint: "Anchor-13" 0 0 basechar 0
AnchorPoint: "Anchor-12" 305 565 basechar 0
AnchorPoint: "Anchor-11" 516 0 basechar 0
AnchorPoint: "Anchor-10" 315 0 basechar 0
LayerCount: 2
Fore
SplineSet
516 60 m 1,0,-1
 516 0 l 1,1,-1
 105 0 l 1,2,-1
 105 565 l 1,3,-1
 504 565 l 1,4,-1
 504 505 l 1,5,-1
 177 505 l 1,6,-1
 177 316 l 1,7,-1
 469 316 l 1,8,-1
 469 257 l 1,9,-1
 177 257 l 1,10,-1
 177 60 l 1,11,-1
 516 60 l 1,0,-1
EndSplineSet
Substitution2: "'ss01' Style Set 1 lookup 42 subtable" e.sc.ss01
Substitution2: "'salt' Stylistic Alternatives lookup 41 subtable" e.sc.ss01
Substitution2: "'aalt' Access All Alternates lookup 0 subtable" e.sc.ss01
EndChar

StartChar: uni0259.sc
Encoding: 65848 -1 801
Width: 664
GlyphClass: 2
Flags: W
AnchorPoint: "Anchor-14" 0 0 basechar 0
AnchorPoint: "Anchor-13" 0 0 basechar 0
AnchorPoint: "Anchor-12" 332 565 basechar 0
AnchorPoint: "Anchor-11" 0 0 basechar 0
AnchorPoint: "Anchor-10" 332 0 basechar 0
LayerCount: 2
Fore
SplineSet
472.5 534 m 128,-1,1
 539 496 539 496 577 430 c 128,-1,2
 615 364 615 364 615 283 c 0,3,4
 615 203 615 203 578 136.5 c 128,-1,5
 541 70 541 70 476.5 32 c 128,-1,6
 412 -6 412 -6 332 -6 c 0,7,8
 251 -6 251 -6 186 31.5 c 128,-1,9
 121 69 121 69 84.5 136 c 128,-1,10
 48 203 48 203 48 286 c 2,11,-1
 48 308 l 1,12,-1
 544 308 l 1,13,14
 539 365 539 365 509 411 c 128,-1,15
 479 457 479 457 430 483 c 128,-1,16
 381 509 381 509 322 509 c 0,17,18
 226 509 226 509 157 450 c 1,19,-1
 120 500 l 1,20,21
 158 535 158 535 211 553.5 c 128,-1,22
 264 572 264 572 325 572 c 0,23,0
 406 572 406 572 472.5 534 c 128,-1,1
435 79.5 m 128,-1,25
 481 104 481 104 509.5 148.5 c 128,-1,26
 538 193 538 193 544 250 c 1,27,-1
 120 250 l 1,28,29
 130 162 130 162 188 108.5 c 128,-1,30
 246 55 246 55 333 55 c 0,31,24
 389 55 389 55 435 79.5 c 128,-1,25
EndSplineSet
Substitution2: "'ss01' Style Set 1 lookup 42 subtable" uni0259.sc.ss01
Substitution2: "'salt' Stylistic Alternatives lookup 41 subtable" uni0259.sc.ss01
Substitution2: "'aalt' Access All Alternates lookup 0 subtable" uni0259.sc.ss01
EndChar

StartChar: uni0292.sc
Encoding: 65849 -1 802
Width: 556
GlyphClass: 2
Flags: W
AnchorPoint: "Anchor-14" 0 0 basechar 0
AnchorPoint: "Anchor-13" 0 0 basechar 0
AnchorPoint: "Anchor-12" 269 565 basechar 0
AnchorPoint: "Anchor-11" 0 0 basechar 0
AnchorPoint: "Anchor-10" 269 0 basechar 0
LayerCount: 2
Fore
SplineSet
444.5 277 m 128,-1,1
 497 234 497 234 497 164 c 0,2,3
 497 89 497 89 437 41.5 c 128,-1,4
 377 -6 377 -6 266 -6 c 0,5,6
 197 -6 197 -6 136 13 c 128,-1,7
 75 32 75 32 40 64 c 1,8,-1
 68 119 l 1,9,10
 99 90 99 90 151 73 c 128,-1,11
 203 56 203 56 264 56 c 0,12,13
 341 56 341 56 383 84.5 c 128,-1,14
 425 113 425 113 425 164 c 0,15,16
 425 214 425 214 383 242 c 128,-1,17
 341 270 341 270 257 270 c 2,18,-1
 211 270 l 1,19,-1
 211 318 l 1,20,-1
 384 505 l 1,21,-1
 62 505 l 1,22,-1
 62 565 l 1,23,-1
 470 565 l 1,24,-1
 470 517 l 1,25,-1
 292 324 l 1,26,0
 392 320 392 320 444.5 277 c 128,-1,1
EndSplineSet
EndChar

StartChar: f.sc
Encoding: 65851 -1 804
Width: 540
Flags: W
LayerCount: 2
Fore
SplineSet
177 505 m 1,0,-1
 177 295 l 1,1,-1
 469 295 l 1,2,-1
 469 234 l 1,3,-1
 177 234 l 1,4,-1
 177 0 l 1,5,-1
 105 0 l 1,6,-1
 105 565 l 1,7,-1
 504 565 l 1,8,-1
 504 505 l 1,9,-1
 177 505 l 1,0,-1
EndSplineSet
Substitution2: "'ss01' Style Set 1 lookup 42 subtable" f.sc.ss01
Substitution2: "'salt' Stylistic Alternatives lookup 41 subtable" f.sc.ss01
Substitution2: "'aalt' Access All Alternates lookup 0 subtable" f.sc.ss01
EndChar

StartChar: g.sc
Encoding: 65852 -1 805
Width: 652
GlyphClass: 2
Flags: W
AnchorPoint: "Anchor-14" 0 0 basechar 0
AnchorPoint: "Anchor-13" 0 0 basechar 0
AnchorPoint: "Anchor-12" 343 566 basechar 0
AnchorPoint: "Anchor-11" 0 0 basechar 0
AnchorPoint: "Anchor-10" 339 0 basechar 0
LayerCount: 2
Fore
SplineSet
497 283 m 1,0,-1
 566 283 l 1,1,-1
 566 66 l 1,2,3
 527 31 527 31 471.5 12.5 c 128,-1,4
 416 -6 416 -6 355 -6 c 0,5,6
 268 -6 268 -6 198 31.5 c 128,-1,7
 128 69 128 69 88 135 c 128,-1,8
 48 201 48 201 48 283 c 0,9,10
 48 364 48 364 87.5 430 c 128,-1,11
 127 496 127 496 196.5 534 c 128,-1,12
 266 572 266 572 352 572 c 0,13,14
 494 572 494 572 570 488 c 1,15,-1
 524 441 l 1,16,17
 456 509 456 509 353 509 c 0,18,19
 287 509 287 509 234 479.5 c 128,-1,20
 181 450 181 450 150.5 398.5 c 128,-1,21
 120 347 120 347 120 283 c 256,22,23
 120 219 120 219 150.5 167.5 c 128,-1,24
 181 116 181 116 234.5 86.5 c 128,-1,25
 288 57 288 57 356 57 c 0,26,27
 438 57 438 57 497 97 c 1,28,-1
 497 283 l 1,0,-1
EndSplineSet
Substitution2: "'ss01' Style Set 1 lookup 42 subtable" g.sc.ss01
Substitution2: "'salt' Stylistic Alternatives lookup 41 subtable" g.sc.ss01
Substitution2: "'aalt' Access All Alternates lookup 0 subtable" g.sc.ss01
EndChar

StartChar: h.sc
Encoding: 65860 -1 813
Width: 697
GlyphClass: 2
Flags: W
AnchorPoint: "Anchor-14" 0 0 basechar 0
AnchorPoint: "Anchor-13" 348 445 basechar 0
AnchorPoint: "Anchor-12" 348 565 basechar 0
AnchorPoint: "Anchor-11" 0 0 basechar 0
AnchorPoint: "Anchor-10" 348 0 basechar 0
LayerCount: 2
Fore
SplineSet
105 565 m 1,0,-1
 177 565 l 1,1,-1
 177 317 l 1,2,-1
 520 317 l 1,3,-1
 520 565 l 1,4,-1
 592 565 l 1,5,-1
 592 0 l 1,6,-1
 520 0 l 1,7,-1
 520 256 l 1,8,-1
 177 256 l 1,9,-1
 177 0 l 1,10,-1
 105 0 l 1,11,-1
 105 565 l 1,0,-1
EndSplineSet
EndChar

StartChar: i.sc
Encoding: 65866 -1 819
Width: 282
GlyphClass: 2
Flags: W
AnchorPoint: "Anchor-14" 0 0 basechar 0
AnchorPoint: "Anchor-13" 0 0 basechar 0
AnchorPoint: "Anchor-12" 141 565 basechar 0
AnchorPoint: "Anchor-11" 177 0 basechar 0
AnchorPoint: "Anchor-10" 141 0 basechar 0
LayerCount: 2
Fore
SplineSet
105 565 m 1,0,-1
 177 565 l 1,1,-1
 177 0 l 1,2,-1
 105 0 l 1,3,-1
 105 565 l 1,0,-1
EndSplineSet
Substitution2: "'ss01' Style Set 1 lookup 42 subtable" i.sc.ss01
Substitution2: "'salt' Stylistic Alternatives lookup 41 subtable" i.sc.ss01
Substitution2: "'aalt' Access All Alternates lookup 0 subtable" i.sc.ss01
EndChar

StartChar: iacute_j.loclNLD.sc
Encoding: 65869 -1 822
Width: 588
Flags: W
LayerCount: 2
Fore
SplineSet
215 771 m 1,0,-1
 298 771 l 1,1,-1
 137 647 l 1,2,-1
 77 647 l 1,3,-1
 215 771 l 1,0,-1
563 771 m 1,4,-1
 647 771 l 1,5,-1
 485 647 l 1,6,-1
 426 647 l 1,7,-1
 563 771 l 1,4,-1
75 53 m 1,9,-1
 104 110 l 1,10,11
 137 85 137 85 178 71.5 c 128,-1,12
 219 58 219 58 263 58 c 0,13,14
 344 58 344 58 388 104 c 128,-1,15
 432 150 432 150 432 243 c 2,16,-1
 432 565 l 1,17,-1
 504 565 l 1,18,-1
 504 247 l 2,19,20
 504 124 504 124 440.5 59.5 c 128,-1,21
 377 -5 377 -5 266 -5 c 0,22,8
 156 -5 156 -5 75 53 c 1,9,-1
84 565 m 1,23,-1
 156 565 l 1,24,-1
 156 247 l 1,25,-1
 84 247 l 1,26,-1
 84 565 l 1,23,-1
EndSplineSet
Substitution2: "'ss01' Style Set 1 lookup 42 subtable" iacute_j.loclNLD.sc.ss01
Substitution2: "'salt' Stylistic Alternatives lookup 41 subtable" iacute_j.loclNLD.sc.ss01
Substitution2: "'aalt' Access All Alternates lookup 0 subtable" iacute_j.loclNLD.sc.ss01
EndChar

StartChar: ij.sc
Encoding: 65880 -1 833
Width: 619
GlyphClass: 2
Flags: W
AnchorPoint: "Anchor-14" 0 0 basechar 0
AnchorPoint: "Anchor-13" 0 0 basechar 0
AnchorPoint: "Anchor-12" 147 565 basechar 0
AnchorPoint: "Anchor-11" 0 0 basechar 0
AnchorPoint: "Anchor-10" 0 0 basechar 0
LayerCount: 2
Fore
SplineSet
175 10.5 m 128,-1,1
 125 26 125 26 89 53 c 1,2,-1
 120 110 l 1,3,4
 189 58 189 58 281 58 c 0,5,6
 361 58 361 58 404.5 104 c 128,-1,7
 448 150 448 150 448 243 c 2,8,-1
 448 565 l 1,9,-1
 520 565 l 1,10,-1
 520 247 l 2,11,12
 520 124 520 124 456.5 59.5 c 128,-1,13
 393 -5 393 -5 282 -5 c 0,14,0
 225 -5 225 -5 175 10.5 c 128,-1,1
100 565 m 1,15,-1
 172 565 l 1,16,-1
 172 247 l 1,17,-1
 100 247 l 1,18,-1
 100 565 l 1,15,-1
EndSplineSet
Substitution2: "'ss01' Style Set 1 lookup 42 subtable" ij.sc.ss01
Substitution2: "'salt' Stylistic Alternatives lookup 41 subtable" ij.sc.ss01
Substitution2: "'aalt' Access All Alternates lookup 0 subtable" ij.sc.ss01
EndChar

StartChar: j.sc
Encoding: 65884 -1 837
Width: 436
GlyphClass: 2
Flags: W
AnchorPoint: "Anchor-14" 0 0 basechar 0
AnchorPoint: "Anchor-13" 0 0 basechar 0
AnchorPoint: "Anchor-12" 198 565 basechar 0
AnchorPoint: "Anchor-11" 0 0 basechar 0
AnchorPoint: "Anchor-10" 0 0 basechar 0
LayerCount: 2
Fore
SplineSet
69.5 15.5 m 128,-1,1
 26 37 26 37 1 76 c 1,2,-1
 46 121 l 1,3,4
 92 56 92 56 164 56 c 0,5,6
 216 56 216 56 241 85.5 c 128,-1,7
 266 115 266 115 266 176 c 2,8,-1
 266 505 l 1,9,-1
 58 505 l 1,10,-1
 58 565 l 1,11,-1
 337 565 l 1,12,-1
 337 181 l 2,13,14
 337 -6 337 -6 165 -6 c 0,15,0
 113 -6 113 -6 69.5 15.5 c 128,-1,1
EndSplineSet
Substitution2: "'ss01' Style Set 1 lookup 42 subtable" j.sc.ss01
Substitution2: "'salt' Stylistic Alternatives lookup 41 subtable" j.sc.ss01
Substitution2: "'aalt' Access All Alternates lookup 0 subtable" j.sc.ss01
EndChar

StartChar: k.sc
Encoding: 65886 -1 839
Width: 609
GlyphClass: 2
Flags: W
AnchorPoint: "Anchor-14" 0 0 basechar 0
AnchorPoint: "Anchor-13" 0 0 basechar 0
AnchorPoint: "Anchor-12" 322 565 basechar 0
AnchorPoint: "Anchor-11" 0 0 basechar 0
AnchorPoint: "Anchor-10" 322 0 basechar 0
LayerCount: 2
Fore
SplineSet
287 258 m 1,0,-1
 177 148 l 1,1,-1
 177 0 l 1,2,-1
 105 0 l 1,3,-1
 105 565 l 1,4,-1
 177 565 l 1,5,-1
 177 237 l 1,6,-1
 501 565 l 1,7,-1
 582 565 l 1,8,-1
 336 309 l 1,9,-1
 599 0 l 1,10,-1
 513 0 l 1,11,-1
 287 258 l 1,0,-1
EndSplineSet
EndChar

StartChar: l.sc
Encoding: 65890 -1 843
Width: 500
GlyphClass: 2
Flags: W
AnchorPoint: "Anchor-14" 374 565 basechar 0
AnchorPoint: "Anchor-13" 141 302 basechar 0
AnchorPoint: "Anchor-12" 141 565 basechar 0
AnchorPoint: "Anchor-11" 0 0 basechar 0
AnchorPoint: "Anchor-10" 308 0 basechar 0
LayerCount: 2
Fore
SplineSet
105 565 m 1,0,-1
 177 565 l 1,1,-1
 177 60 l 1,2,-1
 492 60 l 1,3,-1
 492 0 l 1,4,-1
 105 0 l 1,5,-1
 105 565 l 1,0,-1
EndSplineSet
EndChar

StartChar: m.sc
Encoding: 65899 -1 852
Width: 814
GlyphClass: 2
Flags: W
AnchorPoint: "Anchor-14" 0 0 basechar 0
AnchorPoint: "Anchor-13" 0 0 basechar 0
AnchorPoint: "Anchor-12" 407 565 basechar 0
AnchorPoint: "Anchor-11" 0 0 basechar 0
AnchorPoint: "Anchor-10" 407 0 basechar 0
LayerCount: 2
Fore
SplineSet
639 0 m 1,0,-1
 639 435 l 1,1,-1
 423 71 l 1,2,-1
 390 71 l 1,3,-1
 174 429 l 1,4,-1
 174 0 l 1,5,-1
 105 0 l 1,6,-1
 105 565 l 1,7,-1
 167 565 l 1,8,-1
 407 160 l 1,9,-1
 646 565 l 1,10,-1
 708 565 l 1,11,-1
 709 0 l 1,12,-1
 639 0 l 1,0,-1
EndSplineSet
Substitution2: "'ss01' Style Set 1 lookup 42 subtable" m.sc.ss01
Substitution2: "'salt' Stylistic Alternatives lookup 41 subtable" m.sc.ss01
Substitution2: "'aalt' Access All Alternates lookup 0 subtable" m.sc.ss01
EndChar

StartChar: n.sc
Encoding: 65901 -1 854
Width: 697
GlyphClass: 2
Flags: W
AnchorPoint: "Anchor-14" 0 0 basechar 0
AnchorPoint: "Anchor-13" 0 0 basechar 0
AnchorPoint: "Anchor-12" 348 565 basechar 0
AnchorPoint: "Anchor-11" 0 0 basechar 0
AnchorPoint: "Anchor-10" 348 0 basechar 0
LayerCount: 2
Fore
SplineSet
592 565 m 1,0,-1
 592 0 l 1,1,-1
 532 0 l 1,2,-1
 177 441 l 1,3,-1
 177 0 l 1,4,-1
 105 0 l 1,5,-1
 105 565 l 1,6,-1
 165 565 l 1,7,-1
 520 124 l 1,8,-1
 520 565 l 1,9,-1
 592 565 l 1,0,-1
EndSplineSet
Substitution2: "'ss01' Style Set 1 lookup 42 subtable" n.sc.ss01
Substitution2: "'salt' Stylistic Alternatives lookup 41 subtable" n.sc.ss01
Substitution2: "'aalt' Access All Alternates lookup 0 subtable" n.sc.ss01
EndChar

StartChar: eng.sc
Encoding: 65907 -1 860
Width: 697
Flags: W
LayerCount: 2
Fore
SplineSet
592 565 m 1,0,-1
 592 37 l 2,1,2
 592 -62 592 -62 549.5 -111.5 c 128,-1,3
 507 -161 507 -161 427 -161 c 0,4,5
 351 -161 351 -161 298 -122 c 1,6,-1
 328 -67 l 1,7,8
 346 -83 346 -83 371 -91.5 c 128,-1,9
 396 -100 396 -100 423 -100 c 0,10,11
 472 -100 472 -100 495.5 -72 c 128,-1,12
 519 -44 519 -44 520 15 c 1,13,-1
 177 441 l 1,14,-1
 177 0 l 1,15,-1
 105 0 l 1,16,-1
 105 565 l 1,17,-1
 165 565 l 1,18,-1
 520 124 l 1,19,-1
 520 565 l 1,20,-1
 592 565 l 1,0,-1
EndSplineSet
Substitution2: "'ss01' Style Set 1 lookup 42 subtable" eng.sc.ss01
Substitution2: "'salt' Stylistic Alternatives lookup 41 subtable" eng.sc.ss01
Substitution2: "'aalt' Access All Alternates lookup 0 subtable" eng.sc.ss01
EndChar

StartChar: o.sc
Encoding: 65911 -1 864
Width: 702
GlyphClass: 2
Flags: W
AnchorPoint: "Anchor-14" 533 565 basechar 0
AnchorPoint: "Anchor-13" 351 283 basechar 0
AnchorPoint: "Anchor-12" 351 565 basechar 0
AnchorPoint: "Anchor-11" 412 0 basechar 0
AnchorPoint: "Anchor-10" 351 0 basechar 0
LayerCount: 2
Fore
SplineSet
196.5 31.5 m 128,-1,1
 127 69 127 69 87.5 135 c 128,-1,2
 48 201 48 201 48 283 c 0,3,4
 48 364 48 364 87.5 430 c 128,-1,5
 127 496 127 496 196.5 534 c 128,-1,6
 266 572 266 572 351 572 c 0,7,8
 437 572 437 572 506 534.5 c 128,-1,9
 575 497 575 497 614.5 430.5 c 128,-1,10
 654 364 654 364 654 283 c 0,11,12
 654 201 654 201 614.5 135 c 128,-1,13
 575 69 575 69 506 31.5 c 128,-1,14
 437 -6 437 -6 351 -6 c 0,15,0
 266 -6 266 -6 196.5 31.5 c 128,-1,1
469 85.5 m 128,-1,17
 522 115 522 115 552 166.5 c 128,-1,18
 582 218 582 218 582 282 c 0,19,20
 582 347 582 347 552 398.5 c 128,-1,21
 522 450 522 450 469 479.5 c 128,-1,22
 416 509 416 509 351 509 c 256,23,24
 286 509 286 509 233 479.5 c 128,-1,25
 180 450 180 450 150 398.5 c 128,-1,26
 120 347 120 347 120 282 c 0,27,28
 120 218 120 218 150 166.5 c 128,-1,29
 180 115 180 115 233 85.5 c 128,-1,30
 286 56 286 56 351 56 c 256,31,16
 416 56 416 56 469 85.5 c 128,-1,17
EndSplineSet
EndChar

StartChar: ohorn.sc
Encoding: 65927 -1 880
Width: 702
GlyphClass: 2
Flags: W
AnchorPoint: "Anchor-14" 0 0 basechar 0
AnchorPoint: "Anchor-13" 0 0 basechar 0
AnchorPoint: "Anchor-12" 351 565 basechar 0
AnchorPoint: "Anchor-11" 0 0 basechar 0
AnchorPoint: "Anchor-10" 351 0 basechar 0
LayerCount: 2
Fore
SplineSet
623 413.5 m 128,-1,1
 654 353 654 353 654 283 c 0,2,3
 654 201 654 201 614.5 135 c 128,-1,4
 575 69 575 69 506 31.5 c 128,-1,5
 437 -6 437 -6 351 -6 c 0,6,7
 266 -6 266 -6 196.5 31.5 c 128,-1,8
 127 69 127 69 87.5 135 c 128,-1,9
 48 201 48 201 48 283 c 0,10,11
 48 364 48 364 87.5 430 c 128,-1,12
 127 496 127 496 196.5 534 c 128,-1,13
 266 572 266 572 351 572 c 0,14,15
 389 572 389 572 441 566 c 0,16,17
 481 561 481 561 513 561 c 0,18,19
 602 561 602 561 602 633 c 0,20,21
 602 664 602 664 582 697 c 1,22,-1
 629 715 l 1,23,24
 641 698 641 698 648 675.5 c 128,-1,25
 655 653 655 653 655 631 c 0,26,27
 655 578 655 578 625.5 547.5 c 128,-1,28
 596 517 596 517 538 513 c 1,29,0
 592 474 592 474 623 413.5 c 128,-1,1
469 85.5 m 128,-1,31
 522 115 522 115 552 166.5 c 128,-1,32
 582 218 582 218 582 282 c 256,33,34
 582 346 582 346 552.5 397.5 c 128,-1,35
 523 449 523 449 472 479 c 128,-1,36
 421 509 421 509 357 509 c 0,37,38
 290 509 290 509 236 480 c 128,-1,39
 182 451 182 451 151 399 c 128,-1,40
 120 347 120 347 120 282 c 0,41,42
 120 218 120 218 150 166.5 c 128,-1,43
 180 115 180 115 233 85.5 c 128,-1,44
 286 56 286 56 351 56 c 256,45,30
 416 56 416 56 469 85.5 c 128,-1,31
EndSplineSet
EndChar

StartChar: uni01EB.sc
Encoding: 65938 -1 891
Width: 702
GlyphClass: 2
Flags: W
AnchorPoint: "Anchor-14" 0 0 basechar 0
AnchorPoint: "Anchor-13" 0 0 basechar 0
AnchorPoint: "Anchor-12" 351 565 basechar 0
AnchorPoint: "Anchor-11" 0 0 basechar 0
AnchorPoint: "Anchor-10" 0 0 basechar 0
LayerCount: 2
Fore
SplineSet
506 534.5 m 128,-1,1
 575 497 575 497 614.5 430.5 c 128,-1,2
 654 364 654 364 654 283 c 0,3,4
 654 187 654 187 602.5 115.5 c 128,-1,5
 551 44 551 44 467 14 c 0,6,7
 397 -11 397 -11 359 -45 c 128,-1,8
 321 -79 321 -79 321 -120 c 0,9,10
 321 -147 321 -147 339 -161.5 c 128,-1,11
 357 -176 357 -176 387 -176 c 0,12,13
 425 -176 425 -176 448 -157 c 1,14,-1
 464 -196 l 1,15,16
 428 -220 428 -220 379 -220 c 0,17,18
 329 -220 329 -220 299 -194 c 128,-1,19
 269 -168 269 -168 269 -125 c 0,20,21
 269 -94 269 -94 286 -63.5 c 128,-1,22
 303 -33 303 -33 342 -6 c 1,23,24
 259 -4 259 -4 192 34 c 128,-1,25
 125 72 125 72 86.5 137.5 c 128,-1,26
 48 203 48 203 48 283 c 0,27,28
 48 364 48 364 87.5 430 c 128,-1,29
 127 496 127 496 196.5 534 c 128,-1,30
 266 572 266 572 351 572 c 0,31,0
 437 572 437 572 506 534.5 c 128,-1,1
469 85.5 m 128,-1,33
 522 115 522 115 552 166.5 c 128,-1,34
 582 218 582 218 582 282 c 0,35,36
 582 347 582 347 552 398.5 c 128,-1,37
 522 450 522 450 469 479.5 c 128,-1,38
 416 509 416 509 351 509 c 256,39,40
 286 509 286 509 233 479.5 c 128,-1,41
 180 450 180 450 150 398.5 c 128,-1,42
 120 347 120 347 120 282 c 0,43,44
 120 218 120 218 150 166.5 c 128,-1,45
 180 115 180 115 233 85.5 c 128,-1,46
 286 56 286 56 351 56 c 256,47,32
 416 56 416 56 469 85.5 c 128,-1,33
EndSplineSet
EndChar

StartChar: oe.sc
Encoding: 65945 -1 898
Width: 930
GlyphClass: 2
Flags: W
AnchorPoint: "Anchor-14" 0 0 basechar 0
AnchorPoint: "Anchor-13" 0 0 basechar 0
AnchorPoint: "Anchor-12" 504 565 basechar 0
AnchorPoint: "Anchor-11" 0 0 basechar 0
AnchorPoint: "Anchor-10" 504 0 basechar 0
LayerCount: 2
Fore
SplineSet
880 60 m 1,0,-1
 880 0 l 1,1,-1
 358 0 l 2,2,3
 266 0 266 0 195.5 35.5 c 128,-1,4
 125 71 125 71 86.5 135 c 128,-1,5
 48 199 48 199 48 282 c 0,6,7
 48 366 48 366 86.5 430 c 128,-1,8
 125 494 125 494 195.5 529.5 c 128,-1,9
 266 565 266 565 358 565 c 2,10,-1
 868 565 l 1,11,-1
 868 505 l 1,12,-1
 540 505 l 1,13,-1
 540 316 l 1,14,-1
 833 316 l 1,15,-1
 833 257 l 1,16,-1
 540 257 l 1,17,-1
 540 60 l 1,18,-1
 880 60 l 1,0,-1
469 60 m 1,19,-1
 469 505 l 1,20,-1
 360 505 l 2,21,22
 287 505 287 505 233 477.5 c 128,-1,23
 179 450 179 450 149.5 399.5 c 128,-1,24
 120 349 120 349 120 282 c 256,25,26
 120 215 120 215 149.5 165 c 128,-1,27
 179 115 179 115 233 87.5 c 128,-1,28
 287 60 287 60 360 60 c 2,29,-1
 469 60 l 1,19,-1
EndSplineSet
EndChar

StartChar: p.sc
Encoding: 65946 -1 899
Width: 617
Flags: W
LayerCount: 2
Fore
SplineSet
498 513.5 m 128,-1,1
 561 462 561 462 561 370 c 256,2,3
 561 278 561 278 497.5 226.5 c 128,-1,4
 434 175 434 175 325 175 c 2,5,-1
 177 175 l 1,6,-1
 177 0 l 1,7,-1
 105 0 l 1,8,-1
 105 565 l 1,9,-1
 325 565 l 2,10,0
 435 565 435 565 498 513.5 c 128,-1,1
445.5 270 m 128,-1,12
 489 305 489 305 489 370 c 256,13,14
 489 435 489 435 446 470 c 128,-1,15
 403 505 403 505 321 505 c 2,16,-1
 177 505 l 1,17,-1
 177 235 l 1,18,-1
 321 235 l 2,19,11
 402 235 402 235 445.5 270 c 128,-1,12
EndSplineSet
EndChar

StartChar: thorn.sc
Encoding: 65947 -1 900
Width: 617
Flags: W
LayerCount: 2
Fore
SplineSet
497.5 441.5 m 128,-1,1
 561 390 561 390 561 298 c 256,2,3
 561 206 561 206 497.5 154.5 c 128,-1,4
 434 103 434 103 325 103 c 2,5,-1
 177 103 l 1,6,-1
 177 0 l 1,7,-1
 105 0 l 1,8,-1
 105 566 l 1,9,-1
 177 566 l 1,10,-1
 177 493 l 1,11,-1
 325 493 l 2,12,0
 434 493 434 493 497.5 441.5 c 128,-1,1
445.5 198 m 128,-1,14
 489 233 489 233 489 298 c 256,15,16
 489 363 489 363 446 398 c 128,-1,17
 403 433 403 433 321 433 c 2,18,-1
 177 433 l 1,19,-1
 177 163 l 1,20,-1
 321 163 l 2,21,13
 402 163 402 163 445.5 198 c 128,-1,14
EndSplineSet
EndChar

StartChar: q.sc
Encoding: 65948 -1 901
Width: 702
GlyphClass: 2
Flags: W
AnchorPoint: "Anchor-14" 0 0 basechar 0
AnchorPoint: "Anchor-13" 0 0 basechar 0
AnchorPoint: "Anchor-12" 352 565 basechar 0
AnchorPoint: "Anchor-11" 0 0 basechar 0
AnchorPoint: "Anchor-10" 0 0 basechar 0
LayerCount: 2
Fore
SplineSet
682 -52 m 1,0,1
 628 -115 628 -115 541 -115 c 0,2,3
 488 -115 488 -115 440.5 -90 c 128,-1,4
 393 -65 393 -65 336 -6 c 1,5,6
 254 -3 254 -3 188.5 35.5 c 128,-1,7
 123 74 123 74 85.5 139 c 128,-1,8
 48 204 48 204 48 283 c 0,9,10
 48 364 48 364 87.5 430 c 128,-1,11
 127 496 127 496 196.5 534 c 128,-1,12
 266 572 266 572 351 572 c 0,13,14
 437 572 437 572 506 534.5 c 128,-1,15
 575 497 575 497 614.5 430.5 c 128,-1,16
 654 364 654 364 654 283 c 0,17,18
 654 214 654 214 625 155 c 128,-1,19
 596 96 596 96 544 56 c 128,-1,20
 492 16 492 16 425 2 c 1,21,22
 455 -30 455 -30 483 -44 c 128,-1,23
 511 -58 511 -58 542 -58 c 0,24,25
 604 -58 604 -58 647 -10 c 1,26,-1
 682 -52 l 1,0,1
150 166.5 m 128,-1,28
 180 115 180 115 233 85.5 c 128,-1,29
 286 56 286 56 351 56 c 256,30,31
 416 56 416 56 469 85.5 c 128,-1,32
 522 115 522 115 552 166.5 c 128,-1,33
 582 218 582 218 582 282 c 0,34,35
 582 347 582 347 552 398.5 c 128,-1,36
 522 450 522 450 469 479.5 c 128,-1,37
 416 509 416 509 351 509 c 256,38,39
 286 509 286 509 233 479.5 c 128,-1,40
 180 450 180 450 150 398.5 c 128,-1,41
 120 347 120 347 120 282 c 0,42,27
 120 218 120 218 150 166.5 c 128,-1,28
EndSplineSet
Substitution2: "'ss01' Style Set 1 lookup 42 subtable" q.sc.ss01
Substitution2: "'salt' Stylistic Alternatives lookup 41 subtable" q.sc.ss01
Substitution2: "'aalt' Access All Alternates lookup 0 subtable" q.sc.ss01
EndChar

StartChar: r.sc
Encoding: 65949 -1 902
Width: 624
GlyphClass: 2
Flags: W
AnchorPoint: "Anchor-14" 0 0 basechar 0
AnchorPoint: "Anchor-13" 0 0 basechar 0
AnchorPoint: "Anchor-12" 318 565 basechar 0
AnchorPoint: "Anchor-11" 0 0 basechar 0
AnchorPoint: "Anchor-10" 318 0 basechar 0
LayerCount: 2
Fore
SplineSet
492 0 m 1,0,-1
 364 178 l 1,1,2
 338 176 338 176 325 176 c 2,3,-1
 177 176 l 1,4,-1
 177 0 l 1,5,-1
 105 0 l 1,6,-1
 105 565 l 1,7,-1
 325 565 l 2,8,9
 435 565 435 565 498 513.5 c 128,-1,10
 561 462 561 462 561 370 c 0,11,12
 561 305 561 305 527.5 259 c 128,-1,13
 494 213 494 213 432 192 c 1,14,-1
 570 0 l 1,15,-1
 492 0 l 1,0,-1
445.5 270 m 128,-1,17
 489 305 489 305 489 370 c 256,18,19
 489 435 489 435 446 470 c 128,-1,20
 403 505 403 505 321 505 c 2,21,-1
 177 505 l 1,22,-1
 177 235 l 1,23,-1
 321 235 l 2,24,16
 402 235 402 235 445.5 270 c 128,-1,17
EndSplineSet
EndChar

StartChar: s.sc
Encoding: 65957 -1 910
Width: 523
GlyphClass: 2
Flags: W
AnchorPoint: "Anchor-14" 0 0 basechar 0
AnchorPoint: "Anchor-13" 0 0 basechar 0
AnchorPoint: "Anchor-12" 272 565 basechar 0
AnchorPoint: "Anchor-11" 0 0 basechar 0
AnchorPoint: "Anchor-10" 272 0 basechar 0
LayerCount: 2
Fore
SplineSet
136.5 13.5 m 128,-1,1
 77 33 77 33 43 65 c 1,2,-1
 73 121 l 1,3,4
 105 92 105 92 156.5 73.5 c 128,-1,5
 208 55 208 55 263 55 c 0,6,7
 337 55 337 55 372.5 81 c 128,-1,8
 408 107 408 107 408 148 c 0,9,10
 408 180 408 180 388 199.5 c 128,-1,11
 368 219 368 219 338 229 c 128,-1,12
 308 239 308 239 257 251 c 0,13,14
 193 266 193 266 154 281 c 128,-1,15
 115 296 115 296 87.5 327.5 c 128,-1,16
 60 359 60 359 60 412 c 0,17,18
 60 483 60 483 117 527.5 c 128,-1,19
 174 572 174 572 276 572 c 0,20,21
 327 572 327 572 375.5 559 c 128,-1,22
 424 546 424 546 458 522 c 1,23,-1
 432 464 l 1,24,25
 367 510 367 510 274 510 c 0,26,27
 203 510 203 510 167 483.5 c 128,-1,28
 131 457 131 457 131 415 c 0,29,30
 131 383 131 383 151 363.5 c 128,-1,31
 171 344 171 344 201.5 334 c 128,-1,32
 232 324 232 324 284 312 c 0,33,34
 347 297 347 297 386 282.5 c 128,-1,35
 425 268 425 268 452.5 237 c 128,-1,36
 480 206 480 206 480 154 c 0,37,38
 480 82 480 82 422.5 38 c 128,-1,39
 365 -6 365 -6 261 -6 c 0,40,0
 196 -6 196 -6 136.5 13.5 c 128,-1,1
EndSplineSet
EndChar

StartChar: germandbls.sc
Encoding: 65969 -1 922
Width: 640
Flags: W
LayerCount: 2
Fore
SplineSet
542 282.5 m 128,-1,1
 593 239 593 239 593 163 c 0,2,3
 593 84 593 84 540 39 c 128,-1,4
 487 -6 487 -6 397 -6 c 0,5,6
 328 -6 328 -6 278 16 c 1,7,-1
 294 76 l 1,8,9
 338 55 338 55 396 55 c 0,10,11
 453 55 453 55 487 83.5 c 128,-1,12
 521 112 521 112 521 164 c 256,13,14
 521 216 521 216 486.5 244 c 128,-1,15
 452 272 452 272 390 272 c 0,16,17
 353 272 353 272 320 262 c 1,18,-1
 306 299 l 1,19,-1
 476 482 l 1,20,21
 424 508 424 508 353 508 c 0,22,23
 265 508 265 508 218 460.5 c 128,-1,24
 171 413 171 413 171 324 c 2,25,-1
 171 0 l 1,26,-1
 99 0 l 1,27,-1
 99 327 l 2,28,29
 99 440 99 440 166 504.5 c 128,-1,30
 233 569 233 569 350 569 c 0,31,32
 405 569 405 569 455 556 c 128,-1,33
 505 543 505 543 541 517 c 1,34,-1
 541 468 l 1,35,-1
 409 327 l 1,36,0
 491 326 491 326 542 282.5 c 128,-1,1
EndSplineSet
EndChar

StartChar: t.sc
Encoding: 65970 -1 923
Width: 478
GlyphClass: 2
Flags: W
AnchorPoint: "Anchor-14" 0 0 basechar 0
AnchorPoint: "Anchor-13" 239 276 basechar 0
AnchorPoint: "Anchor-12" 239 565 basechar 0
AnchorPoint: "Anchor-11" 0 0 basechar 0
AnchorPoint: "Anchor-10" 239 0 basechar 0
LayerCount: 2
Fore
SplineSet
203 505 m 1,0,-1
 4 505 l 1,1,-1
 4 565 l 1,2,-1
 474 565 l 1,3,-1
 474 505 l 1,4,-1
 275 505 l 1,5,-1
 275 0 l 1,6,-1
 203 0 l 1,7,-1
 203 505 l 1,0,-1
EndSplineSet
Substitution2: "'ss01' Style Set 1 lookup 42 subtable" t.sc.ss01
Substitution2: "'salt' Stylistic Alternatives lookup 41 subtable" t.sc.ss01
Substitution2: "'aalt' Access All Alternates lookup 0 subtable" t.sc.ss01
EndChar

StartChar: u.sc
Encoding: 65978 -1 931
Width: 677
GlyphClass: 2
Flags: W
AnchorPoint: "Anchor-14" 559 565 basechar 0
AnchorPoint: "Anchor-13" 0 0 basechar 0
AnchorPoint: "Anchor-12" 339 565 basechar 0
AnchorPoint: "Anchor-11" 502 0 basechar 0
AnchorPoint: "Anchor-10" 339 0 basechar 0
LayerCount: 2
Fore
SplineSet
162.5 58 m 128,-1,1
 99 122 99 122 99 240 c 2,2,-1
 99 565 l 1,3,-1
 171 565 l 1,4,-1
 171 242 l 2,5,6
 171 150 171 150 214 103 c 128,-1,7
 257 56 257 56 339 56 c 256,8,9
 421 56 421 56 464.5 103 c 128,-1,10
 508 150 508 150 508 242 c 2,11,-1
 508 565 l 1,12,-1
 578 565 l 1,13,-1
 578 240 l 2,14,15
 578 122 578 122 515 58 c 128,-1,16
 452 -6 452 -6 339 -6 c 256,17,0
 226 -6 226 -6 162.5 58 c 128,-1,1
EndSplineSet
Substitution2: "'ss01' Style Set 1 lookup 42 subtable" u.sc.ss01
Substitution2: "'salt' Stylistic Alternatives lookup 41 subtable" u.sc.ss01
Substitution2: "'aalt' Access All Alternates lookup 0 subtable" u.sc.ss01
EndChar

StartChar: uogonek.sc
Encoding: 65998 -1 951
Width: 677
Flags: W
LayerCount: 2
Fore
SplineSet
578 565 m 1,0,-1
 578 240 l 2,1,2
 578 158 578 158 546 99.5 c 128,-1,3
 514 41 514 41 449 13 c 0,4,5
 363 -25 363 -25 333.5 -57 c 128,-1,6
 304 -89 304 -89 304 -121 c 0,7,8
 304 -147 304 -147 322 -161.5 c 128,-1,9
 340 -176 340 -176 369 -176 c 0,10,11
 408 -176 408 -176 431 -157 c 1,12,-1
 447 -196 l 1,13,14
 411 -220 411 -220 362 -220 c 0,15,16
 312 -220 312 -220 282 -194 c 128,-1,17
 252 -168 252 -168 252 -125 c 0,18,19
 252 -56 252 -56 329 -6 c 1,20,21
 221 -3 221 -3 160 61 c 128,-1,22
 99 125 99 125 99 240 c 2,23,-1
 99 565 l 1,24,-1
 171 565 l 1,25,-1
 171 242 l 2,26,27
 171 150 171 150 214 103 c 128,-1,28
 257 56 257 56 339 56 c 256,29,30
 421 56 421 56 464.5 103 c 128,-1,31
 508 150 508 150 508 242 c 2,32,-1
 508 565 l 1,33,-1
 578 565 l 1,0,-1
EndSplineSet
Substitution2: "'ss01' Style Set 1 lookup 42 subtable" uogonek.sc.ss01
Substitution2: "'salt' Stylistic Alternatives lookup 41 subtable" uogonek.sc.ss01
Substitution2: "'aalt' Access All Alternates lookup 0 subtable" uogonek.sc.ss01
EndChar

StartChar: v.sc
Encoding: 66002 -1 955
Width: 603
Flags: W
LayerCount: 2
Fore
SplineSet
590 565 m 1,0,-1
 337 0 l 1,1,-1
 266 0 l 1,2,-1
 13 565 l 1,3,-1
 90 565 l 1,4,-1
 303 85 l 1,5,-1
 517 565 l 1,6,-1
 590 565 l 1,0,-1
EndSplineSet
EndChar

StartChar: w.sc
Encoding: 66003 -1 956
Width: 940
GlyphClass: 2
Flags: W
AnchorPoint: "Anchor-14" 0 0 basechar 0
AnchorPoint: "Anchor-13" 0 0 basechar 0
AnchorPoint: "Anchor-12" 471 565 basechar 0
AnchorPoint: "Anchor-11" 0 0 basechar 0
AnchorPoint: "Anchor-10" 471 0 basechar 0
LayerCount: 2
Fore
SplineSet
901 565 m 1,0,-1
 708 0 l 1,1,-1
 633 0 l 1,2,-1
 471 466 l 1,3,-1
 309 0 l 1,4,-1
 232 0 l 1,5,-1
 39 565 l 1,6,-1
 114 565 l 1,7,-1
 273 93 l 1,8,-1
 438 565 l 1,9,-1
 506 565 l 1,10,-1
 669 91 l 1,11,-1
 831 565 l 1,12,-1
 901 565 l 1,0,-1
EndSplineSet
Substitution2: "'ss01' Style Set 1 lookup 42 subtable" w.sc.ss01
Substitution2: "'salt' Stylistic Alternatives lookup 41 subtable" w.sc.ss01
Substitution2: "'aalt' Access All Alternates lookup 0 subtable" w.sc.ss01
EndChar

StartChar: x.sc
Encoding: 66008 -1 961
Width: 553
Flags: W
LayerCount: 2
Fore
SplineSet
454 0 m 1,0,-1
 276 238 l 1,1,-1
 98 0 l 1,2,-1
 17 0 l 1,3,-1
 237 291 l 1,4,-1
 30 565 l 1,5,-1
 111 565 l 1,6,-1
 277 343 l 1,7,-1
 443 565 l 1,8,-1
 523 565 l 1,9,-1
 317 291 l 1,10,-1
 536 0 l 1,11,-1
 454 0 l 1,0,-1
EndSplineSet
EndChar

StartChar: y.sc
Encoding: 66009 -1 962
Width: 555
GlyphClass: 2
Flags: W
AnchorPoint: "Anchor-14" 0 0 basechar 0
AnchorPoint: "Anchor-13" 0 0 basechar 0
AnchorPoint: "Anchor-12" 278 565 basechar 0
AnchorPoint: "Anchor-11" 0 0 basechar 0
AnchorPoint: "Anchor-10" 278 0 basechar 0
LayerCount: 2
Fore
SplineSet
313 184 m 1,0,-1
 313 0 l 1,1,-1
 242 0 l 1,2,-1
 242 186 l 1,3,-1
 8 565 l 1,4,-1
 85 565 l 1,5,-1
 279 253 l 1,6,-1
 473 565 l 1,7,-1
 547 565 l 1,8,-1
 313 184 l 1,0,-1
EndSplineSet
Substitution2: "'ss01' Style Set 1 lookup 42 subtable" y.sc.ss01
Substitution2: "'salt' Stylistic Alternatives lookup 41 subtable" y.sc.ss01
Substitution2: "'aalt' Access All Alternates lookup 0 subtable" y.sc.ss01
EndChar

StartChar: z.sc
Encoding: 66019 -1 972
Width: 546
GlyphClass: 2
Flags: W
AnchorPoint: "Anchor-14" 0 0 basechar 0
AnchorPoint: "Anchor-13" 0 0 basechar 0
AnchorPoint: "Anchor-12" 280 565 basechar 0
AnchorPoint: "Anchor-11" 0 0 basechar 0
AnchorPoint: "Anchor-10" 286 0 basechar 0
LayerCount: 2
Fore
SplineSet
518 60 m 1,0,-1
 518 0 l 1,1,-1
 43 0 l 1,2,-1
 43 48 l 1,3,-1
 414 505 l 1,4,-1
 49 505 l 1,5,-1
 49 565 l 1,6,-1
 508 565 l 1,7,-1
 508 517 l 1,8,-1
 137 60 l 1,9,-1
 518 60 l 1,0,-1
EndSplineSet
Substitution2: "'ss01' Style Set 1 lookup 42 subtable" z.sc.ss01
Substitution2: "'salt' Stylistic Alternatives lookup 41 subtable" z.sc.ss01
Substitution2: "'aalt' Access All Alternates lookup 0 subtable" z.sc.ss01
EndChar

StartChar: a.sc.ss01
Encoding: 66024 -1 977
Width: 685
GlyphClass: 2
Flags: W
AnchorPoint: "Anchor-14" 0 0 basechar 0
AnchorPoint: "Anchor-13" 0 0 basechar 0
AnchorPoint: "Anchor-12" 342 565 basechar 0
AnchorPoint: "Anchor-11" 586 0 basechar 0
AnchorPoint: "Anchor-10" 342 0 basechar 0
LayerCount: 2
Fore
SplineSet
520 506.5 m 128,-1,1
 586 441 586 441 586 319 c 2,2,-1
 586 0 l 1,3,-1
 514 0 l 1,4,-1
 514 160 l 1,5,-1
 171 160 l 1,6,-1
 171 0 l 1,7,-1
 99 0 l 1,8,-1
 99 319 l 2,9,10
 99 441 99 441 165 506.5 c 128,-1,11
 231 572 231 572 342 572 c 0,12,0
 454 572 454 572 520 506.5 c 128,-1,1
514 221 m 1,13,-1
 514 328 l 2,14,15
 514 417 514 417 469 463 c 128,-1,16
 424 509 424 509 342 509 c 0,17,18
 261 509 261 509 216 463 c 128,-1,19
 171 417 171 417 171 328 c 2,20,-1
 171 221 l 1,21,-1
 514 221 l 1,13,-1
EndSplineSet
EndChar

StartChar: ae.sc.ss01
Encoding: 66050 -1 1003
Width: 913
GlyphClass: 2
Flags: W
AnchorPoint: "Anchor-14" 0 0 basechar 0
AnchorPoint: "Anchor-13" 0 0 basechar 0
AnchorPoint: "Anchor-12" 452 565 basechar 0
AnchorPoint: "Anchor-11" 0 0 basechar 0
AnchorPoint: "Anchor-10" 452 0 basechar 0
LayerCount: 2
Fore
SplineSet
864 59 m 1,0,-1
 864 0 l 1,1,-1
 451 0 l 1,2,-1
 451 168 l 1,3,-1
 162 168 l 1,4,-1
 162 0 l 1,5,-1
 93 0 l 1,6,-1
 93 320 l 2,7,8
 93 437 93 437 154.5 501 c 128,-1,9
 216 565 216 565 329 565 c 2,10,-1
 852 565 l 1,11,-1
 852 506 l 1,12,-1
 522 506 l 1,13,-1
 522 316 l 1,14,-1
 815 316 l 1,15,-1
 815 259 l 1,16,-1
 522 259 l 1,17,-1
 522 59 l 1,18,-1
 864 59 l 1,0,-1
451 228 m 1,19,-1
 451 503 l 1,20,-1
 334 503 l 2,21,22
 250 503 250 503 206 455.5 c 128,-1,23
 162 408 162 408 162 318 c 2,24,-1
 162 228 l 1,25,-1
 451 228 l 1,19,-1
EndSplineSet
EndChar

StartChar: e.sc.ss01
Encoding: 66053 -1 1006
Width: 541
GlyphClass: 2
Flags: W
AnchorPoint: "Anchor-14" 0 0 basechar 0
AnchorPoint: "Anchor-13" 0 0 basechar 0
AnchorPoint: "Anchor-12" 289 565 basechar 0
AnchorPoint: "Anchor-11" 485 0 basechar 0
AnchorPoint: "Anchor-10" 289 0 basechar 0
LayerCount: 2
Fore
SplineSet
511 61 m 1,0,1
 475 30 475 30 415.5 12 c 128,-1,2
 356 -6 356 -6 286 -6 c 0,3,4
 170 -6 170 -6 108 38.5 c 128,-1,5
 46 83 46 83 46 155 c 0,6,7
 46 204 46 204 75 239 c 128,-1,8
 104 274 104 274 153 289 c 1,9,10
 113 305 113 305 91.5 337 c 128,-1,11
 70 369 70 369 70 413 c 256,12,13
 70 457 70 457 96 493 c 128,-1,14
 122 529 122 529 173.5 550.5 c 128,-1,15
 225 572 225 572 298 572 c 0,16,17
 351 572 351 572 401 560 c 128,-1,18
 451 548 451 548 487 526 c 1,19,-1
 465 470 l 1,20,21
 395 511 395 511 301 511 c 0,22,23
 223 511 223 511 183 482.5 c 128,-1,24
 143 454 143 454 143 408 c 0,25,26
 143 364 143 364 174 340 c 128,-1,27
 205 316 205 316 263 316 c 2,28,-1
 411 316 l 1,29,-1
 411 257 l 1,30,-1
 259 257 l 2,31,32
 194 257 194 257 156.5 232.5 c 128,-1,33
 119 208 119 208 119 159 c 256,34,35
 119 110 119 110 161.5 82 c 128,-1,36
 204 54 204 54 289 54 c 0,37,38
 348 54 348 54 400 70.5 c 128,-1,39
 452 87 452 87 485 116 c 1,40,-1
 511 61 l 1,0,1
EndSplineSet
EndChar

StartChar: eogonek.sc.ss01
Encoding: 66074 -1 1027
Width: 541
GlyphClass: 2
Flags: W
AnchorPoint: "Anchor-14" 0 0 basechar 0
AnchorPoint: "Anchor-13" 0 0 basechar 0
AnchorPoint: "Anchor-12" 289 565 basechar 0
AnchorPoint: "Anchor-11" 0 0 basechar 0
AnchorPoint: "Anchor-10" 0 0 basechar 0
LayerCount: 2
Fore
SplineSet
520 -196 m 1,0,1
 486 -220 486 -220 435 -220 c 0,2,3
 385 -220 385 -220 355.5 -194 c 128,-1,4
 326 -168 326 -168 326 -125 c 0,5,6
 326 -57 326 -57 385 5 c 1,7,8
 340 -6 340 -6 286 -6 c 0,9,10
 170 -6 170 -6 108 38.5 c 128,-1,11
 46 83 46 83 46 155 c 0,12,13
 46 204 46 204 75 239 c 128,-1,14
 104 274 104 274 153 289 c 1,15,16
 113 305 113 305 91.5 337 c 128,-1,17
 70 369 70 369 70 413 c 256,18,19
 70 457 70 457 96 493 c 128,-1,20
 122 529 122 529 173.5 550.5 c 128,-1,21
 225 572 225 572 298 572 c 0,22,23
 351 572 351 572 401 560 c 128,-1,24
 451 548 451 548 487 526 c 1,25,-1
 465 470 l 1,26,27
 395 511 395 511 301 511 c 0,28,29
 223 511 223 511 183 482.5 c 128,-1,30
 143 454 143 454 143 408 c 0,31,32
 143 364 143 364 174 340 c 128,-1,33
 205 316 205 316 263 316 c 2,34,-1
 411 316 l 1,35,-1
 411 257 l 1,36,-1
 259 257 l 2,37,38
 194 257 194 257 156.5 232.5 c 128,-1,39
 119 208 119 208 119 159 c 256,40,41
 119 110 119 110 161.5 82 c 128,-1,42
 204 54 204 54 289 54 c 0,43,44
 348 54 348 54 400 70.5 c 128,-1,45
 452 87 452 87 485 116 c 1,46,-1
 511 61 l 1,47,48
 436 4 436 4 407 -39 c 128,-1,49
 378 -82 378 -82 378 -118 c 0,50,51
 378 -146 378 -146 396 -161 c 128,-1,52
 414 -176 414 -176 443 -176 c 0,53,54
 481 -176 481 -176 504 -157 c 1,55,-1
 520 -196 l 1,0,1
EndSplineSet
EndChar

StartChar: uni0259.sc.ss01
Encoding: 66076 -1 1029
Width: 664
GlyphClass: 2
Flags: W
AnchorPoint: "Anchor-14" 0 0 basechar 0
AnchorPoint: "Anchor-13" 0 0 basechar 0
AnchorPoint: "Anchor-12" 332 565 basechar 0
AnchorPoint: "Anchor-11" 0 0 basechar 0
AnchorPoint: "Anchor-10" 332 0 basechar 0
LayerCount: 2
Fore
SplineSet
472.5 534 m 128,-1,1
 539 496 539 496 577 430 c 128,-1,2
 615 364 615 364 615 283 c 0,3,4
 615 203 615 203 578 136.5 c 128,-1,5
 541 70 541 70 476 32 c 128,-1,6
 411 -6 411 -6 332 -6 c 0,7,8
 238 -6 238 -6 166 45 c 128,-1,9
 94 96 94 96 65 183 c 1,10,-1
 527 377 l 1,11,12
 502 437 502 437 447 473 c 128,-1,13
 392 509 392 509 322 509 c 0,14,15
 221 509 221 509 151 442 c 1,16,-1
 111 490 l 1,17,18
 149 529 149 529 204.5 550.5 c 128,-1,19
 260 572 260 572 325 572 c 0,20,0
 406 572 406 572 472.5 534 c 128,-1,1
545 286 m 2,21,22
 545 306 545 306 542 324 c 1,23,-1
 149 159 l 1,24,25
 176 111 176 111 224 83 c 128,-1,26
 272 55 272 55 333 55 c 0,27,28
 393 55 393 55 441.5 83.5 c 128,-1,29
 490 112 490 112 517.5 162.5 c 128,-1,30
 545 213 545 213 545 277 c 2,31,-1
 545 286 l 2,21,22
EndSplineSet
EndChar

StartChar: f.sc.ss01
Encoding: 66077 -1 1030
Width: 514
Flags: W
LayerCount: 2
Fore
SplineSet
211 472.5 m 128,-1,1
 171 436 171 436 171 367 c 2,2,-1
 171 295 l 1,3,-1
 439 295 l 1,4,-1
 439 234 l 1,5,-1
 171 234 l 1,6,-1
 171 0 l 1,7,-1
 99 0 l 1,8,-1
 99 366 l 2,9,10
 99 463 99 463 158.5 517.5 c 128,-1,11
 218 572 218 572 329 572 c 0,12,13
 379 572 379 572 422.5 561 c 128,-1,14
 466 550 466 550 497 528 c 1,15,-1
 473 469 l 1,16,17
 416 509 416 509 330 509 c 0,18,0
 251 509 251 509 211 472.5 c 128,-1,1
EndSplineSet
EndChar

StartChar: g.sc.ss01
Encoding: 66078 -1 1031
Width: 652
GlyphClass: 2
Flags: W
AnchorPoint: "Anchor-14" 0 0 basechar 0
AnchorPoint: "Anchor-13" 0 0 basechar 0
AnchorPoint: "Anchor-12" 343 566 basechar 0
AnchorPoint: "Anchor-11" 0 0 basechar 0
AnchorPoint: "Anchor-10" 339 1 basechar 0
LayerCount: 2
Fore
SplineSet
497 283 m 1,0,-1
 566 283 l 1,1,-1
 566 0 l 1,2,-1
 513 0 l 1,3,-1
 513 49 l 1,4,5
 446 -6 446 -6 344 -6 c 0,6,7
 264 -6 264 -6 196.5 30 c 128,-1,8
 129 66 129 66 88.5 131.5 c 128,-1,9
 48 197 48 197 48 282 c 0,10,11
 48 364 48 364 87.5 430 c 128,-1,12
 127 496 127 496 196.5 534 c 128,-1,13
 266 572 266 572 352 572 c 0,14,15
 494 572 494 572 570 488 c 1,16,-1
 524 441 l 1,17,18
 456 509 456 509 353 509 c 0,19,20
 287 509 287 509 233.5 479.5 c 128,-1,21
 180 450 180 450 150 398.5 c 128,-1,22
 120 347 120 347 120 282 c 0,23,24
 120 216 120 216 150.5 164.5 c 128,-1,25
 181 113 181 113 233 84.5 c 128,-1,26
 285 56 285 56 348 56 c 0,27,28
 389 56 389 56 427.5 70.5 c 128,-1,29
 466 85 466 85 497 113 c 1,30,-1
 497 283 l 1,0,-1
EndSplineSet
EndChar

StartChar: i.sc.ss01
Encoding: 66086 -1 1039
Width: 418
GlyphClass: 2
Flags: W
AnchorPoint: "Anchor-14" 0 0 basechar 0
AnchorPoint: "Anchor-13" 0 0 basechar 0
AnchorPoint: "Anchor-12" 210 565 basechar 0
AnchorPoint: "Anchor-11" 245 0 basechar 0
AnchorPoint: "Anchor-10" 210 0 basechar 0
LayerCount: 2
Fore
SplineSet
245 505 m 1,0,-1
 245 60 l 1,1,-1
 358 60 l 1,2,-1
 358 0 l 1,3,-1
 61 0 l 1,4,-1
 61 60 l 1,5,-1
 173 60 l 1,6,-1
 173 505 l 1,7,-1
 61 505 l 1,8,-1
 61 565 l 1,9,-1
 358 565 l 1,10,-1
 358 505 l 1,11,-1
 245 505 l 1,0,-1
EndSplineSet
EndChar

StartChar: iacute_j.loclNLD.sc.ss01
Encoding: 66089 -1 1042
Width: 619
Flags: W
LayerCount: 2
Fore
SplineSet
215 771 m 1,0,-1
 298 771 l 1,1,-1
 137 647 l 1,2,-1
 77 647 l 1,3,-1
 215 771 l 1,0,-1
563 771 m 1,4,-1
 647 771 l 1,5,-1
 485 647 l 1,6,-1
 426 647 l 1,7,-1
 563 771 l 1,4,-1
75 53 m 1,9,-1
 104 110 l 1,10,11
 137 85 137 85 178 71.5 c 128,-1,12
 219 58 219 58 263 58 c 0,13,14
 344 58 344 58 388 104 c 128,-1,15
 432 150 432 150 432 243 c 2,16,-1
 432 565 l 1,17,-1
 504 565 l 1,18,-1
 504 247 l 2,19,20
 504 124 504 124 440.5 59.5 c 128,-1,21
 377 -5 377 -5 266 -5 c 0,22,8
 156 -5 156 -5 75 53 c 1,9,-1
84 565 m 1,23,-1
 156 565 l 1,24,-1
 156 247 l 1,25,-1
 84 247 l 1,26,-1
 84 565 l 1,23,-1
EndSplineSet
EndChar

StartChar: ij.sc.ss01
Encoding: 66099 -1 1052
Width: 619
GlyphClass: 2
Flags: W
AnchorPoint: "Anchor-14" 0 0 basechar 0
AnchorPoint: "Anchor-13" 0 0 basechar 0
AnchorPoint: "Anchor-12" 147 565 basechar 0
AnchorPoint: "Anchor-11" 0 0 basechar 0
AnchorPoint: "Anchor-10" 0 0 basechar 0
LayerCount: 2
Fore
SplineSet
175.5 -69.5 m 128,-1,1
 126 -54 126 -54 89 -28 c 1,2,-1
 120 28 l 1,3,4
 190 -22 190 -22 281 -22 c 0,5,6
 361 -22 361 -22 404.5 24.5 c 128,-1,7
 448 71 448 71 448 164 c 2,8,-1
 448 565 l 1,9,-1
 520 565 l 1,10,-1
 520 167 l 2,11,12
 520 45 520 45 456.5 -20 c 128,-1,13
 393 -85 393 -85 282 -85 c 0,14,0
 225 -85 225 -85 175.5 -69.5 c 128,-1,1
100 565 m 1,15,-1
 172 565 l 1,16,-1
 172 167 l 1,17,-1
 100 167 l 1,18,-1
 100 565 l 1,15,-1
EndSplineSet
EndChar

StartChar: j.sc.ss01
Encoding: 66103 -1 1056
Width: 436
GlyphClass: 2
Flags: W
AnchorPoint: "Anchor-14" 0 0 basechar 0
AnchorPoint: "Anchor-13" 0 0 basechar 0
AnchorPoint: "Anchor-12" 197 565 basechar 0
AnchorPoint: "Anchor-11" 0 0 basechar 0
AnchorPoint: "Anchor-10" 0 0 basechar 0
LayerCount: 2
Fore
SplineSet
69.5 -65.5 m 128,-1,1
 26 -44 26 -44 1 -4 c 1,2,-1
 46 41 l 1,3,4
 68 10 68 10 98 -7 c 128,-1,5
 128 -24 128 -24 164 -24 c 0,6,7
 216 -24 216 -24 241 5.5 c 128,-1,8
 266 35 266 35 266 96 c 2,9,-1
 266 505 l 1,10,-1
 58 505 l 1,11,-1
 58 565 l 1,12,-1
 337 565 l 1,13,-1
 337 100 l 2,14,15
 337 -87 337 -87 165 -87 c 0,16,0
 113 -87 113 -87 69.5 -65.5 c 128,-1,1
EndSplineSet
EndChar

StartChar: m.sc.ss01
Encoding: 66106 -1 1059
Width: 1032
GlyphClass: 2
Flags: W
AnchorPoint: "Anchor-14" 0 0 basechar 0
AnchorPoint: "Anchor-13" 0 0 basechar 0
AnchorPoint: "Anchor-12" 519 565 basechar 0
AnchorPoint: "Anchor-11" 0 0 basechar 0
AnchorPoint: "Anchor-10" 519 0 basechar 0
LayerCount: 2
Fore
SplineSet
878 516 m 128,-1,1
 933 460 933 460 933 355 c 2,2,-1
 933 0 l 1,3,-1
 861 0 l 1,4,-1
 861 350 l 2,5,6
 861 430 861 430 821.5 469.5 c 128,-1,7
 782 509 782 509 709 509 c 256,8,9
 636 509 636 509 595.5 468 c 128,-1,10
 555 427 555 427 555 343 c 2,11,-1
 555 0 l 1,12,-1
 483 0 l 1,13,-1
 483 350 l 2,14,15
 483 430 483 430 444 469.5 c 128,-1,16
 405 509 405 509 333 509 c 0,17,18
 260 509 260 509 218.5 468 c 128,-1,19
 177 427 177 427 177 343 c 2,20,-1
 177 0 l 1,21,-1
 105 0 l 1,22,-1
 105 565 l 1,23,-1
 175 565 l 1,24,-1
 175 487 l 1,25,26
 202 529 202 529 248 550.5 c 128,-1,27
 294 572 294 572 353 572 c 0,28,29
 416 572 416 572 462.5 546.5 c 128,-1,30
 509 521 509 521 533 472 c 1,31,32
 560 521 560 521 610 546.5 c 128,-1,33
 660 572 660 572 726 572 c 0,34,0
 823 572 823 572 878 516 c 128,-1,1
EndSplineSet
EndChar

StartChar: n.sc.ss01
Encoding: 66108 -1 1061
Width: 684
GlyphClass: 2
Flags: W
AnchorPoint: "Anchor-14" 0 0 basechar 0
AnchorPoint: "Anchor-13" 0 0 basechar 0
AnchorPoint: "Anchor-12" 345 565 basechar 0
AnchorPoint: "Anchor-11" 0 0 basechar 0
AnchorPoint: "Anchor-10" 343 0 basechar 0
LayerCount: 2
Fore
SplineSet
526 510.5 m 128,-1,1
 585 449 585 449 585 339 c 2,2,-1
 585 0 l 1,3,-1
 513 0 l 1,4,-1
 513 336 l 2,5,6
 513 420 513 420 470.5 464.5 c 128,-1,7
 428 509 428 509 349 509 c 0,8,9
 267 509 267 509 222 462 c 128,-1,10
 177 415 177 415 177 326 c 2,11,-1
 177 0 l 1,12,-1
 105 0 l 1,13,-1
 105 565 l 1,14,-1
 174 565 l 1,15,-1
 174 480 l 1,16,17
 202 526 202 526 250 549 c 128,-1,18
 298 572 298 572 363 572 c 0,19,0
 467 572 467 572 526 510.5 c 128,-1,1
EndSplineSet
EndChar

StartChar: eng.sc.ss01
Encoding: 66114 -1 1067
Width: 684
Flags: W
LayerCount: 2
Fore
SplineSet
526 510.5 m 128,-1,1
 585 449 585 449 585 339 c 2,2,-1
 585 26 l 2,3,4
 585 -66 585 -66 542 -113.5 c 128,-1,5
 499 -161 499 -161 414 -161 c 0,6,7
 370 -161 370 -161 331 -144 c 128,-1,8
 292 -127 292 -127 267 -96 c 1,9,-1
 300 -43 l 1,10,11
 344 -98 344 -98 414 -98 c 0,12,13
 464 -98 464 -98 488.5 -69 c 128,-1,14
 513 -40 513 -40 513 20 c 2,15,-1
 513 336 l 2,16,17
 513 420 513 420 470.5 464.5 c 128,-1,18
 428 509 428 509 349 509 c 0,19,20
 267 509 267 509 222 462 c 128,-1,21
 177 415 177 415 177 326 c 2,22,-1
 177 0 l 1,23,-1
 105 0 l 1,24,-1
 105 565 l 1,25,-1
 174 565 l 1,26,-1
 174 480 l 1,27,28
 202 526 202 526 250 549 c 128,-1,29
 298 572 298 572 363 572 c 0,30,0
 467 572 467 572 526 510.5 c 128,-1,1
EndSplineSet
EndChar

StartChar: q.sc.ss01
Encoding: 66118 -1 1071
Width: 702
Flags: W
LayerCount: 2
Fore
SplineSet
619.5 144.5 m 128,-1,1
 585 82 585 82 524.5 43 c 128,-1,2
 464 4 464 4 387 -4 c 1,3,-1
 387 -109 l 1,4,-1
 315 -109 l 1,5,-1
 315 -4 l 1,6,7
 238 4 238 4 177.5 43 c 128,-1,8
 117 82 117 82 82.5 144.5 c 128,-1,9
 48 207 48 207 48 283 c 0,10,11
 48 364 48 364 87.5 430 c 128,-1,12
 127 496 127 496 196.5 534 c 128,-1,13
 266 572 266 572 351 572 c 0,14,15
 437 572 437 572 506 534.5 c 128,-1,16
 575 497 575 497 614.5 430.5 c 128,-1,17
 654 364 654 364 654 283 c 0,18,0
 654 207 654 207 619.5 144.5 c 128,-1,1
487 97 m 128,-1,20
 532 128 532 128 557 176 c 128,-1,21
 582 224 582 224 582 283 c 0,22,23
 582 347 582 347 552 398.5 c 128,-1,24
 522 450 522 450 469 479.5 c 128,-1,25
 416 509 416 509 351 509 c 256,26,27
 286 509 286 509 233 479.5 c 128,-1,28
 180 450 180 450 150 398.5 c 128,-1,29
 120 347 120 347 120 283 c 0,30,31
 120 224 120 224 145 176 c 128,-1,32
 170 128 170 128 215 97 c 128,-1,33
 260 66 260 66 317 59 c 1,34,-1
 317 196 l 1,35,-1
 385 196 l 1,36,-1
 385 59 l 1,37,19
 442 66 442 66 487 97 c 128,-1,20
EndSplineSet
EndChar

StartChar: t.sc.ss01
Encoding: 66119 -1 1072
Width: 485
GlyphClass: 2
Flags: W
AnchorPoint: "Anchor-14" 0 0 basechar 0
AnchorPoint: "Anchor-13" 242 268 basechar 0
AnchorPoint: "Anchor-12" 242 566 basechar 0
AnchorPoint: "Anchor-11" 0 0 basechar 0
AnchorPoint: "Anchor-10" 242 0 basechar 0
LayerCount: 2
Fore
SplineSet
461 452 m 1,0,1
 378 500 378 500 278 508 c 1,2,-1
 278 0 l 1,3,-1
 207 0 l 1,4,-1
 207 508 l 1,5,6
 109 500 109 500 24 452 c 1,7,-1
 -2 507 l 1,8,9
 106 572 106 572 242 572 c 0,10,11
 379 572 379 572 487 507 c 1,12,-1
 461 452 l 1,0,1
EndSplineSet
EndChar

StartChar: u.sc.ss01
Encoding: 66127 -1 1080
Width: 684
GlyphClass: 2
Flags: W
AnchorPoint: "Anchor-14" 548 565 basechar 0
AnchorPoint: "Anchor-13" 0 0 basechar 0
AnchorPoint: "Anchor-12" 339 565 basechar 0
AnchorPoint: "Anchor-11" 579 0 basechar 0
AnchorPoint: "Anchor-10" 339 0 basechar 0
LayerCount: 2
Fore
SplineSet
579 565 m 1,0,-1
 579 0 l 1,1,-1
 510 0 l 1,2,-1
 510 85 l 1,3,4
 453 -6 453 -6 321 -6 c 0,5,6
 217 -6 217 -6 158 55 c 128,-1,7
 99 116 99 116 99 227 c 2,8,-1
 99 565 l 1,9,-1
 171 565 l 1,10,-1
 171 229 l 2,11,12
 171 145 171 145 213.5 100.5 c 128,-1,13
 256 56 256 56 334 56 c 0,14,15
 416 56 416 56 461.5 103 c 128,-1,16
 507 150 507 150 507 239 c 2,17,-1
 507 565 l 1,18,-1
 579 565 l 1,0,-1
EndSplineSet
EndChar

StartChar: w.sc.ss01
Encoding: 66151 -1 1104
Width: 1029
GlyphClass: 2
Flags: W
AnchorPoint: "Anchor-14" 0 0 basechar 0
AnchorPoint: "Anchor-13" 0 0 basechar 0
AnchorPoint: "Anchor-12" 524 565 basechar 0
AnchorPoint: "Anchor-11" 0 0 basechar 0
AnchorPoint: "Anchor-10" 524 0 basechar 0
LayerCount: 2
Fore
SplineSet
930 565 m 1,0,-1
 930 221 l 2,1,2
 930 111 930 111 870.5 52.5 c 128,-1,3
 811 -6 811 -6 704 -6 c 0,4,5
 637 -6 637 -6 588 18.5 c 128,-1,6
 539 43 539 43 515 90 c 1,7,8
 491 43 491 43 442.5 18.5 c 128,-1,9
 394 -6 394 -6 326 -6 c 0,10,11
 219 -6 219 -6 159 52.5 c 128,-1,12
 99 111 99 111 99 221 c 2,13,-1
 99 565 l 1,14,-1
 172 565 l 1,15,-1
 172 222 l 2,16,17
 172 140 172 140 212.5 98.5 c 128,-1,18
 253 57 253 57 327 57 c 0,19,20
 400 57 400 57 439.5 98 c 128,-1,21
 479 139 479 139 479 222 c 2,22,-1
 479 565 l 1,23,-1
 551 565 l 1,24,-1
 551 222 l 2,25,26
 551 139 551 139 590.5 98 c 128,-1,27
 630 57 630 57 704 57 c 256,28,29
 778 57 778 57 818 98.5 c 128,-1,30
 858 140 858 140 858 222 c 2,31,-1
 858 565 l 1,32,-1
 930 565 l 1,0,-1
EndSplineSet
EndChar

StartChar: y.sc.ss01
Encoding: 66156 -1 1109
Width: 673
GlyphClass: 2
Flags: W
AnchorPoint: "Anchor-14" 0 0 basechar 0
AnchorPoint: "Anchor-13" 0 0 basechar 0
AnchorPoint: "Anchor-12" 334 565 basechar 0
AnchorPoint: "Anchor-11" 0 0 basechar 0
AnchorPoint: "Anchor-10" 562 3 basechar 0
LayerCount: 2
Fore
SplineSet
574 565 m 1,0,-1
 574 165 l 2,1,2
 574 42 574 42 509 -22.5 c 128,-1,3
 444 -87 444 -87 329 -87 c 0,4,5
 258 -87 258 -87 201.5 -65 c 128,-1,6
 145 -43 145 -43 105 -2 c 1,7,-1
 138 52 l 1,8,9
 211 -24 211 -24 328 -24 c 0,10,11
 502 -24 502 -24 502 161 c 2,12,-1
 502 227 l 1,13,14
 445 141 445 141 318 141 c 0,15,16
 214 141 214 141 154 202 c 128,-1,17
 94 263 94 263 94 374 c 2,18,-1
 94 565 l 1,19,-1
 166 565 l 1,20,-1
 166 376 l 2,21,22
 166 292 166 292 208.5 247.5 c 128,-1,23
 251 203 251 203 329 203 c 0,24,25
 411 203 411 203 456.5 250 c 128,-1,26
 502 297 502 297 502 386 c 2,27,-1
 502 565 l 1,28,-1
 574 565 l 1,0,-1
EndSplineSet
EndChar

StartChar: z.sc.ss01
Encoding: 66166 -1 1119
Width: 546
GlyphClass: 2
Flags: W
AnchorPoint: "Anchor-14" 0 0 basechar 0
AnchorPoint: "Anchor-13" 0 0 basechar 0
AnchorPoint: "Anchor-12" 278 565 basechar 0
AnchorPoint: "Anchor-11" 0 0 basechar 0
AnchorPoint: "Anchor-10" 283 0 basechar 0
LayerCount: 2
Fore
SplineSet
518 60 m 1,0,-1
 518 0 l 1,1,-1
 43 0 l 1,2,-1
 43 48 l 1,3,-1
 212 257 l 1,4,-1
 78 257 l 1,5,-1
 78 316 l 1,6,-1
 259 316 l 1,7,-1
 412 505 l 1,8,-1
 47 505 l 1,9,-1
 47 565 l 1,10,-1
 506 565 l 1,11,-1
 506 517 l 1,12,-1
 344 316 l 1,13,-1
 486 316 l 1,14,-1
 486 256 l 1,15,-1
 295 256 l 1,16,-1
 137 60 l 1,17,-1
 518 60 l 1,0,-1
EndSplineSet
EndChar

StartChar: ordfeminine
Encoding: 170 170 1124
Width: 401
Flags: W
LayerCount: 2
Fore
SplineSet
294 715 m 128,-1,1
 330 684 330 684 330 622 c 2,2,-1
 330 430 l 1,3,-1
 281 430 l 1,4,-1
 281 478 l 1,5,6
 266 455 266 455 236 441 c 128,-1,7
 206 427 206 427 164 427 c 0,8,9
 105 427 105 427 73 452 c 128,-1,10
 41 477 41 477 41 518 c 256,11,12
 41 559 41 559 72.5 583.5 c 128,-1,13
 104 608 104 608 172 608 c 2,14,-1
 277 608 l 1,15,-1
 277 624 l 2,16,17
 277 665 277 665 254 684.5 c 128,-1,18
 231 704 231 704 185 704 c 0,19,20
 152 704 152 704 122.5 694 c 128,-1,21
 93 684 93 684 72 667 c 1,22,-1
 51 702 l 1,23,24
 77 722 77 722 114 734 c 128,-1,25
 151 746 151 746 190 746 c 0,26,0
 258 746 258 746 294 715 c 128,-1,1
277 522 m 1,28,-1
 277 573 l 1,29,-1
 178 573 l 2,30,31
 133 573 133 573 112 559 c 128,-1,32
 91 545 91 545 91 521 c 0,33,34
 91 494 91 494 113 479 c 128,-1,35
 135 464 135 464 175 464 c 0,36,27
 250 464 250 464 277 522 c 1,28,-1
EndSplineSet
EndChar

StartChar: ordmasculine
Encoding: 186 186 1125
Width: 414
Flags: W
LayerCount: 2
Fore
SplineSet
118.5 447.5 m 128,-1,1
 79 468 79 468 56.5 504.5 c 128,-1,2
 34 541 34 541 34 587 c 256,3,4
 34 633 34 633 56.5 669 c 128,-1,5
 79 705 79 705 118.5 725.5 c 128,-1,6
 158 746 158 746 207 746 c 256,7,8
 256 746 256 746 295.5 725.5 c 128,-1,9
 335 705 335 705 357.5 669 c 128,-1,10
 380 633 380 633 380 587 c 256,11,12
 380 541 380 541 357.5 504.5 c 128,-1,13
 335 468 335 468 295.5 447.5 c 128,-1,14
 256 427 256 427 207 427 c 256,15,0
 158 427 158 427 118.5 447.5 c 128,-1,1
294.5 504 m 128,-1,17
 328 536 328 536 328 587 c 256,18,19
 328 638 328 638 294 670 c 128,-1,20
 260 702 260 702 207 702 c 256,21,22
 154 702 154 702 120 670 c 128,-1,23
 86 638 86 638 86 587 c 256,24,25
 86 536 86 536 119.5 504 c 128,-1,26
 153 472 153 472 207 472 c 256,27,16
 261 472 261 472 294.5 504 c 128,-1,17
EndSplineSet
EndChar

StartChar: uni0411
Encoding: 1041 1041 1127
Width: 727
Flags: W
LayerCount: 2
Fore
SplineSet
118 700 m 1,0,-1
 630 700 l 1,1,-1
 630 637 l 1,2,-1
 191 637 l 1,3,-1
 191 408 l 1,4,-1
 420 408 l 2,5,6
 544 408 544 408 608.5 357 c 128,-1,7
 673 306 673 306 673 209 c 0,8,9
 673 108 673 108 603.5 54 c 128,-1,10
 534 0 534 0 404 0 c 2,11,-1
 118 0 l 1,12,-1
 118 700 l 1,0,-1
403 59 m 2,13,14
 500 59 500 59 549.5 96 c 128,-1,15
 599 133 599 133 599 206 c 0,16,17
 599 278 599 278 550.5 313.5 c 128,-1,18
 502 349 502 349 403 349 c 2,19,-1
 191 349 l 1,20,-1
 191 59 l 1,21,-1
 403 59 l 2,13,14
EndSplineSet
EndChar

StartChar: uni0412
Encoding: 1042 1042 1128
Width: 749
GlyphClass: 2
Flags: W
AnchorPoint: "Anchor-9" 0 0 basechar 0
AnchorPoint: "Anchor-8" 0 0 basechar 0
AnchorPoint: "Anchor-7" 380 700 basechar 0
AnchorPoint: "Anchor-6" 0 0 basechar 0
AnchorPoint: "Anchor-5" 380 0 basechar 0
LayerCount: 2
Fore
SplineSet
644 302.5 m 128,-1,1
 682 259 682 259 682 189 c 0,2,3
 682 98 682 98 617.5 49 c 128,-1,4
 553 0 553 0 428 0 c 2,5,-1
 118 0 l 1,6,-1
 118 700 l 1,7,-1
 409 700 l 2,8,9
 521 700 521 700 584 654 c 128,-1,10
 647 608 647 608 647 521 c 0,11,12
 647 462 647 462 617 421.5 c 128,-1,13
 587 381 587 381 533 361 c 1,14,0
 606 346 606 346 644 302.5 c 128,-1,1
191 383 m 1,15,-1
 405 383 l 2,16,17
 486 383 486 383 529.5 416 c 128,-1,18
 573 449 573 449 573 512 c 256,19,20
 573 575 573 575 529.5 608 c 128,-1,21
 486 641 486 641 405 641 c 2,22,-1
 191 641 l 1,23,-1
 191 383 l 1,15,-1
609 194 m 0,25,26
 609 326 609 326 428 326 c 2,27,-1
 191 326 l 1,28,-1
 191 59 l 1,29,-1
 428 59 l 2,30,24
 609 59 609 59 609 194 c 0,25,26
EndSplineSet
EndChar

StartChar: uni0413
Encoding: 1043 1043 1129
Width: 572
GlyphClass: 2
Flags: W
AnchorPoint: "Anchor-9" 0 0 basechar 0
AnchorPoint: "Anchor-8" 0 0 basechar 0
AnchorPoint: "Anchor-7" 333 700 basechar 0
AnchorPoint: "Anchor-6" 0 0 basechar 0
AnchorPoint: "Anchor-5" 0 0 basechar 0
LayerCount: 2
Fore
SplineSet
563 636 m 1,0,-1
 190 636 l 1,1,-1
 191 0 l 1,2,-1
 118 0 l 1,3,-1
 118 700 l 1,4,-1
 563 700 l 1,5,-1
 563 636 l 1,0,-1
EndSplineSet
EndChar

StartChar: uni0490
Encoding: 1168 1168 1131
Width: 575
Flags: W
LayerCount: 2
Fore
SplineSet
118 700 m 1,0,-1
 494 700 l 1,1,-1
 494 844 l 1,2,-1
 563 844 l 1,3,-1
 563 636 l 1,4,-1
 191 636 l 1,5,-1
 191 0 l 1,6,-1
 118 0 l 1,7,-1
 118 700 l 1,0,-1
EndSplineSet
EndChar

StartChar: uni0414
Encoding: 1044 1044 1132
Width: 794
Flags: W
LayerCount: 2
Fore
SplineSet
761 64 m 1,0,-1
 761 -157 l 1,1,-1
 692 -157 l 1,2,-1
 692 0 l 1,3,-1
 81 0 l 1,4,-1
 80 -157 l 1,5,-1
 11 -157 l 1,6,-1
 12 64 l 1,7,-1
 47 64 l 1,8,9
 116 68 116 68 143 173.5 c 128,-1,10
 170 279 170 279 176 473 c 2,11,-1
 184 700 l 1,12,-1
 656 700 l 1,13,-1
 656 64 l 1,14,-1
 761 64 l 1,0,-1
217.5 202.5 m 128,-1,16
 198 99 198 99 152 64 c 1,17,-1
 583 64 l 1,18,-1
 583 636 l 1,19,-1
 248 636 l 1,20,-1
 242 466 l 2,21,15
 237 306 237 306 217.5 202.5 c 128,-1,16
EndSplineSet
Substitution2: "'ss01' Style Set 1 lookup 42 subtable" uni0414.ss01
Substitution2: "'salt' Stylistic Alternatives lookup 41 subtable" uni0414.ss01
Substitution2: "'locl' Localized Forms in Cyrillic lookup 17 subtable" uni0414.loclBGR
AlternateSubs2: "'aalt' Access All Alternates lookup 1 subtable" uni0414.loclBGR uni0414.ss01
EndChar

StartChar: uni0416
Encoding: 1046 1046 1136
Width: 1011
GlyphClass: 2
Flags: W
AnchorPoint: "Anchor-9" 0 0 basechar 0
AnchorPoint: "Anchor-8" 0 0 basechar 0
AnchorPoint: "Anchor-7" 507 700 basechar 0
AnchorPoint: "Anchor-6" 0 0 basechar 0
AnchorPoint: "Anchor-5" 0 0 basechar 0
LayerCount: 2
Fore
SplineSet
687 321 m 1,0,-1
 542 321 l 1,1,-1
 542 0 l 1,2,-1
 470 0 l 1,3,-1
 470 321 l 1,4,-1
 324 321 l 1,5,-1
 110 0 l 1,6,-1
 24 0 l 1,7,-1
 264 361 l 1,8,-1
 42 700 l 1,9,-1
 122 700 l 1,10,-1
 323 386 l 1,11,-1
 470 386 l 1,12,-1
 470 700 l 1,13,-1
 542 700 l 1,14,-1
 542 386 l 1,15,-1
 687 386 l 1,16,-1
 889 700 l 1,17,-1
 969 700 l 1,18,-1
 747 361 l 1,19,-1
 987 0 l 1,20,-1
 901 0 l 1,21,-1
 687 321 l 1,0,-1
EndSplineSet
EndChar

StartChar: uni0417
Encoding: 1047 1047 1137
Width: 636
GlyphClass: 2
Flags: W
AnchorPoint: "Anchor-9" 0 0 basechar 0
AnchorPoint: "Anchor-8" 0 0 basechar 0
AnchorPoint: "Anchor-7" 316 700 basechar 0
AnchorPoint: "Anchor-6" 0 0 basechar 0
AnchorPoint: "Anchor-5" 301 0 basechar 0
LayerCount: 2
Fore
SplineSet
530.5 304 m 132,-1,1
 570 259 570 259 570 196 c 4,2,3
 570 135 570 135 532 89 c 132,-1,4
 494 43 494 43 431 18.5 c 132,-1,5
 368 -6 368 -6 294 -6 c 4,6,7
 224 -6 224 -6 156.5 16.5 c 132,-1,8
 89 39 89 39 35 84 c 5,9,-1
 62 137 l 5,10,11
 108 98 108 98 167 77.5 c 132,-1,12
 226 57 226 57 286 57 c 4,13,14
 343 57 343 57 391 75 c 132,-1,15
 439 93 439 93 467.5 126.5 c 132,-1,16
 496 160 496 160 496 206 c 4,17,18
 496 267 496 267 448 300 c 132,-1,19
 400 333 400 333 313 333 c 6,20,-1
 163 333 l 5,21,-1
 163 393 l 5,22,-1
 309 393 l 6,23,24
 383 393 383 393 424.5 424.5 c 132,-1,25
 466 456 466 456 466 512 c 4,26,27
 466 574 466 574 413 609.5 c 132,-1,28
 360 645 360 645 280 645 c 4,29,30
 230 645 230 645 179 630.5 c 132,-1,31
 128 616 128 616 82 587 c 5,32,-1
 57 648 l 5,33,34
 161 710 161 710 282 710 c 4,35,36
 353 710 353 710 412 687 c 132,-1,37
 471 664 471 664 505.5 621 c 132,-1,38
 540 578 540 578 540 520 c 4,39,40
 540 464 540 464 509 423.5 c 132,-1,41
 478 383 478 383 422 366 c 5,42,0
 491 349 491 349 530.5 304 c 132,-1,1
EndSplineSet
EndChar

StartChar: uni0418
Encoding: 1048 1048 1138
Width: 824
GlyphClass: 2
Flags: W
AnchorPoint: "Anchor-9" 0 0 basechar 0
AnchorPoint: "Anchor-8" 0 0 basechar 0
AnchorPoint: "Anchor-7" 410 700 basechar 0
AnchorPoint: "Anchor-6" 0 0 basechar 0
AnchorPoint: "Anchor-5" 0 0 basechar 0
LayerCount: 2
Fore
SplineSet
118 700 m 1,0,-1
 191 700 l 1,1,-1
 191 120 l 1,2,-1
 639 700 l 1,3,-1
 706 700 l 1,4,-1
 706 0 l 1,5,-1
 633 0 l 1,6,-1
 633 579 l 1,7,-1
 185 0 l 1,8,-1
 118 0 l 1,9,-1
 118 700 l 1,0,-1
EndSplineSet
Substitution2: "'ss01' Style Set 1 lookup 42 subtable" uni0418.ss01
Substitution2: "'salt' Stylistic Alternatives lookup 41 subtable" uni0418.ss01
Substitution2: "'aalt' Access All Alternates lookup 0 subtable" uni0418.ss01
EndChar

StartChar: uni048A
Encoding: 1162 1162 1141
Width: 848
GlyphClass: 2
Flags: W
AnchorPoint: "Anchor-9" 0 0 basechar 0
AnchorPoint: "Anchor-8" 0 0 basechar 0
AnchorPoint: "Anchor-7" 410 700 basechar 0
AnchorPoint: "Anchor-6" 0 0 basechar 0
AnchorPoint: "Anchor-5" 0 0 basechar 0
LayerCount: 2
Fore
SplineSet
291.5 785 m 128,-1,1
 248 819 248 819 247 880 c 1,2,-1
 302 880 l 1,3,4
 303 840 303 840 332 817 c 128,-1,5
 361 794 361 794 410 794 c 0,6,7
 458 794 458 794 487.5 817 c 128,-1,8
 517 840 517 840 518 880 c 1,9,-1
 573 880 l 1,10,11
 572 819 572 819 528 785 c 128,-1,12
 484 751 484 751 410 751 c 0,13,0
 335 751 335 751 291.5 785 c 128,-1,1
805 64 m 1,14,-1
 738 -157 l 1,15,-1
 679 -157 l 1,16,-1
 720 0 l 1,17,-1
 633 0 l 1,18,-1
 633 579 l 1,19,-1
 185 0 l 1,20,-1
 118 0 l 1,21,-1
 118 700 l 1,22,-1
 191 700 l 1,23,-1
 191 120 l 1,24,-1
 639 700 l 1,25,-1
 706 700 l 1,26,-1
 706 64 l 1,27,-1
 805 64 l 1,14,-1
EndSplineSet
Substitution2: "'ss01' Style Set 1 lookup 42 subtable" uni048A.ss01
Substitution2: "'salt' Stylistic Alternatives lookup 41 subtable" uni048A.ss01
Substitution2: "'aalt' Access All Alternates lookup 0 subtable" uni048A.ss01
EndChar

StartChar: uni041A
Encoding: 1050 1050 1142
Width: 702
GlyphClass: 2
Flags: W
AnchorPoint: "Anchor-9" 0 0 basechar 0
AnchorPoint: "Anchor-8" 0 0 basechar 0
AnchorPoint: "Anchor-7" 352 700 basechar 0
AnchorPoint: "Anchor-6" 0 0 basechar 0
AnchorPoint: "Anchor-5" 0 0 basechar 0
LayerCount: 2
Fore
SplineSet
350 321 m 1,0,-1
 190 321 l 1,1,-1
 190 0 l 1,2,-1
 118 0 l 1,3,-1
 118 700 l 1,4,-1
 190 700 l 1,5,-1
 190 386 l 1,6,-1
 350 386 l 1,7,-1
 587 700 l 1,8,-1
 667 700 l 1,9,-1
 407 360 l 1,10,-1
 682 0 l 1,11,-1
 597 0 l 1,12,-1
 350 321 l 1,0,-1
EndSplineSet
EndChar

StartChar: uni041B
Encoding: 1051 1051 1144
Width: 785
GlyphClass: 2
Flags: W
AnchorPoint: "Anchor-9" 0 0 basechar 0
AnchorPoint: "Anchor-8" 0 0 basechar 0
AnchorPoint: "Anchor-7" 0 0 basechar 0
AnchorPoint: "Anchor-6" 0 0 basechar 0
AnchorPoint: "Anchor-5" 0 0 basechar 0
LayerCount: 2
Fore
SplineSet
667 700 m 1,0,-1
 667 0 l 1,1,-1
 594 0 l 1,2,-1
 594 636 l 1,3,-1
 256 636 l 1,4,-1
 248 402 l 2,5,6
 243 257 243 257 224.5 168.5 c 128,-1,7
 206 80 206 80 168 36.5 c 128,-1,8
 130 -7 130 -7 67 -7 c 0,9,10
 40 -7 40 -7 11 0 c 1,11,-1
 17 66 l 1,12,13
 34 62 34 62 50 62 c 0,14,15
 94 62 94 62 121.5 97 c 128,-1,16
 149 132 149 132 163 205.5 c 128,-1,17
 177 279 177 279 182 400 c 2,18,-1
 192 700 l 1,19,-1
 667 700 l 1,0,-1
EndSplineSet
Substitution2: "'ss01' Style Set 1 lookup 42 subtable" uni041B.ss01
Substitution2: "'salt' Stylistic Alternatives lookup 41 subtable" uni041B.ss01
Substitution2: "'locl' Localized Forms in Cyrillic lookup 17 subtable" uni041B.loclBGR
AlternateSubs2: "'aalt' Access All Alternates lookup 1 subtable" uni041B.loclBGR uni041B.ss01
EndChar

StartChar: uni041C
Encoding: 1052 1052 1145
Width: 963
GlyphClass: 2
Flags: W
AnchorPoint: "Anchor-9" 0 0 basechar 0
AnchorPoint: "Anchor-8" 0 0 basechar 0
AnchorPoint: "Anchor-7" 481 700 basechar 0
AnchorPoint: "Anchor-6" 0 0 basechar 0
AnchorPoint: "Anchor-5" 481 0 basechar 0
LayerCount: 2
Fore
SplineSet
845 700 m 1,0,-1
 845 0 l 1,1,-1
 774 0 l 1,2,-1
 774 560 l 1,3,-1
 499 89 l 1,4,-1
 464 89 l 1,5,-1
 189 557 l 1,6,-1
 189 0 l 1,7,-1
 118 0 l 1,8,-1
 118 700 l 1,9,-1
 179 700 l 1,10,-1
 483 181 l 1,11,-1
 784 700 l 1,12,-1
 845 700 l 1,0,-1
EndSplineSet
EndChar

StartChar: uni041F
Encoding: 1055 1055 1148
Width: 825
GlyphClass: 2
Flags: W
AnchorPoint: "Anchor-9" 0 0 basechar 0
AnchorPoint: "Anchor-8" 0 0 basechar 0
AnchorPoint: "Anchor-7" 0 0 basechar 0
AnchorPoint: "Anchor-6" 0 0 basechar 0
AnchorPoint: "Anchor-5" 0 0 basechar 0
LayerCount: 2
Fore
SplineSet
707 700 m 1,0,-1
 707 0 l 1,1,-1
 634 0 l 1,2,-1
 634 636 l 1,3,-1
 191 636 l 1,4,-1
 191 0 l 1,5,-1
 118 0 l 1,6,-1
 118 700 l 1,7,-1
 707 700 l 1,0,-1
EndSplineSet
EndChar

StartChar: uni0422
Encoding: 1058 1058 1151
Width: 588
GlyphClass: 2
Flags: W
AnchorPoint: "Anchor-9" 0 0 basechar 0
AnchorPoint: "Anchor-8" 295 345 basechar 0
AnchorPoint: "Anchor-7" 295 700 basechar 0
AnchorPoint: "Anchor-6" 0 0 basechar 0
AnchorPoint: "Anchor-5" 295 0 basechar 0
LayerCount: 2
Fore
SplineSet
576 636 m 1,0,-1
 330 636 l 1,1,-1
 330 0 l 1,2,-1
 257 0 l 1,3,-1
 257 636 l 1,4,-1
 11 636 l 1,5,-1
 11 700 l 1,6,-1
 576 700 l 1,7,-1
 576 636 l 1,0,-1
EndSplineSet
Substitution2: "'ss01' Style Set 1 lookup 42 subtable" uni0422.ss01
Substitution2: "'salt' Stylistic Alternatives lookup 41 subtable" uni0422.ss01
Substitution2: "'aalt' Access All Alternates lookup 0 subtable" uni0422.ss01
EndChar

StartChar: uni0423
Encoding: 1059 1059 1152
Width: 680
GlyphClass: 2
Flags: W
AnchorPoint: "Anchor-9" 0 0 basechar 0
AnchorPoint: "Anchor-8" 0 0 basechar 0
AnchorPoint: "Anchor-7" 333 700 basechar 0
AnchorPoint: "Anchor-6" 0 0 basechar 0
AnchorPoint: "Anchor-5" 0 0 basechar 0
LayerCount: 2
Fore
SplineSet
668 700 m 1,0,-1
 350 111 l 2,1,2
 316 48 316 48 270.5 17.5 c 128,-1,3
 225 -13 225 -13 171 -13 c 0,4,5
 131 -13 131 -13 85 6 c 1,6,-1
 106 66 l 1,7,8
 142 52 142 52 172 52 c 0,9,10
 241 52 241 52 285 127 c 2,11,-1
 305 161 l 1,12,-1
 21 700 l 1,13,-1
 100 700 l 1,14,-1
 344 226 l 1,15,-1
 594 700 l 1,16,-1
 668 700 l 1,0,-1
EndSplineSet
Substitution2: "'ss01' Style Set 1 lookup 42 subtable" uni0423.ss01
Substitution2: "'salt' Stylistic Alternatives lookup 41 subtable" uni0423.ss01
Substitution2: "'aalt' Access All Alternates lookup 0 subtable" uni0423.ss01
EndChar

StartChar: uni0424
Encoding: 1060 1060 1154
Width: 917
Flags: W
LayerCount: 2
Fore
SplineSet
768.5 156.5 m 128,-1,1
 670 77 670 77 493 72 c 1,2,-1
 493 0 l 1,3,-1
 424 0 l 1,4,-1
 424 72 l 1,5,6
 247 78 247 78 148.5 157 c 128,-1,7
 50 236 50 236 50 351 c 256,8,9
 50 466 50 466 148.5 545 c 128,-1,10
 247 624 247 624 424 630 c 1,11,-1
 424 700 l 1,12,-1
 493 700 l 1,13,-1
 493 630 l 1,14,15
 669 624 669 624 768 544.5 c 128,-1,16
 867 465 867 465 867 350.5 c 128,-1,0
 867 236 867 236 768.5 156.5 c 128,-1,1
717 200 m 128,-1,18
 796 263 796 263 796 351 c 256,19,20
 796 439 796 439 716.5 502 c 128,-1,21
 637 565 637 565 493 570 c 1,22,-1
 493 131 l 1,23,17
 638 137 638 137 717 200 c 128,-1,18
200.5 200.5 m 128,-1,25
 280 138 280 138 424 131 c 1,26,-1
 424 570 l 1,27,28
 278 564 278 564 199.5 501.5 c 128,-1,29
 121 439 121 439 121 351 c 256,30,24
 121 263 121 263 200.5 200.5 c 128,-1,25
EndSplineSet
Substitution2: "'ss01' Style Set 1 lookup 42 subtable" uni0424.ss01
Substitution2: "'salt' Stylistic Alternatives lookup 41 subtable" uni0424.ss01
Substitution2: "'locl' Localized Forms in Cyrillic lookup 17 subtable" uni0424.loclBGR
AlternateSubs2: "'aalt' Access All Alternates lookup 1 subtable" uni0424.loclBGR uni0424.ss01
EndChar

StartChar: uni0425
Encoding: 1061 1061 1155
Width: 650
GlyphClass: 2
Flags: W
AnchorPoint: "Anchor-9" 0 0 basechar 0
AnchorPoint: "Anchor-8" 0 0 basechar 0
AnchorPoint: "Anchor-7" 0 0 basechar 0
AnchorPoint: "Anchor-6" 0 0 basechar 0
AnchorPoint: "Anchor-5" 0 0 basechar 0
LayerCount: 2
Fore
SplineSet
125 700 m 1,0,-1
 324 423 l 1,1,-1
 522 700 l 1,2,-1
 609 700 l 1,3,-1
 370 364 l 1,4,-1
 628 0 l 1,5,-1
 541 0 l 1,6,-1
 324 301 l 1,7,-1
 107 0 l 1,8,-1
 22 0 l 1,9,-1
 279 361 l 1,10,-1
 40 700 l 1,11,-1
 125 700 l 1,0,-1
EndSplineSet
EndChar

StartChar: uni0427
Encoding: 1063 1063 1156
Width: 731
GlyphClass: 2
Flags: W
AnchorPoint: "Anchor-9" 0 0 basechar 0
AnchorPoint: "Anchor-8" 0 0 basechar 0
AnchorPoint: "Anchor-7" 337 700 basechar 0
AnchorPoint: "Anchor-6" 0 0 basechar 0
AnchorPoint: "Anchor-5" 0 0 basechar 0
LayerCount: 2
Fore
SplineSet
612 700 m 1,0,-1
 612 0 l 1,1,-1
 540 0 l 1,2,-1
 540 290 l 1,3,4
 426 241 426 241 319 241 c 0,5,6
 196 241 196 241 127.5 301 c 128,-1,7
 59 361 59 361 59 469 c 2,8,-1
 59 700 l 1,9,-1
 132 700 l 1,10,-1
 132 477 l 2,11,12
 132 396 132 396 183 351 c 128,-1,13
 234 306 234 306 326 306 c 0,14,15
 431 306 431 306 540 356 c 1,16,-1
 540 700 l 1,17,-1
 612 700 l 1,0,-1
EndSplineSet
EndChar

StartChar: uni0426
Encoding: 1062 1062 1157
Width: 827
Flags: W
LayerCount: 2
Fore
SplineSet
798 64 m 1,0,-1
 798 -164 l 1,1,-1
 729 -164 l 1,2,-1
 729 0 l 1,3,-1
 118 0 l 1,4,-1
 118 700 l 1,5,-1
 191 700 l 1,6,-1
 191 64 l 1,7,-1
 614 64 l 1,8,-1
 614 700 l 1,9,-1
 687 700 l 1,10,-1
 687 64 l 1,11,-1
 798 64 l 1,0,-1
EndSplineSet
EndChar

StartChar: uni0428
Encoding: 1064 1064 1158
Width: 1094
GlyphClass: 2
Flags: W
AnchorPoint: "Anchor-9" 0 0 basechar 0
AnchorPoint: "Anchor-8" 0 0 basechar 0
AnchorPoint: "Anchor-7" 0 0 basechar 0
AnchorPoint: "Anchor-6" 0 0 basechar 0
AnchorPoint: "Anchor-5" 0 0 basechar 0
LayerCount: 2
Fore
SplineSet
976 700 m 1,0,-1
 976 0 l 1,1,-1
 118 0 l 1,2,-1
 118 700 l 1,3,-1
 191 700 l 1,4,-1
 191 64 l 1,5,-1
 511 64 l 1,6,-1
 511 700 l 1,7,-1
 584 700 l 1,8,-1
 584 64 l 1,9,-1
 903 64 l 1,10,-1
 903 700 l 1,11,-1
 976 700 l 1,0,-1
EndSplineSet
EndChar

StartChar: uni040F
Encoding: 1039 1039 1160
Width: 806
Flags: W
LayerCount: 2
Fore
SplineSet
687 0 m 1,0,-1
 437 0 l 1,1,-1
 437 -164 l 1,2,-1
 368 -164 l 1,3,-1
 368 0 l 1,4,-1
 118 0 l 1,5,-1
 118 700 l 1,6,-1
 191 700 l 1,7,-1
 191 64 l 1,8,-1
 614 64 l 1,9,-1
 614 700 l 1,10,-1
 687 700 l 1,11,-1
 687 0 l 1,0,-1
EndSplineSet
EndChar

StartChar: uni042C
Encoding: 1068 1068 1161
Width: 710
GlyphClass: 2
Flags: W
AnchorPoint: "Anchor-9" 0 0 basechar 0
AnchorPoint: "Anchor-8" 171 587 basechar 0
AnchorPoint: "Anchor-7" 0 0 basechar 0
AnchorPoint: "Anchor-6" 0 0 basechar 0
AnchorPoint: "Anchor-5" 0 0 basechar 0
LayerCount: 2
Fore
SplineSet
600.5 394 m 128,-1,1
 666 338 666 338 666 230 c 0,2,3
 666 117 666 117 596.5 58.5 c 128,-1,4
 527 0 527 0 396 0 c 2,5,-1
 118 0 l 1,6,-1
 118 700 l 1,7,-1
 191 700 l 1,8,-1
 191 450 l 1,9,-1
 411 450 l 2,10,0
 535 450 535 450 600.5 394 c 128,-1,1
541.5 102 m 128,-1,12
 592 145 592 145 592 229 c 0,13,14
 592 390 592 390 394 390 c 2,15,-1
 191 390 l 1,16,-1
 191 59 l 1,17,-1
 394 59 l 2,18,11
 491 59 491 59 541.5 102 c 128,-1,12
EndSplineSet
Substitution2: "'ss01' Style Set 1 lookup 42 subtable" uni042C.ss01
Substitution2: "'salt' Stylistic Alternatives lookup 41 subtable" uni042C.ss01
Substitution2: "'aalt' Access All Alternates lookup 0 subtable" uni042C.ss01
EndChar

StartChar: uni042A
Encoding: 1066 1066 1162
Width: 820
Flags: W
LayerCount: 2
Fore
SplineSet
711 394 m 128,-1,1
 776 338 776 338 776 230 c 0,2,3
 776 117 776 117 706.5 58.5 c 128,-1,4
 637 0 637 0 506 0 c 2,5,-1
 229 0 l 1,6,-1
 229 636 l 1,7,-1
 11 636 l 1,8,-1
 11 700 l 1,9,-1
 302 700 l 1,10,-1
 302 450 l 1,11,-1
 522 450 l 2,12,0
 646 450 646 450 711 394 c 128,-1,1
652.5 102 m 128,-1,14
 703 145 703 145 703 229 c 0,15,16
 703 390 703 390 505 390 c 2,17,-1
 302 390 l 1,18,-1
 302 59 l 1,19,-1
 505 59 l 2,20,13
 602 59 602 59 652.5 102 c 128,-1,14
EndSplineSet
Substitution2: "'ss01' Style Set 1 lookup 42 subtable" uni042A.ss01
Substitution2: "'salt' Stylistic Alternatives lookup 41 subtable" uni042A.ss01
Substitution2: "'aalt' Access All Alternates lookup 0 subtable" uni042A.ss01
EndChar

StartChar: uni040A
Encoding: 1034 1034 1165
Width: 1184
Flags: W
LayerCount: 2
Fore
SplineSet
1081 362 m 128,-1,1
 1144 309 1144 309 1144 213 c 0,2,3
 1144 113 1144 113 1077 56.5 c 128,-1,4
 1010 0 1010 0 891 0 c 2,5,-1
 614 0 l 1,6,-1
 614 348 l 1,7,-1
 191 348 l 1,8,-1
 191 0 l 1,9,-1
 118 0 l 1,10,-1
 118 700 l 1,11,-1
 191 700 l 1,12,-1
 191 412 l 1,13,-1
 614 412 l 1,14,-1
 614 700 l 1,15,-1
 687 700 l 1,16,-1
 687 415 l 1,17,-1
 905 415 l 2,18,0
 1018 415 1018 415 1081 362 c 128,-1,1
1022 99 m 128,-1,20
 1070 139 1070 139 1070 210 c 0,21,22
 1070 280 1070 280 1022.5 317.5 c 128,-1,23
 975 355 975 355 887 355 c 2,24,-1
 687 355 l 1,25,-1
 687 59 l 1,26,-1
 887 59 l 2,27,19
 974 59 974 59 1022 99 c 128,-1,20
EndSplineSet
Substitution2: "'ss01' Style Set 1 lookup 42 subtable" uni040A.ss01
Substitution2: "'salt' Stylistic Alternatives lookup 41 subtable" uni040A.ss01
Substitution2: "'aalt' Access All Alternates lookup 0 subtable" uni040A.ss01
EndChar

StartChar: uni042D
Encoding: 1069 1069 1168
Width: 706
GlyphClass: 2
Flags: W
AnchorPoint: "Anchor-9" 0 0 basechar 0
AnchorPoint: "Anchor-8" 0 0 basechar 0
AnchorPoint: "Anchor-7" 317 700 basechar 0
AnchorPoint: "Anchor-6" 0 0 basechar 0
AnchorPoint: "Anchor-5" 0 0 basechar 0
LayerCount: 2
Fore
SplineSet
476.5 660 m 128,-1,1
 556 614 556 614 601.5 532.5 c 128,-1,2
 647 451 647 451 647 350 c 256,3,4
 647 249 647 249 601.5 167.5 c 128,-1,5
 556 86 556 86 476.5 40 c 128,-1,6
 397 -6 397 -6 299 -6 c 0,7,8
 217 -6 217 -6 149 20 c 128,-1,9
 81 46 81 46 35 97 c 1,10,-1
 81 144 l 1,11,12
 164 60 164 60 296 60 c 0,13,14
 370 60 370 60 431 94.5 c 128,-1,15
 492 129 492 129 529.5 189.5 c 128,-1,16
 567 250 567 250 572 326 c 1,17,-1
 211 326 l 1,18,-1
 211 387 l 1,19,-1
 571 387 l 1,20,21
 563 460 563 460 525.5 517.5 c 128,-1,22
 488 575 488 575 428 607.5 c 128,-1,23
 368 640 368 640 296 640 c 0,24,25
 164 640 164 640 81 556 c 1,26,-1
 35 603 l 1,27,28
 81 654 81 654 149 680 c 128,-1,29
 217 706 217 706 299 706 c 0,30,0
 397 706 397 706 476.5 660 c 128,-1,1
EndSplineSet
EndChar

StartChar: uni0406
Encoding: 1030 1030 1169
Width: 309
GlyphClass: 2
Flags: W
AnchorPoint: "Anchor-9" 0 0 basechar 0
AnchorPoint: "Anchor-8" 0 0 basechar 0
AnchorPoint: "Anchor-7" 155 700 basechar 0
AnchorPoint: "Anchor-6" 191 0 basechar 0
AnchorPoint: "Anchor-5" 155 0 basechar 0
LayerCount: 2
Fore
SplineSet
118 700 m 1,0,-1
 191 700 l 1,1,-1
 191 0 l 1,2,-1
 118 0 l 1,3,-1
 118 700 l 1,0,-1
EndSplineSet
EndChar

StartChar: uni040B
Encoding: 1035 1035 1172
Width: 835
Flags: W
LayerCount: 2
Fore
SplineSet
718 363 m 128,-1,1
 782 306 782 306 782 195 c 2,2,-1
 782 0 l 1,3,-1
 709 0 l 1,4,-1
 709 187 l 2,5,6
 709 268 709 268 661 311 c 128,-1,7
 613 354 613 354 528 354 c 0,8,9
 441 354 441 354 330 305 c 1,10,-1
 330 0 l 1,11,-1
 257 0 l 1,12,-1
 257 636 l 1,13,-1
 11 636 l 1,14,-1
 11 700 l 1,15,-1
 594 700 l 1,16,-1
 594 636 l 1,17,-1
 330 636 l 1,18,-1
 330 373 l 1,19,20
 443 420 443 420 542 420 c 0,21,0
 654 420 654 420 718 363 c 128,-1,1
EndSplineSet
EndChar

StartChar: uni042E
Encoding: 1070 1070 1173
Width: 1092
Flags: W
LayerCount: 2
Fore
SplineSet
862 660 m 128,-1,1
 942 614 942 614 987.5 532.5 c 128,-1,2
 1033 451 1033 451 1033 350 c 256,3,4
 1033 249 1033 249 987.5 167.5 c 128,-1,5
 942 86 942 86 862 40 c 128,-1,6
 782 -6 782 -6 683 -6 c 0,7,8
 589 -6 589 -6 512 36 c 128,-1,9
 435 78 435 78 388 153 c 128,-1,10
 341 228 341 228 335 322 c 1,11,-1
 191 322 l 1,12,-1
 191 0 l 1,13,-1
 118 0 l 1,14,-1
 118 700 l 1,15,-1
 191 700 l 1,16,-1
 191 389 l 1,17,-1
 336 389 l 1,18,19
 344 480 344 480 391.5 552.5 c 128,-1,20
 439 625 439 625 515 665.5 c 128,-1,21
 591 706 591 706 683 706 c 0,22,0
 782 706 782 706 862 660 c 128,-1,1
824 97.5 m 128,-1,24
 887 135 887 135 923 201 c 128,-1,25
 959 267 959 267 959 350 c 256,26,27
 959 433 959 433 923 499 c 128,-1,28
 887 565 887 565 824 602.5 c 128,-1,29
 761 640 761 640 683 640 c 0,30,31
 606 640 606 640 543 602.5 c 128,-1,32
 480 565 480 565 444 499 c 128,-1,33
 408 433 408 433 408 350 c 256,34,35
 408 267 408 267 444 201 c 128,-1,36
 480 135 480 135 543 97.5 c 128,-1,37
 606 60 606 60 683 60 c 0,38,23
 761 60 761 60 824 97.5 c 128,-1,24
EndSplineSet
EndChar

StartChar: uni042F
Encoding: 1071 1071 1174
Width: 732
Flags: W
LayerCount: 2
Fore
SplineSet
614 700 m 1,0,-1
 614 0 l 1,1,-1
 541 0 l 1,2,-1
 541 212 l 1,3,-1
 332 212 l 2,4,5
 318 212 318 212 292 214 c 1,6,-1
 145 0 l 1,7,-1
 66 0 l 1,8,-1
 225 227 l 1,9,10
 148 250 148 250 107 308.5 c 128,-1,11
 66 367 66 367 66 452 c 0,12,13
 66 570 66 570 140.5 635 c 128,-1,14
 215 700 215 700 342 700 c 2,15,-1
 614 700 l 1,0,-1
190.5 321.5 m 128,-1,17
 241 275 241 275 338 275 c 2,18,-1
 541 275 l 1,19,-1
 541 636 l 1,20,-1
 345 636 l 2,21,22
 247 636 247 636 193.5 589.5 c 128,-1,23
 140 543 140 543 140 454 c 0,24,16
 140 368 140 368 190.5 321.5 c 128,-1,17
EndSplineSet
EndChar

StartChar: uni0402
Encoding: 1026 1026 1175
Width: 825
Flags: W
LayerCount: 2
Fore
SplineSet
545 422 m 0,1,2
 653 422 653 422 718 367.5 c 128,-1,3
 783 313 783 313 783 209 c 0,4,5
 783 104 783 104 718 49.5 c 128,-1,6
 653 -5 653 -5 554 -5 c 0,7,8
 517 -5 517 -5 470 5 c 1,9,-1
 480 67 l 1,10,11
 509 59 509 59 547 59 c 0,12,13
 618 59 618 59 664 96 c 128,-1,14
 710 133 710 133 710 207 c 0,15,16
 710 282 710 282 661.5 320.5 c 128,-1,17
 613 359 613 359 531 359 c 0,18,19
 440 359 440 359 332 312 c 1,20,-1
 332 0 l 1,21,-1
 259 0 l 1,22,-1
 259 636 l 1,23,-1
 12 636 l 1,24,-1
 12 700 l 1,25,-1
 598 700 l 1,26,-1
 598 636 l 1,27,-1
 332 636 l 1,28,-1
 332 378 l 1,29,0
 447 422 447 422 545 422 c 0,1,2
EndSplineSet
EndChar

StartChar: uni0462
Encoding: 1122 1122 1176
Width: 802
GlyphClass: 2
Flags: W
AnchorPoint: "Anchor-9" 0 0 basechar 0
AnchorPoint: "Anchor-8" 262 587 basechar 0
AnchorPoint: "Anchor-7" 0 0 basechar 0
AnchorPoint: "Anchor-6" 0 0 basechar 0
AnchorPoint: "Anchor-5" 0 0 basechar 0
LayerCount: 2
Fore
SplineSet
693.5 391 m 128,-1,1
 758 335 758 335 758 228 c 0,2,3
 758 118 758 118 688.5 59 c 128,-1,4
 619 0 619 0 489 0 c 2,5,-1
 209 0 l 1,6,-1
 209 563 l 1,7,-1
 19 563 l 1,8,-1
 19 619 l 1,9,-1
 209 619 l 1,10,-1
 209 742 l 1,11,-1
 282 742 l 1,12,-1
 282 619 l 1,13,-1
 501 619 l 1,14,-1
 501 563 l 1,15,-1
 282 563 l 1,16,-1
 282 447 l 1,17,-1
 505 447 l 2,18,0
 629 447 629 447 693.5 391 c 128,-1,1
634 101 m 128,-1,20
 683 143 683 143 683 226 c 0,21,22
 683 388 683 388 488 388 c 2,23,-1
 282 388 l 1,24,-1
 282 59 l 1,25,-1
 488 59 l 2,26,19
 585 59 585 59 634 101 c 128,-1,20
EndSplineSet
Substitution2: "'ss01' Style Set 1 lookup 42 subtable" uni0462.ss01
Substitution2: "'salt' Stylistic Alternatives lookup 41 subtable" uni0462.ss01
Substitution2: "'aalt' Access All Alternates lookup 0 subtable" uni0462.ss01
EndChar

StartChar: uni046A
Encoding: 1130 1130 1177
Width: 884
Flags: W
LayerCount: 2
Fore
SplineSet
862 0 m 1,0,-1
 785 0 l 1,1,-1
 722 144 l 2,2,3
 687 229 687 229 634.5 271 c 128,-1,4
 582 313 582 313 515 313 c 2,5,-1
 477 313 l 1,6,-1
 477 0 l 1,7,-1
 408 0 l 1,8,-1
 408 313 l 1,9,-1
 371 313 l 2,10,11
 230 313 230 313 162 144 c 1,12,-1
 99 0 l 1,13,-1
 22 0 l 1,14,-1
 96 163 l 1,15,16
 183 369 183 369 355 369 c 2,17,-1
 365 369 l 1,18,-1
 101 649 l 1,19,-1
 101 700 l 1,20,-1
 783 700 l 1,21,-1
 783 652 l 1,22,-1
 519 369 l 1,23,-1
 530 369 l 2,24,25
 703 369 703 369 789 163 c 1,26,-1
 862 0 l 1,0,-1
442 369 m 1,27,-1
 699 642 l 1,28,-1
 185 642 l 1,29,-1
 442 369 l 1,27,-1
EndSplineSet
EndChar

StartChar: uni0474
Encoding: 1140 1140 1179
Width: 748
Flags: W
LayerCount: 2
Fore
SplineSet
19 700 m 1,0,-1
 99 700 l 1,1,-1
 344 106 l 1,2,-1
 504 548 l 2,3,4
 533 631 533 631 574 670 c 128,-1,5
 615 709 615 709 676 709 c 0,6,7
 702 709 702 709 737 701 c 1,8,-1
 728 628 l 1,9,10
 706 634 706 634 686 634 c 0,11,12
 643 634 643 634 615.5 603.5 c 128,-1,13
 588 573 588 573 563 505 c 2,14,-1
 380 0 l 1,15,-1
 307 0 l 1,16,-1
 19 700 l 1,0,-1
EndSplineSet
EndChar

StartChar: uni0492
Encoding: 1170 1170 1180
Width: 608
GlyphClass: 2
Flags: W
AnchorPoint: "Anchor-9" 0 0 basechar 0
AnchorPoint: "Anchor-8" 0 0 basechar 0
AnchorPoint: "Anchor-7" 357 700 basechar 0
AnchorPoint: "Anchor-6" 0 0 basechar 0
AnchorPoint: "Anchor-5" 0 0 basechar 0
LayerCount: 2
Fore
SplineSet
214 636 m 1,0,-1
 214 353 l 1,1,-1
 516 353 l 1,2,-1
 516 297 l 1,3,-1
 215 297 l 1,4,-1
 215 0 l 1,5,-1
 142 0 l 1,6,-1
 142 297 l 1,7,-1
 35 297 l 1,8,-1
 35 353 l 1,9,-1
 142 353 l 1,10,-1
 142 700 l 1,11,-1
 587 700 l 1,12,-1
 587 636 l 1,13,-1
 214 636 l 1,0,-1
EndSplineSet
Substitution2: "'locl' Localized Forms in Cyrillic lookup 21 subtable" uni0492.loclBSH
Substitution2: "'aalt' Access All Alternates lookup 0 subtable" uni0492.loclBSH
EndChar

StartChar: uni0494
Encoding: 1172 1172 1181
Width: 701
Flags: W
LayerCount: 2
Fore
SplineSet
391 398 m 0,1,2
 464 398 464 398 522.5 367 c 128,-1,3
 581 336 581 336 614.5 278.5 c 128,-1,4
 648 221 648 221 648 142 c 0,5,6
 648 60 648 60 614 -4.5 c 128,-1,7
 580 -69 580 -69 520 -104.5 c 128,-1,8
 460 -140 460 -140 385 -140 c 0,9,10
 360 -140 360 -140 321 -133 c 1,11,-1
 334 -71 l 1,12,13
 361 -76 361 -76 382 -76 c 0,14,15
 437 -76 437 -76 481.5 -49 c 128,-1,16
 526 -22 526 -22 551 26.5 c 128,-1,17
 576 75 576 75 576 137 c 256,18,19
 576 199 576 199 549.5 244 c 128,-1,20
 523 289 523 289 478 313 c 128,-1,21
 433 337 433 337 376 337 c 0,22,23
 331 337 331 337 284 321.5 c 128,-1,24
 237 306 237 306 191 275 c 1,25,-1
 191 0 l 1,26,-1
 118 0 l 1,27,-1
 118 700 l 1,28,-1
 583 700 l 1,29,-1
 583 636 l 1,30,-1
 191 636 l 1,31,-1
 191 341 l 1,32,0
 290 398 290 398 391 398 c 0,1,2
EndSplineSet
EndChar

StartChar: uni049C
Encoding: 1180 1180 1185
Width: 728
Flags: W
LayerCount: 2
Fore
SplineSet
392 321 m 1,0,-1
 333 321 l 1,1,-1
 333 171 l 1,2,-1
 276 171 l 1,3,-1
 276 321 l 1,4,-1
 190 321 l 1,5,-1
 190 0 l 1,6,-1
 118 0 l 1,7,-1
 118 700 l 1,8,-1
 190 700 l 1,9,-1
 190 386 l 1,10,-1
 276 386 l 1,11,-1
 276 538 l 1,12,-1
 333 538 l 1,13,-1
 333 386 l 1,14,-1
 392 386 l 1,15,-1
 606 700 l 1,16,-1
 686 700 l 1,17,-1
 450 359 l 1,18,-1
 705 0 l 1,19,-1
 619 0 l 1,20,-1
 392 321 l 1,0,-1
EndSplineSet
EndChar

